SplineFontDB: 3.0
FontName: Laksaman-Italic
FullName: Laksaman Italic
FamilyName: Laksaman
Weight: Book
Copyright: Laksaman, based on TH Sarabun New.\n\nCopyright (c) 2014 Theppitak Karoonboonyanan.\n\nTH Sarabun New:\n\nCopyright (c) 2010-2011 by Software Industry Promotion Agency (Public Organization) (SIPA). All rights reserved.\nCreated by : Suppakit CHALERMLARP.
Version: 3.0: 2014-04-30
ItalicAngle: -12
UnderlinePosition: -20
UnderlineWidth: 30
Ascent: 800
Descent: 200
LayerCount: 2
Layer: 0 1 "Back"  1
Layer: 1 1 "Fore"  0
XUID: [1021 373 914837695 4926798]
FSType: 0
OS2Version: 3
OS2_WeightWidthSlopeOnly: 0
OS2_UseTypoMetrics: 1
CreationTime: 1308745587
ModificationTime: 1398865506
PfmFamily: 17
TTFWeight: 400
TTFWidth: 5
LineGap: 30
VLineGap: 0
Panose: 2 11 5 0 4 2 0 2 0 3
OS2TypoAscent: 850
OS2TypoAOffset: 0
OS2TypoDescent: -250
OS2TypoDOffset: 0
OS2TypoLinegap: 60
OS2WinAscent: 844
OS2WinAOffset: 0
OS2WinDescent: 457
OS2WinDOffset: 0
HheadAscent: 844
HheadAOffset: 0
HheadDescent: -457
HheadDOffset: 0
OS2SubXSize: 700
OS2SubYSize: 650
OS2SubXOff: 0
OS2SubYOff: 140
OS2SupXSize: 700
OS2SupYSize: 650
OS2SupXOff: 0
OS2SupYOff: 477
OS2StrikeYSize: 30
OS2StrikeYPos: 250
OS2FamilyClass: 2053
OS2Vendor: 'psk '
OS2CodePages: 60010183.80000000
OS2UnicodeRanges: a100006f.5000205a.00000000.00000000
Lookup: 4 0 0 "'frac' Diagonal Fractions in Latin lookup 0"  {"'frac' Diagonal Fractions in Latin lookup 0 subtable"  } ['frac' ('latn' <'dflt' > ) ]
Lookup: 4 0 1 "'rlig' Required Ligatures in Latin lookup 1"  {"'rlig' Required Ligatures in Latin lookup 1 subtable"  } ['rlig' ('latn' <'dflt' > ) ]
Lookup: 4 0 1 "'rlig' Required Ligatures in Latin lookup 2"  {"'rlig' Required Ligatures in Latin lookup 2 subtable"  } ['rlig' ('latn' <'dflt' > ) ]
Lookup: 6 0 0 "'rlig' Required Ligatures in Latin lookup 3"  {"'rlig' Required Ligatures in Latin lookup 3 subtable"  } ['rlig' ('latn' <'dflt' > ) ]

StartChar: .notdef
Encoding: 65536 -1 0
Width: 692
Flags: W
LayerCount: 2
Fore
SplineSet
642 0 m 1,0,-1
 50 0 l 1,1,-1
 50 809 l 1,2,-1
 642 809 l 1,3,-1
 642 0 l 1,0,-1
612 28 m 1,4,-1
 612 781 l 1,5,-1
 80 781 l 1,6,-1
 80 28 l 1,7,-1
 612 28 l 1,4,-1
EndSplineSet
EndChar

StartChar: exclam
Encoding: 33 33 2
Width: 147
Flags: W
LayerCount: 2
Fore
SplineSet
70 120 m 1,0,-1
 38 120 l 1,1,-1
 106 475 l 1,2,-1
 153 475 l 1,3,-1
 70 120 l 1,0,-1
69 28 m 256,4,5
 66 14 66 14 53.5 4 c 128,-1,6
 41 -6 41 -6 27 -6 c 256,7,8
 13 -6 13 -6 5.5 4 c 128,-1,9
 -2 14 -2 14 0 28 c 0,10,11
 3 42 3 42 15.5 52.5 c 128,-1,12
 28 63 28 63 42 63 c 256,13,14
 56 63 56 63 64 52.5 c 128,-1,15
 72 42 72 42 69 28 c 256,4,5
EndSplineSet
EndChar

StartChar: quotedbl
Encoding: 34 34 3
Width: 208
Flags: W
LayerCount: 2
Fore
SplineSet
189 338 m 1,0,-1
 162 338 l 1,1,-1
 187 499 l 1,2,-1
 234 499 l 1,3,-1
 189 338 l 1,0,-1
102 338 m 1,4,-1
 75 338 l 1,5,-1
 100 499 l 1,6,-1
 147 499 l 1,7,-1
 102 338 l 1,4,-1
EndSplineSet
EndChar

StartChar: numbersign
Encoding: 35 35 4
Width: 403
Flags: W
LayerCount: 2
Fore
SplineSet
349 149 m 1,0,-1
 277 149 l 1,1,-1
 227 0 l 1,2,-1
 192 0 l 1,3,-1
 242 149 l 1,4,-1
 114 149 l 1,5,-1
 65 0 l 1,6,-1
 30 0 l 1,7,-1
 79 149 l 1,8,-1
 15 149 l 1,9,-1
 22 180 l 1,10,-1
 90 180 l 1,11,-1
 129 299 l 1,12,-1
 61 299 l 1,13,-1
 68 331 l 1,14,-1
 140 331 l 1,15,-1
 189 475 l 1,16,-1
 222 475 l 1,17,-1
 174 331 l 1,18,-1
 303 331 l 1,19,-1
 350 475 l 1,20,-1
 385 475 l 1,21,-1
 337 331 l 1,22,-1
 402 331 l 1,23,-1
 395 299 l 1,24,-1
 326 299 l 1,25,-1
 287 180 l 1,26,-1
 356 180 l 1,27,-1
 349 149 l 1,0,-1
253 180 m 1,28,-1
 292 299 l 1,29,-1
 163 299 l 1,30,-1
 125 180 l 1,31,-1
 253 180 l 1,28,-1
EndSplineSet
EndChar

StartChar: dollar
Encoding: 36 36 5
Width: 361
Flags: W
LayerCount: 2
Fore
SplineSet
293 133 m 0,0,1
 284 93 284 93 250 61 c 0,2,3
 212 26 212 26 156 16 c 1,4,-1
 140 -58 l 1,5,-1
 105 -58 l 1,6,-1
 121 16 l 1,7,8
 57 16 57 16 19 51 c 1,9,-1
 44 82 l 1,10,11
 77 48 77 48 137 48 c 0,12,13
 182 48 182 48 214.5 71.5 c 128,-1,14
 247 95 247 95 254 131 c 1,15,16
 267 189 267 189 187 226 c 0,17,18
 77 276 77 276 93 350 c 0,19,20
 102 393 102 393 137.5 423 c 128,-1,21
 173 453 173 453 223 460 c 1,22,-1
 239 536 l 1,23,-1
 273 536 l 1,24,-1
 257 460 l 1,25,26
 306 457 306 457 343 431 c 1,27,-1
 318 399 l 1,28,29
 290 428 290 428 234 428 c 0,30,31
 190 428 190 428 161 403 c 0,32,33
 137 383 137 383 131 355 c 0,34,35
 125 325 125 325 141.5 305.5 c 128,-1,36
 158 286 158 286 205 263 c 0,37,38
 259 237 259 237 279 212 c 0,39,40
 303 180 303 180 293 133 c 0,0,1
EndSplineSet
EndChar

StartChar: percent
Encoding: 37 37 6
Width: 585
Flags: W
LayerCount: 2
Fore
SplineSet
511 476 m 1,0,-1
 118 -9 l 1,1,-1
 84 -9 l 1,2,-1
 477 476 l 1,3,-1
 511 476 l 1,0,-1
275 334 m 0,4,5
 245 192 245 192 138 192 c 256,6,7
 31 192 31 192 61 334 c 0,8,9
 92 476 92 476 199 476 c 256,10,11
 306 476 306 476 275 334 c 0,4,5
239 334 m 0,12,13
 263 444 263 444 192 444 c 256,14,15
 121 444 121 444 97 334 c 0,16,17
 74 224 74 224 145 224 c 256,18,19
 216 224 216 224 239 334 c 0,12,13
536 139 m 256,20,21
 506 -3 506 -3 399 -3 c 256,22,23
 292 -3 292 -3 322 139 c 256,24,25
 352 281 352 281 459 281 c 256,26,27
 566 281 566 281 536 139 c 256,20,21
500 139 m 256,28,29
 523 249 523 249 452 249 c 256,30,31
 381 249 381 249 358 139 c 256,32,33
 335 29 335 29 406 29 c 256,34,35
 477 29 477 29 500 139 c 256,28,29
EndSplineSet
EndChar

StartChar: ampersand
Encoding: 38 38 7
Width: 423
Flags: W
LayerCount: 2
Fore
SplineSet
424 256 m 1,0,1
 373 129 373 129 320 80 c 1,2,3
 349 42 349 42 387 0 c 1,4,-1
 337 0 l 1,5,6
 321 18 321 18 292 53 c 1,7,8
 205 -9 205 -9 118 -9 c 0,9,10
 58 -9 58 -9 24.5 30.5 c 128,-1,11
 -9 70 -9 70 3 128 c 0,12,13
 23 223 23 223 135 273 c 1,14,15
 104 330 104 330 113 375 c 0,16,17
 123 423 123 423 162.5 458 c 128,-1,18
 202 493 202 493 256 493 c 0,19,20
 300 493 300 493 322.5 465.5 c 128,-1,21
 345 438 345 438 335 395 c 0,22,23
 318 315 318 315 185 260 c 1,24,25
 229 196 229 196 301 101 c 1,26,27
 345 147 345 147 387 256 c 1,28,-1
 424 256 l 1,0,1
300 391 m 0,29,30
 306 420 306 420 294 440 c 0,31,32
 280 463 280 463 246 463 c 0,33,34
 211 463 211 463 184.5 438 c 128,-1,35
 158 413 158 413 151 379 c 0,36,37
 143 340 143 340 173 285 c 1,38,39
 288 335 288 335 300 391 c 0,29,30
274 77 m 1,40,41
 202 168 202 168 149 248 c 1,42,43
 57 204 57 204 42 133 c 0,44,45
 31 84 31 84 57.5 53.5 c 128,-1,46
 84 23 84 23 133 23 c 0,47,48
 208 23 208 23 274 77 c 1,40,41
EndSplineSet
EndChar

StartChar: quotesingle
Encoding: 39 39 8
Width: 120
Flags: W
LayerCount: 2
Fore
SplineSet
102 338 m 1,0,-1
 75 338 l 1,1,-1
 100 499 l 1,2,-1
 146 499 l 1,3,-1
 102 338 l 1,0,-1
EndSplineSet
EndChar

StartChar: parenleft
Encoding: 40 40 9
Width: 190
Flags: W
LayerCount: 2
Fore
SplineSet
113 -58 m 1,0,-1
 75 -58 l 1,1,2
 -9 63 -9 63 26 234 c 1,3,4
 61 396 61 396 200 532 c 1,5,-1
 240 532 l 1,6,7
 100 404 100 404 64 234 c 0,8,9
 30 75 30 75 113 -58 c 1,0,-1
EndSplineSet
EndChar

StartChar: parenright
Encoding: 41 41 10
Width: 190
Flags: W
LayerCount: 2
Fore
SplineSet
176 237 m 0,0,1
 141 71 141 71 2 -58 c 1,2,-1
 -35 -58 l 1,3,4
 105 81 105 81 138 237 c 0,5,6
 171 395 171 395 90 532 c 1,7,-1
 128 532 l 1,8,9
 212 407 212 407 176 237 c 0,0,1
EndSplineSet
EndChar

StartChar: asterisk
Encoding: 42 42 11
Width: 285
Flags: W
LayerCount: 2
Fore
SplineSet
299 356 m 1,0,-1
 198 365 l 1,1,-1
 244 279 l 1,2,-1
 206 258 l 1,3,-1
 174 357 l 1,4,-1
 101 258 l 1,5,-1
 73 279 l 1,6,-1
 155 365 l 1,7,-1
 50 356 l 1,8,-1
 58 394 l 1,9,-1
 160 387 l 1,10,-1
 114 472 l 1,11,-1
 157 494 l 1,12,-1
 185 402 l 1,13,-1
 252 494 l 1,14,-1
 285 472 l 1,15,-1
 203 387 l 1,16,-1
 307 394 l 1,17,-1
 299 356 l 1,0,-1
EndSplineSet
EndChar

StartChar: plus
Encoding: 43 43 12
Width: 411
Flags: W
LayerCount: 2
Fore
SplineSet
365 165 m 1,0,-1
 215 165 l 1,1,-1
 180 0 l 1,2,-1
 145 0 l 1,3,-1
 180 165 l 1,4,-1
 30 165 l 1,5,-1
 37 198 l 1,6,-1
 187 198 l 1,7,-1
 220 357 l 1,8,-1
 255 357 l 1,9,-1
 222 198 l 1,10,-1
 372 198 l 1,11,-1
 365 165 l 1,0,-1
EndSplineSet
EndChar

StartChar: comma
Encoding: 44 44 13
Width: 162
Flags: W
LayerCount: 2
Fore
SplineSet
85 27 m 0,0,1
 72 -27 72 -27 32 -68 c 0,2,3
 5 -97 5 -97 -22 -109 c 1,4,-1
 -32 -94 l 1,5,6
 26 -59 26 -59 43 -7 c 1,7,8
 27 -7 27 -7 18 4 c 128,-1,9
 9 15 9 15 12 30 c 256,10,11
 15 45 15 45 28.5 56.5 c 128,-1,12
 42 68 42 68 57 68 c 0,13,14
 73 68 73 68 81 56 c 128,-1,15
 89 44 89 44 85 27 c 0,0,1
EndSplineSet
EndChar

StartChar: hyphen
Encoding: 45 45 14
AltUni2: 0000ad.ffffffff.0
Width: 216
Flags: W
LayerCount: 2
Fore
SplineSet
179 165 m 1,0,-1
 5 165 l 1,1,-1
 19 198 l 1,2,-1
 193 198 l 1,3,-1
 179 165 l 1,0,-1
EndSplineSet
EndChar

StartChar: period
Encoding: 46 46 15
Width: 162
Flags: W
LayerCount: 2
Fore
SplineSet
77 28 m 256,0,1
 74 14 74 14 61.5 4 c 128,-1,2
 49 -6 49 -6 35 -6 c 256,3,4
 21 -6 21 -6 13 4 c 128,-1,5
 5 14 5 14 8 28 c 256,6,7
 11 42 11 42 23.5 52.5 c 128,-1,8
 36 63 36 63 50 63 c 256,9,10
 64 63 64 63 72 52.5 c 128,-1,11
 80 42 80 42 77 28 c 256,0,1
EndSplineSet
EndChar

StartChar: slash
Encoding: 47 47 16
Width: 270
Flags: W
LayerCount: 2
Fore
SplineSet
339 493 m 1,0,-1
 -29 -29 l 1,1,-1
 -67 -29 l 1,2,-1
 298 493 l 1,3,-1
 339 493 l 1,0,-1
EndSplineSet
EndChar

StartChar: zero
Encoding: 48 48 17
Width: 362
Flags: W
LayerCount: 2
Fore
SplineSet
335 227 m 0,0,1
 317 144 317 144 271 76 c 0,2,3
 211 -11 211 -11 135 -11 c 0,4,5
 58 -11 58 -11 36 76 c 1,6,7
 18 143 18 143 36 227 c 0,8,9
 57 328 57 328 107 398 c 0,10,11
 165 479 165 479 239 479 c 256,12,13
 313 479 313 479 337 398 c 1,14,15
 356 328 356 328 335 227 c 0,0,1
295 228 m 0,16,17
 313 315 313 315 301 375 c 0,18,19
 286 445 286 445 232 445 c 0,20,21
 177 445 177 445 132 375 c 0,22,23
 95 316 95 316 76 228 c 0,24,25
 61 156 61 156 72 98 c 0,26,27
 86 23 86 23 142 23 c 0,28,29
 197 23 197 23 243 98 c 1,30,31
 280 156 280 156 295 228 c 0,16,17
EndSplineSet
EndChar

StartChar: one
Encoding: 49 49 18
Width: 362
Flags: W
LayerCount: 2
Fore
SplineSet
244 0 m 1,0,-1
 54 0 l 1,1,-1
 61 36 l 1,2,-1
 136 36 l 1,3,-1
 217 417 l 1,4,-1
 128 352 l 1,5,-1
 112 377 l 1,6,-1
 248 478 l 1,7,8
 270 478 270 478 262 440 c 2,9,-1
 176 36 l 1,10,-1
 251 36 l 1,11,-1
 244 0 l 1,0,-1
EndSplineSet
EndChar

StartChar: two
Encoding: 50 50 19
Width: 362
Flags: W
LayerCount: 2
Fore
SplineSet
300 39 m 1,0,-1
 284 0 l 1,1,-1
 -17 0 l 1,2,3
 -7 25 -7 25 9 57 c 1,4,5
 61 101 61 101 123.5 151 c 128,-1,6
 186 201 186 201 267 278 c 1,7,8
 308 321 308 321 316 360 c 256,9,10
 324 399 324 399 303.5 420 c 128,-1,11
 283 441 283 441 243 441 c 0,12,13
 153 441 153 441 122 351 c 1,14,-1
 88 361 l 1,15,16
 107 419 107 419 153 450 c 0,17,18
 195 478 195 478 252 478 c 0,19,20
 308 478 308 478 337 443.5 c 128,-1,21
 366 409 366 409 355 357 c 0,22,23
 339 281 339 281 195 166 c 1,24,25
 90 80 90 80 45 39 c 1,26,-1
 300 39 l 1,0,-1
EndSplineSet
EndChar

StartChar: three
Encoding: 51 51 20
Width: 362
Flags: W
LayerCount: 2
Fore
SplineSet
319 161 m 0,0,1
 303 85 303 85 241 38 c 128,-1,2
 179 -9 179 -9 96 -11 c 0,3,4
 30 -13 30 -13 -3 26 c 1,5,-1
 20 57 l 1,6,7
 51 29 51 29 111 29 c 0,8,9
 169 29 169 29 218 68 c 128,-1,10
 267 107 267 107 278 159 c 0,11,12
 287 198 287 198 268.5 224 c 128,-1,13
 250 250 250 250 213 250 c 0,14,15
 170 250 170 250 141 227 c 1,16,-1
 129 259 l 1,17,18
 173 288 173 288 217 318 c 1,19,20
 284 366 284 366 290 393 c 0,21,22
 300 442 300 442 232 442 c 0,23,24
 157 442 157 442 105 367 c 1,25,-1
 80 382 l 1,26,27
 105 426 105 426 149.5 452 c 128,-1,28
 194 478 194 478 243 478 c 0,29,30
 285 478 285 478 310.5 455.5 c 128,-1,31
 336 433 336 433 327 394 c 0,32,33
 317 348 317 348 222 286 c 1,34,-1
 228 286 l 2,35,36
 281 286 281 286 305.5 250.5 c 128,-1,37
 330 215 330 215 319 161 c 0,0,1
EndSplineSet
EndChar

StartChar: four
Encoding: 52 52 21
Width: 362
Flags: W
LayerCount: 2
Fore
SplineSet
222 148 m 1,0,-1
 283 437 l 1,1,2
 207 403 207 403 144 318 c 0,3,4
 84 237 84 237 63 148 c 1,5,-1
 222 148 l 1,0,-1
320 111 m 1,6,-1
 254 111 l 1,7,-1
 231 0 l 1,8,-1
 191 0 l 1,9,-1
 214 111 l 1,10,-1
 12 111 l 1,11,12
 46 260 46 260 133.5 363 c 128,-1,13
 221 466 221 466 334 488 c 1,14,-1
 262 148 l 1,15,-1
 333 148 l 1,16,-1
 320 111 l 1,6,-1
EndSplineSet
EndChar

StartChar: five
Encoding: 53 53 22
Width: 362
Flags: W
LayerCount: 2
Fore
SplineSet
309 164 m 0,0,1
 293 87 293 87 231 39.5 c 128,-1,2
 169 -8 169 -8 87 -8 c 0,3,4
 18 -8 18 -8 -12 29 c 1,5,-1
 10 60 l 1,6,7
 22 51 22 51 37 43 c 0,8,9
 62 30 62 30 103 30 c 0,10,11
 157 30 157 30 206 65 c 128,-1,12
 255 100 255 100 268 163 c 0,13,14
 280 217 280 217 249 244 c 1,15,16
 224 268 224 268 176 268 c 0,17,18
 134 268 134 268 102 235 c 1,19,-1
 81 233 l 1,20,-1
 147 475 l 1,21,-1
 360 475 l 1,22,-1
 345 437 l 1,23,-1
 177 437 l 1,24,-1
 138 296 l 1,25,26
 167 306 167 306 197 306 c 0,27,28
 255 306 255 306 288 270 c 1,29,30
 323 230 323 230 309 164 c 0,0,1
EndSplineSet
EndChar

StartChar: six
Encoding: 54 54 23
Width: 362
Flags: W
LayerCount: 2
Fore
SplineSet
309 145 m 1,0,1
 296 80 296 80 250 36 c 128,-1,2
 204 -8 204 -8 141 -8 c 0,3,4
 70 -8 70 -8 40 46 c 0,5,6
 14 94 14 94 30 167 c 0,7,8
 54 282 54 282 144.5 372.5 c 128,-1,9
 235 463 235 463 349 484 c 1,10,-1
 346 455 l 1,11,12
 275 436 275 436 209 384 c 0,13,14
 135 326 135 326 95 246 c 1,15,16
 102 261 102 261 131 278 c 0,17,18
 167 298 167 298 209 298 c 0,19,20
 268 298 268 298 295.5 253 c 128,-1,21
 323 208 323 208 309 145 c 1,0,1
269 145 m 0,22,23
 280 195 280 195 260.5 230 c 128,-1,24
 241 265 241 265 194 265 c 0,25,26
 151 265 151 265 113.5 230 c 128,-1,27
 76 195 76 195 65 145 c 0,28,29
 55 96 55 96 77.5 61 c 128,-1,30
 100 26 100 26 143 26 c 0,31,32
 191 26 191 26 225 61 c 128,-1,33
 259 96 259 96 269 145 c 0,22,23
EndSplineSet
EndChar

StartChar: seven
Encoding: 55 55 24
Width: 362
Flags: W
LayerCount: 2
Fore
SplineSet
130 0 m 1,0,-1
 88 0 l 1,1,2
 120 151 120 151 209 289 c 0,3,4
 230 321 230 321 276 378.5 c 128,-1,5
 322 436 322 436 323 437 c 1,6,-1
 82 437 l 1,7,-1
 105 475 l 1,8,-1
 386 475 l 1,9,-1
 370 435 l 1,10,11
 284 347 284 347 222 244.5 c 128,-1,12
 160 142 160 142 130 0 c 1,0,-1
EndSplineSet
EndChar

StartChar: eight
Encoding: 56 56 25
Width: 362
Flags: W
LayerCount: 2
Fore
SplineSet
271 125 m 0,0,1
 279 164 279 164 259.5 199.5 c 128,-1,2
 240 235 240 235 187 238 c 1,3,4
 133 235 133 235 98.5 199.5 c 128,-1,5
 64 164 64 164 56 125 c 0,6,7
 47 80 47 80 71.5 53.5 c 128,-1,8
 96 27 96 27 143 27 c 0,9,10
 189 27 189 27 225.5 53.5 c 128,-1,11
 262 80 262 80 271 125 c 0,0,1
306 361 m 0,12,13
 314 396 314 396 293.5 419 c 128,-1,14
 273 442 273 442 231 442 c 0,15,16
 188 442 188 442 158.5 419 c 128,-1,17
 129 396 129 396 121 361 c 0,18,19
 108 299 108 299 195 276 c 1,20,21
 293 299 293 299 306 361 c 0,12,13
312 128 m 0,22,23
 298 64 298 64 250.5 28 c 128,-1,24
 203 -8 203 -8 135 -8 c 0,25,26
 68 -8 68 -8 35.5 28 c 128,-1,27
 3 64 3 64 17 128 c 0,28,29
 27 177 27 177 63 212.5 c 128,-1,30
 99 248 99 248 145 257 c 1,31,32
 110 268 110 268 92 296.5 c 128,-1,33
 74 325 74 325 81 358 c 0,34,35
 92 411 92 411 136 445 c 128,-1,36
 180 479 180 479 239 479 c 0,37,38
 297 479 297 479 327 445 c 128,-1,39
 357 411 357 411 346 358 c 0,40,41
 339 325 339 325 308 296.5 c 128,-1,42
 277 268 277 268 238 257 c 1,43,44
 280 248 280 248 301 212.5 c 128,-1,45
 322 177 322 177 312 128 c 0,22,23
EndSplineSet
EndChar

StartChar: nine
Encoding: 57 57 26
Width: 362
Flags: W
LayerCount: 2
Fore
SplineSet
343 305 m 0,0,1
 319 190 319 190 228.5 99.5 c 128,-1,2
 138 9 138 9 24 -12 c 1,3,-1
 27 17 l 1,4,5
 98 36 98 36 164 88 c 0,6,7
 239 146 239 146 279 226 c 1,8,9
 271 211 271 211 243 194 c 1,10,11
 206 174 206 174 164 174 c 0,12,13
 105 174 105 174 78 219 c 128,-1,14
 51 264 51 264 64 327 c 0,15,16
 78 392 78 392 124 436 c 128,-1,17
 170 480 170 480 233 480 c 0,18,19
 304 480 304 480 333 426 c 0,20,21
 359 378 359 378 343 305 c 0,0,1
308 327 m 0,22,23
 318 376 318 376 295.5 411 c 128,-1,24
 273 446 273 446 230 446 c 0,25,26
 182 446 182 446 148 411 c 128,-1,27
 114 376 114 376 104 327 c 0,28,29
 93 277 93 277 112.5 242 c 128,-1,30
 132 207 132 207 179 207 c 0,31,32
 222 207 222 207 259.5 242 c 128,-1,33
 297 277 297 277 308 327 c 0,22,23
EndSplineSet
EndChar

StartChar: colon
Encoding: 58 58 27
Width: 162
Flags: W
LayerCount: 2
Fore
SplineSet
77 28 m 256,0,1
 74 14 74 14 61.5 4 c 128,-1,2
 49 -6 49 -6 35 -6 c 256,3,4
 21 -6 21 -6 13 4 c 128,-1,5
 5 14 5 14 8 28 c 256,6,7
 11 42 11 42 23.5 52.5 c 128,-1,8
 36 63 36 63 50 63 c 256,9,10
 64 63 64 63 72 52.5 c 128,-1,11
 80 42 80 42 77 28 c 256,0,1
132 283 m 256,12,13
 129 269 129 269 116 259 c 128,-1,14
 103 249 103 249 89 249 c 256,15,16
 75 249 75 249 67.5 259 c 128,-1,17
 60 269 60 269 63 283 c 256,18,19
 66 297 66 297 78 307.5 c 128,-1,20
 90 318 90 318 104 318 c 256,21,22
 118 318 118 318 126.5 307.5 c 128,-1,23
 135 297 135 297 132 283 c 256,12,13
EndSplineSet
EndChar

StartChar: semicolon
Encoding: 59 59 28
Width: 162
Flags: W
LayerCount: 2
Fore
SplineSet
85 27 m 0,0,1
 72 -27 72 -27 32 -68 c 0,2,3
 5 -97 5 -97 -22 -109 c 1,4,-1
 -32 -94 l 1,5,6
 26 -59 26 -59 43 -7 c 1,7,8
 27 -7 27 -7 18 4 c 128,-1,9
 9 15 9 15 12 30 c 256,10,11
 15 45 15 45 28.5 56.5 c 128,-1,12
 42 68 42 68 57 68 c 0,13,14
 73 68 73 68 81 56 c 128,-1,15
 89 44 89 44 85 27 c 0,0,1
132 283 m 256,16,17
 129 269 129 269 116 259 c 128,-1,18
 103 249 103 249 89 249 c 256,19,20
 75 249 75 249 67.5 259 c 128,-1,21
 60 269 60 269 63 283 c 256,22,23
 66 297 66 297 78 307.5 c 128,-1,24
 90 318 90 318 104 318 c 256,25,26
 118 318 118 318 126.5 307.5 c 128,-1,27
 135 297 135 297 132 283 c 256,16,17
EndSplineSet
EndChar

StartChar: less
Encoding: 60 60 29
Width: 411
Flags: W
LayerCount: 2
Fore
SplineSet
330 36 m 1,0,-1
 322 -2 l 1,1,-1
 37 174 l 1,2,-1
 43 201 l 1,3,-1
 403 377 l 1,4,-1
 395 340 l 1,5,-1
 80 187 l 1,6,-1
 330 36 l 1,0,-1
EndSplineSet
EndChar

StartChar: equal
Encoding: 61 61 30
Width: 411
Flags: W
LayerCount: 2
Fore
SplineSet
369 265 m 1,0,-1
 362 232 l 1,1,-1
 61 232 l 1,2,-1
 68 265 l 1,3,-1
 369 265 l 1,0,-1
341 135 m 1,4,-1
 334 102 l 1,5,-1
 33 102 l 1,6,-1
 40 135 l 1,7,-1
 341 135 l 1,4,-1
EndSplineSet
EndChar

StartChar: greater
Encoding: 62 62 31
Width: 411
Flags: W
LayerCount: 2
Fore
SplineSet
365 201 m 1,0,-1
 359 174 l 1,1,-1
 0 -2 l 1,2,-1
 8 36 l 1,3,-1
 322 188 l 1,4,-1
 73 340 l 1,5,-1
 81 377 l 1,6,-1
 365 201 l 1,0,-1
EndSplineSet
EndChar

StartChar: question
Encoding: 63 63 32
Width: 283
Flags: W
LayerCount: 2
Fore
SplineSet
121 123 m 1,0,-1
 87 123 l 1,1,2
 85 138 85 138 89 158 c 0,3,4
 100 211 100 211 167.5 272 c 128,-1,5
 235 333 235 333 244 376 c 0,6,7
 260 448 260 448 178 448 c 0,8,9
 131 448 131 448 92 422 c 1,10,-1
 84 452 l 1,11,12
 138 483 138 483 192 483 c 0,13,14
 249 483 249 483 272 450 c 0,15,16
 293 421 293 421 284 378 c 0,17,18
 273 325 273 325 195 258 c 0,19,20
 135 206 135 206 124 155 c 0,21,22
 121 137 121 137 121 123 c 1,0,-1
116 28 m 256,23,24
 113 14 113 14 100.5 4 c 128,-1,25
 88 -6 88 -6 74 -6 c 256,26,27
 60 -6 60 -6 52 4 c 128,-1,28
 44 14 44 14 47 28 c 256,29,30
 50 42 50 42 62.5 52.5 c 128,-1,31
 75 63 75 63 89 63 c 256,32,33
 103 63 103 63 111 52.5 c 128,-1,34
 119 42 119 42 116 28 c 256,23,24
EndSplineSet
EndChar

StartChar: at
Encoding: 64 64 33
Width: 536
Flags: W
LayerCount: 2
Fore
SplineSet
504 176 m 0,0,1
 489 108 489 108 437 60 c 128,-1,2
 385 12 385 12 335 9 c 2,3,-1
 304 7 l 1,4,-1
 304 52 l 1,5,6
 253 1 253 1 187 1 c 0,7,8
 175 1 175 1 168 2 c 0,9,10
 137 7 137 7 119.5 30 c 128,-1,11
 102 53 102 53 108 83 c 0,12,13
 132 195 132 195 332 195 c 1,14,-1
 333 200 l 2,15,16
 351 285 351 285 270 285 c 0,17,18
 226 285 226 285 190 261 c 1,19,-1
 184 286 l 1,20,21
 229 315 229 315 278 315 c 0,22,23
 392 315 392 315 365 188 c 2,24,-1
 343 81 l 2,25,26
 338 59 338 59 338 40 c 1,27,28
 377 42 377 42 417.5 81 c 128,-1,29
 458 120 458 120 469 173 c 0,30,31
 487 256 487 256 446.5 310.5 c 128,-1,32
 406 365 406 365 317 365 c 0,33,34
 223 365 223 365 148 303 c 0,35,36
 68 237 68 237 46 133 c 0,37,38
 27 47 27 47 70 -9.5 c 128,-1,39
 113 -66 113 -66 194 -66 c 0,40,41
 263 -66 263 -66 318 -36 c 1,42,-1
 326 -65 l 1,43,44
 259 -97 259 -97 185 -97 c 0,45,46
 91 -97 91 -97 39 -33 c 128,-1,47
 -13 31 -13 31 7 130 c 0,48,49
 30 239 30 239 116 314 c 0,50,51
 207 394 207 394 328 394 c 0,52,53
 428 394 428 394 476 332 c 128,-1,54
 524 270 524 270 504 176 c 0,0,1
313 105 m 2,55,-1
 326 166 l 1,56,57
 162 164 162 164 146 89 c 0,58,59
 134 29 134 29 195 29 c 0,60,61
 267 29 267 29 308 92 c 0,62,63
 311 96 311 96 313 105 c 2,55,-1
EndSplineSet
EndChar

StartChar: A
Encoding: 65 65 34
Width: 400
Flags: W
LayerCount: 2
Fore
SplineSet
357 0 m 1,0,-1
 314 0 l 1,1,-1
 291 153 l 1,2,-1
 86 153 l 1,3,-1
 0 0 l 1,4,-1
 -43 0 l 1,5,-1
 239 483 l 1,6,-1
 279 483 l 1,7,-1
 357 0 l 1,0,-1
286 186 m 1,8,-1
 250 440 l 1,9,-1
 105 186 l 1,10,-1
 286 186 l 1,8,-1
EndSplineSet
EndChar

StartChar: B
Encoding: 66 66 35
Width: 378
Flags: W
LayerCount: 2
Fore
SplineSet
331 133 m 0,0,1
 301 -6 301 -6 100 -6 c 0,2,3
 56 -6 56 -6 11 4 c 1,4,-1
 110 469 l 1,5,6
 163 482 163 482 213 482 c 0,7,8
 386 482 386 482 360 362 c 0,9,10
 353 326 353 326 325 296.5 c 128,-1,11
 297 267 297 267 258 254 c 1,12,13
 293 245 293 245 317 213.5 c 128,-1,14
 341 182 341 182 331 133 c 0,0,1
321 361 m 0,15,16
 340 449 340 449 206 449 c 0,17,18
 175 449 175 449 143 442 c 1,19,-1
 106 268 l 1,20,-1
 187 268 l 2,21,22
 240 268 240 268 278 296 c 0,23,24
 313 322 313 322 321 361 c 0,15,16
293 132 m 0,25,26
 304 185 304 185 268 210.5 c 128,-1,27
 232 236 232 236 169 236 c 2,28,-1
 100 236 l 1,29,-1
 56 32 l 1,30,31
 82 26 82 26 115 26 c 0,32,33
 179 26 179 26 225 49 c 0,34,35
 281 77 281 77 293 132 c 0,25,26
EndSplineSet
EndChar

StartChar: C
Encoding: 67 67 36
Width: 406
Flags: W
LayerCount: 2
Fore
SplineSet
334 50 m 1,0,-1
 339 18 l 1,1,2
 281 -7 281 -7 204 -7 c 0,3,4
 107 -7 107 -7 57.5 62.5 c 128,-1,5
 8 132 8 132 30 239 c 0,6,7
 53 346 53 346 132 414.5 c 128,-1,8
 211 483 211 483 308 483 c 0,9,10
 385 483 385 483 433 458 c 1,11,-1
 414 426 l 1,12,13
 365 449 365 449 303 449 c 0,14,15
 226 449 226 449 160 392 c 0,16,17
 90 332 90 332 70 238 c 256,18,19
 50 144 50 144 94 84 c 0,20,21
 136 27 136 27 213 27 c 0,22,23
 275 27 275 27 334 50 c 1,0,-1
EndSplineSet
EndChar

StartChar: D
Encoding: 68 68 37
Width: 431
Flags: W
LayerCount: 2
Fore
SplineSet
411 248 m 0,0,1
 358 -4 358 -4 132 -4 c 0,2,3
 102 -4 102 -4 12 5 c 1,4,-1
 110 469 l 1,5,6
 205 481 205 481 255 481 c 0,7,8
 346 481 346 481 390 420 c 1,9,10
 434 356 434 356 411 248 c 0,0,1
372 248 m 0,11,12
 392 343 392 343 354 397 c 0,13,14
 319 447 319 447 245 447 c 0,15,16
 214 447 214 447 143 439 c 1,17,-1
 57 36 l 1,18,19
 106 30 106 30 151 30 c 0,20,21
 232 30 232 30 291 87.5 c 128,-1,22
 350 145 350 145 372 248 c 0,11,12
EndSplineSet
EndChar

StartChar: E
Encoding: 69 69 38
Width: 351
Flags: W
LayerCount: 2
Fore
SplineSet
270 0 m 1,0,-1
 11 0 l 1,1,-1
 112 476 l 1,2,-1
 371 476 l 1,3,-1
 364 443 l 1,4,-1
 144 443 l 1,5,-1
 106 268 l 1,6,-1
 302 268 l 1,7,-1
 295 235 l 1,8,-1
 99 235 l 1,9,-1
 57 33 l 1,10,-1
 277 33 l 1,11,-1
 270 0 l 1,0,-1
EndSplineSet
EndChar

StartChar: F
Encoding: 70 70 39
Width: 351
Flags: W
LayerCount: 2
Fore
SplineSet
313 229 m 1,0,-1
 98 229 l 1,1,-1
 50 0 l 1,2,-1
 11 0 l 1,3,-1
 112 476 l 1,4,-1
 381 476 l 1,5,-1
 374 443 l 1,6,-1
 144 443 l 1,7,-1
 105 262 l 1,8,-1
 320 262 l 1,9,-1
 313 229 l 1,0,-1
EndSplineSet
EndChar

StartChar: G
Encoding: 71 71 40
Width: 425
Flags: W
LayerCount: 2
Fore
SplineSet
390 238 m 1,0,-1
 342 10 l 1,1,2
 335 16 335 16 322 16 c 1,3,4
 322 16 322 16 260.5 5.5 c 128,-1,5
 199 -5 199 -5 179 -5 c 0,6,7
 88 -5 88 -5 47.5 61.5 c 128,-1,8
 7 128 7 128 30 239 c 1,9,10
 53 345 53 345 124 411 c 0,11,12
 198 481 198 481 300 481 c 0,13,14
 373 481 373 481 423 457 c 1,15,-1
 404 425 l 1,16,17
 349 448 349 448 291 448 c 0,18,19
 216 448 216 448 153 389 c 128,-1,20
 90 330 90 330 70 238 c 0,21,22
 49 140 49 140 80.5 83.5 c 128,-1,23
 112 27 112 27 192 27 c 0,24,25
 255 27 255 27 313 52 c 1,26,-1
 345 206 l 1,27,-1
 224 206 l 1,28,-1
 231 238 l 1,29,-1
 390 238 l 1,0,-1
EndSplineSet
EndChar

StartChar: H
Encoding: 72 72 41
Width: 441
Flags: W
LayerCount: 2
Fore
SplineSet
344 0 m 1,0,-1
 305 0 l 1,1,-1
 355 237 l 1,2,-1
 100 237 l 1,3,-1
 50 0 l 1,4,-1
 11 0 l 1,5,-1
 112 476 l 1,6,-1
 151 476 l 1,7,-1
 107 270 l 1,8,-1
 362 270 l 1,9,-1
 406 476 l 1,10,-1
 445 476 l 1,11,-1
 344 0 l 1,0,-1
EndSplineSet
EndChar

StartChar: I
Encoding: 73 73 42
Width: 147
Flags: W
LayerCount: 2
Fore
SplineSet
50 0 m 1,0,-1
 11 0 l 1,1,-1
 112 476 l 1,2,-1
 151 476 l 1,3,-1
 50 0 l 1,0,-1
EndSplineSet
EndChar

StartChar: J
Encoding: 74 74 43
Width: 264
Flags: W
LayerCount: 2
Fore
SplineSet
200 156 m 2,0,1
 165 -9 165 -9 25 -9 c 0,2,3
 -13 -9 -13 -9 -42 6 c 1,4,-1
 -26 37 l 1,5,6
 -5 25 -5 25 32 25 c 0,7,8
 84 25 84 25 115 55.5 c 128,-1,9
 146 86 146 86 163 166 c 2,10,-1
 229 476 l 1,11,-1
 268 476 l 1,12,-1
 200 156 l 2,0,1
EndSplineSet
EndChar

StartChar: K
Encoding: 75 75 44
Width: 376
Flags: W
LayerCount: 2
Fore
SplineSet
348 9 m 1,0,-1
 310 -5 l 1,1,-1
 153 248 l 1,2,-1
 91 197 l 1,3,-1
 50 0 l 1,4,-1
 11 0 l 1,5,-1
 112 476 l 1,6,-1
 151 476 l 1,7,-1
 102 247 l 1,8,-1
 389 482 l 1,9,-1
 426 471 l 1,10,-1
 186 273 l 1,11,-1
 348 9 l 1,0,-1
EndSplineSet
EndChar

StartChar: L
Encoding: 76 76 45
Width: 353
Flags: W
LayerCount: 2
Fore
SplineSet
284 0 m 1,0,-1
 11 0 l 1,1,-1
 112 476 l 1,2,-1
 151 476 l 1,3,-1
 57 33 l 1,4,-1
 291 33 l 1,5,-1
 284 0 l 1,0,-1
EndSplineSet
EndChar

StartChar: M
Encoding: 77 77 46
Width: 548
Flags: W
LayerCount: 2
Fore
SplineSet
465 0 m 1,0,-1
 428 0 l 1,1,-1
 487 420 l 1,2,-1
 244 0 l 1,3,-1
 218 0 l 1,4,-1
 153 420 l 1,5,-1
 34 0 l 1,6,-1
 -3 0 l 1,7,-1
 131 476 l 1,8,-1
 177 476 l 1,9,-1
 241 49 l 1,10,-1
 487 476 l 1,11,-1
 533 476 l 1,12,-1
 465 0 l 1,0,-1
EndSplineSet
EndChar

StartChar: N
Encoding: 78 78 47
Width: 441
Flags: W
LayerCount: 2
Fore
SplineSet
344 0 m 1,0,-1
 303 0 l 1,1,-1
 140 421 l 1,2,-1
 51 0 l 1,3,-1
 11 0 l 1,4,-1
 112 476 l 1,5,-1
 157 476 l 1,6,-1
 318 61 l 1,7,-1
 407 476 l 1,8,-1
 445 476 l 1,9,-1
 344 0 l 1,0,-1
EndSplineSet
EndChar

StartChar: O
Encoding: 79 79 48
Width: 486
Flags: W
LayerCount: 2
Fore
SplineSet
471 237 m 256,0,1
 448 130 448 130 371.5 60 c 128,-1,2
 295 -10 295 -10 197 -10 c 256,3,4
 99 -10 99 -10 52.5 60 c 128,-1,5
 6 130 6 130 29 237 c 256,6,7
 52 344 52 344 128 414 c 128,-1,8
 204 484 204 484 302 484 c 256,9,10
 400 484 400 484 447 414 c 128,-1,11
 494 344 494 344 471 237 c 256,0,1
432 237 m 256,12,13
 451 325 451 325 413 387.5 c 128,-1,14
 375 450 375 450 295 450 c 256,15,16
 215 450 215 450 151 387.5 c 128,-1,17
 87 325 87 325 68 237 c 256,18,19
 49 149 49 149 87 86.5 c 128,-1,20
 125 24 125 24 205 24 c 256,21,22
 285 24 285 24 349 86.5 c 128,-1,23
 413 149 413 149 432 237 c 256,12,13
EndSplineSet
EndChar

StartChar: P
Encoding: 80 80 49
Width: 378
Flags: W
LayerCount: 2
Fore
SplineSet
375 344 m 0,0,1
 359 269 359 269 290 228 c 0,2,3
 231 193 231 193 153 194 c 0,4,5
 121 194 121 194 92 200 c 1,6,-1
 50 0 l 1,7,-1
 11 0 l 1,8,-1
 111 471 l 1,9,10
 173 481 173 481 228 481 c 0,11,12
 300 481 300 481 342 448 c 0,13,14
 389 410 389 410 375 344 c 0,0,1
337 341 m 256,15,16
 360 447 360 447 220 447 c 0,17,18
 170 447 170 447 143 442 c 1,19,-1
 99 234 l 1,20,21
 125 227 125 227 168 227 c 1,22,23
 314 235 314 235 337 341 c 256,15,16
EndSplineSet
EndChar

StartChar: Q
Encoding: 81 81 50
Width: 487
Flags: W
LayerCount: 2
Fore
SplineSet
471 237 m 0,0,1
 453 151 453 151 397 86 c 0,2,3
 338 18 338 18 258 -1 c 1,4,5
 312 -26 312 -26 388 -30 c 1,6,-1
 366 -67 l 1,7,8
 272 -44 272 -44 197 -10 c 1,9,10
 99 -10 99 -10 52.5 60 c 128,-1,11
 6 130 6 130 29 237 c 256,12,13
 52 344 52 344 128 414 c 128,-1,14
 204 484 204 484 302 484 c 256,15,16
 400 484 400 484 447 414 c 128,-1,17
 494 344 494 344 471 237 c 0,0,1
432 237 m 256,18,19
 451 325 451 325 413 387.5 c 128,-1,20
 375 450 375 450 295 450 c 256,21,22
 215 450 215 450 151 387.5 c 128,-1,23
 87 325 87 325 68 237 c 256,24,25
 49 149 49 149 87 86.5 c 128,-1,26
 125 24 125 24 205 24 c 256,27,28
 285 24 285 24 349 86.5 c 128,-1,29
 413 149 413 149 432 237 c 256,18,19
EndSplineSet
EndChar

StartChar: R
Encoding: 82 82 51
Width: 379
Flags: W
LayerCount: 2
Fore
SplineSet
315 0 m 1,0,-1
 277 0 l 1,1,2
 296 217 296 217 188 217 c 2,3,-1
 96 217 l 1,4,-1
 50 0 l 1,5,-1
 11 0 l 1,6,-1
 110 470 l 1,7,8
 169 481 169 481 230 481 c 0,9,10
 307 480 307 480 345 451 c 0,11,12
 390 417 390 417 377 353 c 0,13,14
 358 264 358 264 258 230 c 1,15,16
 305 201 305 201 315 122 c 0,17,18
 320 81 320 81 315 0 c 1,0,-1
338 348 m 0,19,20
 360 447 360 447 223 447 c 0,21,22
 168 447 168 447 143 440 c 1,23,-1
 102 248 l 1,24,-1
 191 248 l 2,25,26
 250 248 250 248 289 274.5 c 128,-1,27
 328 301 328 301 338 348 c 0,19,20
EndSplineSet
EndChar

StartChar: S
Encoding: 83 83 52
Width: 352
Flags: W
LayerCount: 2
Fore
SplineSet
303 124 m 0,0,1
 291 70 291 70 245 34 c 1,2,3
 192 -9 192 -9 113 -9 c 0,4,5
 35 -9 35 -9 -10 27 c 1,6,-1
 12 61 l 1,7,8
 54 24 54 24 124 24 c 0,9,10
 180 24 180 24 217.5 50.5 c 128,-1,11
 255 77 255 77 264 121 c 0,12,13
 273 161 273 161 253.5 185.5 c 128,-1,14
 234 210 234 210 181 228 c 0,15,16
 57 271 57 271 76 362 c 0,17,18
 88 415 88 415 136.5 450 c 128,-1,19
 185 485 185 485 251 485 c 0,20,21
 318 485 318 485 354 460 c 1,22,23
 342 443 342 443 331 429 c 1,24,25
 293 452 293 452 243 452 c 0,26,27
 187 452 187 452 150 423 c 0,28,29
 121 399 121 399 115 367 c 1,30,31
 100 301 100 301 199 265 c 0,32,33
 263 241 263 241 287 213 c 0,34,35
 315 180 315 180 303 124 c 0,0,1
EndSplineSet
EndChar

StartChar: T
Encoding: 84 84 53
Width: 379
Flags: W
LayerCount: 2
Fore
SplineSet
435 443 m 1,0,-1
 260 443 l 1,1,-1
 166 0 l 1,2,-1
 128 0 l 1,3,-1
 222 443 l 1,4,-1
 46 443 l 1,5,-1
 53 476 l 1,6,-1
 442 476 l 1,7,-1
 435 443 l 1,0,-1
EndSplineSet
EndChar

StartChar: U
Encoding: 85 85 54
Width: 466
Flags: W
LayerCount: 2
Fore
SplineSet
411 201 m 1,0,1
 367 -9 367 -9 188 -9 c 256,2,3
 9 -9 9 -9 53 201 c 1,4,-1
 112 476 l 1,5,-1
 151 476 l 1,6,-1
 92 202 l 2,7,8
 72 108 72 108 102 66 c 128,-1,9
 132 24 132 24 195 24 c 0,10,11
 259 24 259 24 306 66 c 128,-1,12
 353 108 353 108 372 202 c 1,13,-1
 431 476 l 1,14,-1
 470 476 l 1,15,-1
 411 201 l 1,0,1
EndSplineSet
EndChar

StartChar: V
Encoding: 86 86 55
Width: 390
Flags: W
LayerCount: 2
Fore
SplineSet
448 476 m 1,0,-1
 173 0 l 1,1,-1
 131 0 l 1,2,-1
 58 476 l 1,3,-1
 102 476 l 1,4,-1
 161 45 l 1,5,-1
 404 476 l 1,6,-1
 448 476 l 1,0,-1
EndSplineSet
EndChar

StartChar: W
Encoding: 87 87 56
Width: 588
Flags: W
LayerCount: 2
Fore
SplineSet
646 476 m 1,0,-1
 401 0 l 1,1,-1
 359 0 l 1,2,-1
 342 432 l 1,3,-1
 143 0 l 1,4,-1
 101 0 l 1,5,-1
 58 476 l 1,6,-1
 102 476 l 1,7,-1
 131 45 l 1,8,-1
 330 476 l 1,9,-1
 374 476 l 1,10,-1
 389 45 l 1,11,-1
 602 476 l 1,12,-1
 646 476 l 1,0,-1
EndSplineSet
EndChar

StartChar: X
Encoding: 88 88 57
Width: 418
Flags: W
LayerCount: 2
Fore
SplineSet
358 0 m 1,0,-1
 312 0 l 1,1,-1
 211 215 l 1,2,-1
 20 0 l 1,3,-1
 -26 0 l 1,4,-1
 194 244 l 1,5,-1
 82 476 l 1,6,-1
 129 476 l 1,7,-1
 222 268 l 1,8,-1
 405 476 l 1,9,-1
 452 476 l 1,10,-1
 240 244 l 1,11,-1
 358 0 l 1,0,-1
EndSplineSet
EndChar

StartChar: Y
Encoding: 89 89 58
Width: 366
Flags: W
LayerCount: 2
Fore
SplineSet
424 476 m 1,0,-1
 203 210 l 1,1,-1
 159 0 l 1,2,-1
 121 0 l 1,3,-1
 165 209 l 1,4,-1
 58 476 l 1,5,-1
 103 476 l 1,6,-1
 191 243 l 1,7,-1
 379 476 l 1,8,-1
 424 476 l 1,0,-1
EndSplineSet
EndChar

StartChar: Z
Encoding: 90 90 59
Width: 424
Flags: W
LayerCount: 2
Fore
SplineSet
372 33 m 1,0,-1
 357 0 l 1,1,-1
 -21 0 l 1,2,-1
 -15 26 l 1,3,-1
 396 443 l 1,4,-1
 93 443 l 1,5,-1
 106 476 l 1,6,-1
 453 476 l 1,7,-1
 447 449 l 1,8,-1
 37 33 l 1,9,-1
 372 33 l 1,0,-1
EndSplineSet
EndChar

StartChar: bracketleft
Encoding: 91 91 60
Width: 196
Flags: W
LayerCount: 2
Fore
SplineSet
131 -48 m 1,0,-1
 125 -78 l 1,1,-1
 -7 -78 l 1,2,-1
 116 506 l 1,3,-1
 249 506 l 1,4,-1
 243 476 l 1,5,-1
 145 476 l 1,6,-1
 33 -48 l 1,7,-1
 131 -48 l 1,0,-1
EndSplineSet
EndChar

StartChar: backslash
Encoding: 92 92 61
Width: 262
Flags: W
LayerCount: 2
Fore
SplineSet
230 -28 m 1,0,-1
 190 -28 l 1,1,-1
 50 483 l 1,2,-1
 89 483 l 1,3,-1
 230 -28 l 1,0,-1
EndSplineSet
EndChar

StartChar: bracketright
Encoding: 93 93 62
Width: 196
Flags: W
LayerCount: 2
Fore
SplineSet
85 -78 m 1,0,-1
 -48 -78 l 1,1,-1
 -42 -48 l 1,2,-1
 55 -48 l 1,3,-1
 167 476 l 1,4,-1
 69 476 l 1,5,-1
 75 506 l 1,6,-1
 209 506 l 1,7,-1
 85 -78 l 1,0,-1
EndSplineSet
EndChar

StartChar: asciicircum
Encoding: 94 94 63
Width: 412
Flags: W
LayerCount: 2
Fore
SplineSet
282 480 m 1,0,-1
 357 159 l 1,1,-1
 320 159 l 1,2,-1
 255 442 l 1,3,-1
 70 159 l 1,4,-1
 33 159 l 1,5,-1
 246 480 l 1,6,-1
 282 480 l 1,0,-1
EndSplineSet
EndChar

StartChar: underscore
Encoding: 95 95 64
Width: 352
Flags: W
LayerCount: 2
Fore
SplineSet
276 -152 m 1,0,-1
 270 -183 l 1,1,-1
 -81 -183 l 1,2,-1
 -75 -152 l 1,3,-1
 276 -152 l 1,0,-1
EndSplineSet
EndChar

StartChar: grave
Encoding: 96 96 65
Width: 204
Flags: W
LayerCount: 2
Fore
SplineSet
187 390 m 1,0,-1
 156 390 l 1,1,-1
 116 471 l 1,2,-1
 157 481 l 1,3,-1
 187 390 l 1,0,-1
EndSplineSet
EndChar

StartChar: a
Encoding: 97 97 66
Width: 398
Flags: W
LayerCount: 2
Fore
SplineSet
320 69 m 2,0,1
 311 29 311 29 323 1 c 1,2,-1
 284 -7 l 1,3,4
 273 29 273 29 279 62 c 1,5,6
 224 -10 224 -10 138 -10 c 0,7,8
 80 -10 80 -10 48 23.5 c 128,-1,9
 16 57 16 57 16 113 c 0,10,11
 16 201 16 201 73 271 c 0,12,13
 133 346 133 346 219 346 c 0,14,15
 308 347 308 347 370 296 c 1,16,-1
 320 69 l 2,0,1
296 143 m 2,17,-1
 327 279 l 1,18,19
 276 314 276 314 224 314 c 0,20,21
 151 313 151 313 100 249 c 1,22,23
 54 189 54 189 54 118 c 0,24,25
 54 74 54 74 79.5 47.5 c 128,-1,26
 105 21 105 21 151 21 c 0,27,28
 202 21 202 21 243.5 57.5 c 128,-1,29
 285 94 285 94 296 143 c 2,17,-1
EndSplineSet
Substitution2: "Single Substitution lookup 58 subtable" uni0E38
EndChar

StartChar: b
Encoding: 98 98 67
Width: 401
Flags: W
LayerCount: 2
Fore
SplineSet
366 174 m 0,0,1
 349 92 349 92 295.5 41.5 c 128,-1,2
 242 -9 242 -9 169 -9 c 0,3,4
 101 -9 101 -9 67.5 24 c 128,-1,5
 34 57 34 57 34 109 c 0,6,7
 34 126 34 126 38 142 c 2,8,-1
 116 505 l 1,9,-1
 155 505 l 1,10,-1
 106 275 l 1,11,12
 165 347 165 347 250 347 c 0,13,14
 321 347 321 347 351.5 298 c 128,-1,15
 382 249 382 249 366 174 c 0,0,1
328 173 m 0,16,17
 342 236 342 236 318.5 276 c 128,-1,18
 295 316 295 316 237 316 c 0,19,20
 189 316 189 316 147 283 c 1,21,22
 100 248 100 248 89 194 c 2,23,-1
 75 129 l 2,24,25
 65 81 65 81 93 52.5 c 128,-1,26
 121 24 121 24 171 24 c 0,27,28
 297 24 297 24 328 173 c 0,16,17
EndSplineSet
Substitution2: "Single Substitution lookup 58 subtable" uni0E39
EndChar

StartChar: c
Encoding: 99 99 68
Width: 331
Flags: W
LayerCount: 2
Fore
SplineSet
264 47 m 1,0,-1
 272 15 l 1,1,2
 224 -9 224 -9 162 -9 c 0,3,4
 78 -9 78 -9 40 39.5 c 128,-1,5
 2 88 2 88 19 169 c 0,6,7
 37 250 37 250 95 298.5 c 128,-1,8
 153 347 153 347 237 347 c 0,9,10
 299 347 299 347 337 323 c 1,11,-1
 316 291 l 1,12,13
 284 315 284 315 228 315 c 0,14,15
 167 315 167 315 119.5 276 c 128,-1,16
 72 237 72 237 57 169 c 0,17,18
 43 101 43 101 74 62 c 128,-1,19
 105 23 105 23 166 23 c 0,20,21
 222 23 222 23 264 47 c 1,0,-1
EndSplineSet
Substitution2: "Single Substitution lookup 58 subtable" uni0E3A
EndChar

StartChar: d
Encoding: 100 100 69
Width: 401
Flags: W
LayerCount: 2
Fore
SplineSet
323 83 m 2,0,1
 315 46 315 46 323 1 c 1,2,-1
 284 -7 l 1,3,4
 279 27 279 27 282 59 c 1,5,6
 222 -9 222 -9 142 -9 c 0,7,8
 69 -9 69 -9 36.5 41.5 c 128,-1,9
 4 92 4 92 21 174 c 0,10,11
 37 249 37 249 88.5 298 c 128,-1,12
 140 347 140 347 211 347 c 0,13,14
 296 347 296 347 325 275 c 1,15,-1
 374 505 l 1,16,-1
 413 505 l 1,17,-1
 323 83 l 2,0,1
295 136 m 2,18,-1
 308 193 l 1,19,20
 319 248 319 248 288 283 c 0,21,22
 260 316 260 316 212 316 c 0,23,24
 154 316 154 316 113.5 276 c 128,-1,25
 73 236 73 236 59 173 c 0,26,27
 28 24 28 24 154 24 c 0,28,29
 204 24 204 24 244.5 56 c 128,-1,30
 285 88 285 88 295 136 c 2,18,-1
EndSplineSet
EndChar

StartChar: e
Encoding: 101 101 70
Width: 374
Flags: W
LayerCount: 2
Fore
SplineSet
344 253 m 0,0,1
 344 134 344 134 141 134 c 0,2,3
 104 134 104 134 54 138 c 1,4,5
 53 130 53 130 53 123 c 0,6,7
 53 25 53 25 167 25 c 0,8,9
 225 25 225 25 291 48 c 1,10,-1
 287 15 l 1,11,12
 224 -9 224 -9 156 -9 c 0,13,14
 91 -9 91 -9 52 26 c 128,-1,15
 13 61 13 61 13 120 c 0,16,17
 13 215 13 215 80 283 c 0,18,19
 144 347 144 347 227 347 c 0,20,21
 344 347 344 347 344 253 c 0,0,1
309 254 m 0,22,23
 309 316 309 316 227 316 c 0,24,25
 176 316 176 316 126 275 c 0,26,27
 73 231 73 231 56 170 c 1,28,29
 97 167 97 167 129 167 c 0,30,31
 309 167 309 167 309 254 c 0,22,23
EndSplineSet
EndChar

StartChar: f
Encoding: 102 102 71
Width: 206
Flags: W
LayerCount: 2
Fore
SplineSet
221 309 m 1,0,-1
 123 309 l 1,1,-1
 59 4 l 1,2,3
 24 -156 24 -156 -97 -156 c 0,4,5
 -135 -156 -135 -156 -150 -140 c 1,6,-1
 -133 -112 l 1,7,8
 -114 -123 -114 -123 -87 -123 c 0,9,10
 -7 -123 -7 -123 20 4 c 2,11,-1
 84 309 l 1,12,-1
 27 309 l 1,13,-1
 34 340 l 1,14,-1
 92 340 l 1,15,-1
 95 353 l 1,16,17
 129 513 129 513 250 513 c 0,18,19
 288 513 288 513 303 497 c 1,20,-1
 286 469 l 1,21,22
 267 480 267 480 240 480 c 0,23,24
 160 480 160 480 133 353 c 1,25,-1
 130 340 l 1,26,-1
 228 340 l 1,27,-1
 221 309 l 1,0,-1
EndSplineSet
EndChar

StartChar: g
Encoding: 103 103 72
Width: 311
Flags: W
LayerCount: 2
Fore
SplineSet
280 228 m 0,0,1
 268 172 268 172 226.5 139 c 128,-1,2
 185 106 185 106 134 106 c 0,3,4
 103 106 103 106 83 117 c 1,5,6
 74 102 74 102 71 88 c 0,7,8
 66 62 66 62 142 39 c 0,9,10
 232 12 232 12 217 -59 c 0,11,12
 208 -102 208 -102 171 -129.5 c 128,-1,13
 134 -157 134 -157 74 -157 c 0,14,15
 21 -157 21 -157 -16 -130 c 1,16,-1
 4 -98 l 1,17,18
 41 -123 41 -123 84 -123 c 0,19,20
 121 -123 121 -123 149 -106 c 128,-1,21
 177 -89 177 -89 182 -62 c 1,22,23
 193 -14 193 -14 119 12 c 0,24,25
 74 27 74 27 59 39 c 1,26,27
 32 58 32 58 38 88 c 0,28,29
 42 106 42 106 58 136 c 1,30,31
 30 176 30 176 39 221 c 0,32,33
 51 275 51 275 92 308 c 128,-1,34
 133 341 133 341 179 341 c 2,35,-1
 312 341 l 1,36,-1
 305 309 l 1,37,-1
 257 314 l 1,38,39
 290 274 290 274 280 228 c 0,0,1
245 223 m 0,40,41
 252 256 252 256 236 281 c 1,42,43
 219 311 219 311 178 311 c 0,44,45
 138 311 138 311 110 284.5 c 128,-1,46
 82 258 82 258 75 222 c 1,47,48
 66 182 66 182 88 158 c 0,49,50
 108 136 108 136 140 136 c 0,51,52
 176 136 176 136 206 159 c 128,-1,53
 236 182 236 182 245 223 c 0,40,41
EndSplineSet
EndChar

StartChar: h
Encoding: 104 104 73
Width: 390
Flags: W
LayerCount: 2
Fore
SplineSet
312 1 m 1,0,-1
 273 -7 l 1,1,2
 262 27 262 27 269 60 c 2,3,-1
 297 193 l 2,4,5
 322 315 322 315 220 315 c 0,6,7
 179 315 179 315 139.5 280.5 c 128,-1,8
 100 246 100 246 91 206 c 2,9,-1
 48 0 l 1,10,-1
 9 0 l 1,11,-1
 116 505 l 1,12,-1
 155 505 l 1,13,-1
 107 279 l 1,14,15
 162 347 162 347 235 347 c 0,16,17
 368 347 368 347 336 193 c 1,18,-1
 309 69 l 1,19,20
 301 27 301 27 312 1 c 1,0,-1
EndSplineSet
EndChar

StartChar: i
Encoding: 105 105 74
Width: 143
Flags: W
LayerCount: 2
Fore
SplineSet
48 0 m 1,0,-1
 9 0 l 1,1,-1
 81 340 l 1,2,-1
 120 340 l 1,3,-1
 48 0 l 1,0,-1
153 443 m 256,4,5
 150 429 150 429 139 420.5 c 128,-1,6
 128 412 128 412 114 412 c 256,7,8
 100 412 100 412 93.5 420.5 c 128,-1,9
 87 429 87 429 90 443 c 256,10,11
 93 457 93 457 103 466 c 128,-1,12
 113 475 113 475 127 475 c 256,13,14
 141 475 141 475 148.5 466 c 128,-1,15
 156 457 156 457 153 443 c 256,4,5
EndSplineSet
EndChar

StartChar: j
Encoding: 106 106 75
Width: 155
Flags: W
LayerCount: 2
Fore
SplineSet
61 7 m 1,0,1
 27 -145 27 -145 -112 -148 c 1,2,-1
 -109 -117 l 1,3,4
 -39 -111 -39 -111 -8 -69 c 1,5,6
 12 -40 12 -40 24 18 c 2,7,-1
 93 340 l 1,8,-1
 132 340 l 1,9,-1
 61 7 l 1,0,1
165 443 m 256,10,11
 162 429 162 429 151 420.5 c 128,-1,12
 140 412 140 412 126 412 c 256,13,14
 112 412 112 412 105.5 420.5 c 128,-1,15
 99 429 99 429 102 443 c 256,16,17
 105 457 105 457 115 466 c 128,-1,18
 125 475 125 475 139 475 c 256,19,20
 153 475 153 475 160.5 466 c 128,-1,21
 168 457 168 457 165 443 c 256,10,11
EndSplineSet
EndChar

StartChar: k
Encoding: 107 107 76
Width: 316
Flags: W
LayerCount: 2
Fore
SplineSet
284 1 m 1,0,-1
 242 -10 l 1,1,-1
 120 177 l 1,2,-1
 78 143 l 1,3,-1
 48 0 l 1,4,-1
 9 0 l 1,5,-1
 116 505 l 1,6,-1
 155 505 l 1,7,-1
 87 187 l 1,8,-1
 290 345 l 1,9,-1
 328 337 l 1,10,-1
 153 199 l 1,11,-1
 284 1 l 1,0,-1
EndSplineSet
EndChar

StartChar: l
Encoding: 108 108 77
Width: 200
Flags: W
LayerCount: 2
Fore
SplineSet
144 27 m 1,0,-1
 133 -7 l 1,1,2
 8 -1 8 -1 45 171 c 2,3,-1
 116 505 l 1,4,-1
 155 505 l 1,5,-1
 87 186 l 2,6,7
 72 113 72 113 78 80 c 0,8,9
 86 28 86 28 144 27 c 1,0,-1
EndSplineSet
EndChar

StartChar: m
Encoding: 109 109 78
Width: 601
Flags: W
LayerCount: 2
Fore
SplineSet
520 69 m 1,0,1
 512 27 512 27 523 1 c 1,2,-1
 484 -7 l 1,3,4
 473 27 473 27 480 60 c 2,5,-1
 506 188 l 1,6,7
 519 246 519 246 502.5 280.5 c 128,-1,8
 486 315 486 315 441 315 c 0,9,10
 402 315 402 315 366 284.5 c 128,-1,11
 330 254 330 254 322 216 c 2,12,-1
 277 0 l 1,13,-1
 238 0 l 1,14,-1
 281 206 l 2,15,16
 304 315 304 315 218 315 c 0,17,18
 178 315 178 315 139 280.5 c 128,-1,19
 100 246 100 246 91 206 c 2,20,-1
 48 0 l 1,21,-1
 9 0 l 1,22,-1
 66 270 l 2,23,24
 74 312 74 312 63 338 c 1,25,-1
 102 346 l 1,26,27
 113 312 113 312 106 279 c 1,28,29
 159 347 159 347 234 347 c 0,30,31
 303 347 303 347 321 271 c 1,32,33
 377 347 377 347 459 347 c 0,34,35
 515 347 515 347 538 304.5 c 128,-1,36
 561 262 561 262 546 189 c 2,37,-1
 520 69 l 1,0,1
EndSplineSet
EndChar

StartChar: n
Encoding: 110 110 79
Width: 390
Flags: W
LayerCount: 2
Fore
SplineSet
310 69 m 2,0,1
 302 27 302 27 313 1 c 1,2,-1
 274 -7 l 1,3,4
 263 27 263 27 270 60 c 2,5,-1
 297 193 l 2,6,7
 322 315 322 315 220 315 c 0,8,9
 179 315 179 315 139.5 280.5 c 128,-1,10
 100 246 100 246 91 206 c 2,11,-1
 48 0 l 1,12,-1
 9 0 l 1,13,-1
 66 270 l 2,14,15
 74 312 74 312 63 338 c 1,16,-1
 102 346 l 1,17,18
 113 312 113 312 106 279 c 1,19,20
 159 347 159 347 235 347 c 0,21,22
 368 347 368 347 336 193 c 2,23,-1
 310 69 l 2,0,1
EndSplineSet
EndChar

StartChar: o
Encoding: 111 111 80
Width: 398
Flags: W
LayerCount: 2
Fore
SplineSet
362 169 m 256,0,1
 346 94 346 94 288 42 c 128,-1,2
 230 -10 230 -10 153 -10 c 256,3,4
 76 -10 76 -10 40 42 c 128,-1,5
 4 94 4 94 20 169 c 256,6,7
 36 244 36 244 94 295.5 c 128,-1,8
 152 347 152 347 229 347 c 256,9,10
 306 347 306 347 342 295.5 c 128,-1,11
 378 244 378 244 362 169 c 256,0,1
324 169 m 0,12,13
 338 231 338 231 309 272.5 c 128,-1,14
 280 314 280 314 222 314 c 256,15,16
 164 314 164 314 118 272.5 c 128,-1,17
 72 231 72 231 58 169 c 0,18,19
 45 107 45 107 73.5 65 c 128,-1,20
 102 23 102 23 160 23 c 256,21,22
 218 23 218 23 264.5 65 c 128,-1,23
 311 107 311 107 324 169 c 0,12,13
EndSplineSet
EndChar

StartChar: p
Encoding: 112 112 81
Width: 401
Flags: W
LayerCount: 2
Fore
SplineSet
328 165 m 1,0,1
 342 235 342 235 318 274.5 c 128,-1,2
 294 314 294 314 232 314 c 0,3,4
 182 314 182 314 141.5 282 c 128,-1,5
 101 250 101 250 90 202 c 2,6,-1
 78 145 l 2,7,8
 67 90 67 90 98 55 c 0,9,10
 126 22 126 22 174 22 c 0,11,12
 232 22 232 22 275 63 c 1,13,14
 314 102 314 102 328 165 c 1,0,1
364 164 m 0,15,16
 348 89 348 89 298 42 c 1,17,18
 246 -9 246 -9 175 -9 c 0,19,20
 90 -9 90 -9 61 63 c 1,21,-1
 12 -167 l 1,22,-1
 -26 -167 l 1,23,-1
 66 269 l 2,24,25
 74 311 74 311 63 337 c 1,26,-1
 102 345 l 1,27,28
 113 311 113 311 103 278 c 1,29,30
 164 347 164 347 244 347 c 0,31,32
 317 347 317 347 349.5 296.5 c 128,-1,33
 382 246 382 246 364 164 c 0,15,16
EndSplineSet
EndChar

StartChar: q
Encoding: 113 113 82
Width: 401
Flags: W
LayerCount: 2
Fore
SplineSet
373 296 m 1,0,-1
 272 -168 l 1,1,-1
 233 -168 l 1,2,-1
 282 62 l 1,3,4
 224 -10 224 -10 138 -10 c 0,5,6
 80 -10 80 -10 48 23.5 c 128,-1,7
 16 57 16 57 16 113 c 0,8,9
 16 201 16 201 73 271 c 0,10,11
 133 346 133 346 219 346 c 0,12,13
 311 347 311 347 373 296 c 1,0,-1
299 143 m 2,14,-1
 330 279 l 1,15,16
 279 314 279 314 224 314 c 0,17,18
 151 313 151 313 100 249 c 1,19,20
 54 189 54 189 54 118 c 0,21,22
 54 74 54 74 79.5 47.5 c 128,-1,23
 105 21 105 21 151 21 c 0,24,25
 202 21 202 21 245 57.5 c 128,-1,26
 288 94 288 94 299 143 c 2,14,-1
EndSplineSet
EndChar

StartChar: r
Encoding: 114 114 83
Width: 217
Flags: W
LayerCount: 2
Fore
SplineSet
231 312 m 1,0,1
 228 313 228 313 219 313 c 0,2,3
 142 313 142 313 97 217 c 0,4,5
 91 206 91 206 86 183 c 2,6,-1
 48 0 l 1,7,-1
 9 0 l 1,8,-1
 65 270 l 2,9,10
 73 312 73 312 62 338 c 1,11,-1
 101 346 l 1,12,13
 112 312 112 312 100 272 c 1,14,15
 148 347 148 347 219 347 c 0,16,17
 228 347 228 347 238 345 c 1,18,-1
 231 312 l 1,0,1
EndSplineSet
EndChar

StartChar: s
Encoding: 115 115 84
Width: 282
Flags: W
LayerCount: 2
Fore
SplineSet
224 90 m 1,0,1
 214 47 214 47 176 19 c 128,-1,2
 138 -9 138 -9 80 -9 c 0,3,4
 30 -9 30 -9 -10 18 c 1,5,-1
 11 50 l 1,6,7
 54 24 54 24 90 24 c 0,8,9
 174 24 174 24 187 87 c 0,10,11
 197 136 197 136 124 160 c 0,12,13
 38 188 38 188 52 252 c 0,14,15
 60 291 60 291 95.5 319 c 128,-1,16
 131 347 131 347 184 347 c 256,17,18
 237 347 237 347 263 324 c 1,19,-1
 241 292 l 1,20,21
 216 316 216 316 171 316 c 0,22,23
 139 316 139 316 117 299 c 128,-1,24
 95 282 95 282 90 257 c 0,25,26
 82 217 82 217 154 190 c 0,27,28
 238 159 238 159 224 90 c 1,0,1
EndSplineSet
EndChar

StartChar: t
Encoding: 116 116 85
Width: 238
Flags: W
LayerCount: 2
Fore
SplineSet
173 31 m 1,0,-1
 171 0 l 1,1,2
 149 -9 149 -9 116 -9 c 0,3,4
 72 -9 72 -9 56 25 c 0,5,6
 42 55 42 55 52 100 c 2,7,-1
 96 309 l 1,8,-1
 28 309 l 1,9,-1
 35 340 l 1,10,-1
 103 340 l 1,11,-1
 124 441 l 1,12,-1
 167 459 l 1,13,-1
 142 340 l 1,14,-1
 251 340 l 1,15,-1
 244 309 l 1,16,-1
 135 309 l 1,17,-1
 91 101 l 2,18,19
 75 25 75 25 126 25 c 0,20,21
 157 25 157 25 173 31 c 1,0,-1
EndSplineSet
EndChar

StartChar: u
Encoding: 117 117 86
Width: 390
Flags: W
LayerCount: 2
Fore
SplineSet
312 1 m 1,0,-1
 273 -7 l 1,1,2
 268 27 268 27 271 59 c 1,3,4
 213 -9 213 -9 129 -9 c 0,5,6
 7 -9 7 -9 40 149 c 2,7,-1
 66 270 l 1,8,9
 74 312 74 312 63 338 c 1,10,-1
 102 346 l 1,11,12
 113 312 113 312 107 279 c 2,13,-1
 81 156 l 2,14,15
 53 25 53 25 145 25 c 0,16,17
 188 25 188 25 229 53 c 0,18,19
 274 85 274 85 284 134 c 2,20,-1
 328 340 l 1,21,-1
 367 340 l 1,22,-1
 312 83 l 2,23,24
 304 46 304 46 312 1 c 1,0,-1
EndSplineSet
EndChar

StartChar: v
Encoding: 118 118 87
Width: 341
Flags: W
LayerCount: 2
Fore
SplineSet
367 340 m 1,0,-1
 142 0 l 1,1,-1
 107 0 l 1,2,-1
 32 340 l 1,3,-1
 72 340 l 1,4,-1
 134 42 l 1,5,-1
 327 340 l 1,6,-1
 367 340 l 1,0,-1
EndSplineSet
EndChar

StartChar: w
Encoding: 119 119 88
Width: 507
Flags: W
LayerCount: 2
Fore
SplineSet
536 340 m 1,0,-1
 342 0 l 1,1,-1
 308 0 l 1,2,-1
 273 300 l 1,3,-1
 107 0 l 1,4,-1
 71 0 l 1,5,-1
 32 340 l 1,6,-1
 73 340 l 1,7,-1
 100 46 l 1,8,-1
 265 340 l 1,9,-1
 302 340 l 1,10,-1
 335 46 l 1,11,-1
 497 340 l 1,12,-1
 536 340 l 1,0,-1
EndSplineSet
EndChar

StartChar: x
Encoding: 120 120 89
Width: 318
Flags: W
LayerCount: 2
Fore
SplineSet
275 0 m 1,0,-1
 229 0 l 1,1,-1
 146 147 l 1,2,-1
 2 0 l 1,3,-1
 -43 0 l 1,4,-1
 131 173 l 1,5,-1
 38 340 l 1,6,-1
 82 340 l 1,7,-1
 160 202 l 1,8,-1
 297 340 l 1,9,-1
 340 340 l 1,10,-1
 174 174 l 1,11,-1
 275 0 l 1,0,-1
EndSplineSet
EndChar

StartChar: y
Encoding: 121 121 90
Width: 337
Flags: W
LayerCount: 2
Fore
SplineSet
141 0 m 2,0,1
 53 -133 53 -133 -49 -156 c 1,2,-1
 -51 -125 l 1,3,4
 37 -106 37 -106 106 11 c 1,5,6
 106 14 106 14 105 23 c 1,7,-1
 32 340 l 1,8,-1
 74 340 l 1,9,-1
 140 52 l 1,10,-1
 320 340 l 1,11,-1
 363 340 l 1,12,-1
 141 0 l 2,0,1
EndSplineSet
EndChar

StartChar: z
Encoding: 122 122 91
Width: 321
Flags: W
LayerCount: 2
Fore
SplineSet
258 0 m 1,0,-1
 -28 0 l 1,1,-1
 -22 24 l 1,2,-1
 277 308 l 1,3,-1
 49 308 l 1,4,-1
 62 340 l 1,5,-1
 333 340 l 1,6,-1
 326 313 l 1,7,-1
 27 32 l 1,8,-1
 272 32 l 1,9,-1
 258 0 l 1,0,-1
EndSplineSet
EndChar

StartChar: braceleft
Encoding: 123 123 92
Width: 208
Flags: W
LayerCount: 2
Fore
SplineSet
127 -47 m 1,0,-1
 120 -77 l 1,1,-1
 109 -77 l 2,2,3
 1 -77 1 -77 21 18 c 0,4,5
 25 37 25 37 40.5 76.5 c 128,-1,6
 56 116 56 116 60 136 c 0,7,8
 71 186 71 186 9 188 c 1,9,-1
 16 218 l 1,10,11
 78 220 78 220 89 270 c 0,12,13
 93 290 93 290 94.5 329.5 c 128,-1,14
 96 369 96 369 100 388 c 0,15,16
 120 483 120 483 228 483 c 2,17,-1
 239 483 l 1,18,-1
 233 453 l 1,19,-1
 218 453 l 2,20,21
 149 453 149 453 134 384 c 1,22,23
 127 283 127 283 125 273 c 0,24,25
 114 222 114 222 70 203 c 1,26,27
 106 184 106 184 95 133 c 0,28,29
 93 123 93 123 57 22 c 1,30,31
 43 -47 43 -47 112 -47 c 2,32,-1
 127 -47 l 1,0,-1
EndSplineSet
EndChar

StartChar: bar
Encoding: 124 124 93
Width: 153
Flags: W
LayerCount: 2
Fore
SplineSet
162 528 m 1,0,-1
 13 -174 l 1,1,-1
 -19 -174 l 1,2,-1
 129 528 l 1,3,-1
 162 528 l 1,0,-1
EndSplineSet
EndChar

StartChar: braceright
Encoding: 125 125 94
Width: 208
Flags: W
LayerCount: 2
Fore
SplineSet
-31 -77 m 1,0,-1
 -24 -47 l 1,1,-1
 -9 -47 l 2,2,3
 59 -47 59 -47 73 22 c 1,4,5
 81 123 81 123 83 133 c 0,6,7
 94 184 94 184 138 203 c 1,8,9
 102 222 102 222 113 273 c 0,10,11
 115 283 115 283 150 384 c 1,12,13
 165 453 165 453 96 453 c 2,14,-1
 81 453 l 1,15,-1
 87 483 l 1,16,-1
 98 483 l 2,17,18
 206 483 206 483 186 388 c 0,19,20
 182 369 182 369 166.5 329.5 c 128,-1,21
 151 290 151 290 147 270 c 0,22,23
 136 220 136 220 198 218 c 1,24,-1
 191 188 l 1,25,26
 129 186 129 186 118 136 c 0,27,28
 114 116 114 116 112.5 76.5 c 128,-1,29
 111 37 111 37 107 18 c 0,30,31
 87 -77 87 -77 -20 -77 c 2,32,-1
 -31 -77 l 1,0,-1
EndSplineSet
EndChar

StartChar: asciitilde
Encoding: 126 126 95
Width: 416
Flags: W
LayerCount: 2
Fore
SplineSet
398 249 m 1,0,-1
 397 243 l 1,1,2
 387 197 387 197 357 172 c 0,3,4
 332 151 332 151 300 151 c 0,5,6
 261 151 261 151 202 183.5 c 128,-1,7
 143 216 143 216 108 216 c 0,8,9
 61 216 61 216 46 151 c 1,10,-1
 15 151 l 1,11,-1
 16 159 l 1,12,13
 25 201 25 201 53.5 225 c 128,-1,14
 82 249 82 249 115 249 c 0,15,16
 153 249 153 249 213 217.5 c 128,-1,17
 273 186 273 186 309 186 c 0,18,19
 352 186 352 186 367 249 c 1,20,-1
 398 249 l 1,0,-1
EndSplineSet
EndChar

StartChar: uni0E33.alt1
Encoding: 65537 -1 96
Width: 316
Flags: W
LayerCount: 2
Fore
SplineSet
-78 538 m 256,0,1
 -85 506 -85 506 -111.5 484 c 128,-1,2
 -138 462 -138 462 -170 462 c 256,3,4
 -202 462 -202 462 -220 484 c 128,-1,5
 -238 506 -238 506 -231 538 c 256,6,7
 -224 570 -224 570 -197 592.5 c 128,-1,8
 -170 615 -170 615 -138 615 c 256,9,10
 -106 615 -106 615 -88.5 592.5 c 128,-1,11
 -71 570 -71 570 -78 538 c 256,0,1
-111 538 m 256,12,13
 -107 556 -107 556 -117.5 569 c 128,-1,14
 -128 582 -128 582 -145 582 c 0,15,16
 -163 582 -163 582 -178.5 569 c 128,-1,17
 -194 556 -194 556 -198 538 c 256,18,19
 -202 520 -202 520 -191.5 507.5 c 128,-1,20
 -181 495 -181 495 -163 495 c 0,21,22
 -146 495 -146 495 -130.5 507.5 c 128,-1,23
 -115 520 -115 520 -111 538 c 256,12,13
224 34 m 1,24,25
 212 -13 212 -13 176 -37 c 1,26,-1
 148 -19 l 1,27,28
 182 7 182 7 191 47 c 2,29,-1
 244 299 l 2,30,31
 250 329 250 329 232 348.5 c 128,-1,32
 214 368 214 368 175 368 c 0,33,34
 140 368 140 368 114 344.5 c 128,-1,35
 88 321 88 321 80 294 c 1,36,-1
 43 294 l 1,37,38
 53 336 53 336 92.5 368 c 128,-1,39
 132 400 132 400 183 400 c 0,40,41
 241 400 241 400 265.5 372 c 128,-1,42
 290 344 290 344 280 298 c 2,43,-1
 224 34 l 1,24,25
EndSplineSet
EndChar

StartChar: uni0E4E.alt1
Encoding: 65540 -1 99
Width: 0
Flags: W
LayerCount: 2
Fore
SplineSet
-23 664 m 1,0,-1
 -38 639 l 1,1,2
 -54 644 -54 644 -74 644 c 0,3,4
 -120 644 -120 644 -126 613 c 0,5,6
 -133 580 -133 580 -84 574 c 1,7,-1
 -98 551 l 1,8,9
 -110 555 -110 555 -122 555 c 0,10,11
 -150 555 -150 555 -170 542.5 c 128,-1,12
 -190 530 -190 530 -193 515 c 0,13,14
 -199 488 -199 488 -154 488 c 0,15,16
 -141 488 -141 488 -120 496 c 1,17,-1
 -124 471 l 1,18,19
 -145 463 -145 463 -172 463 c 0,20,21
 -197 463 -197 463 -212 477.5 c 128,-1,22
 -227 492 -227 492 -222 516 c 0,23,24
 -217 541 -217 541 -193 558 c 128,-1,25
 -169 575 -169 575 -144 575 c 1,26,27
 -162 588 -162 588 -156 613 c 0,28,29
 -144 671 -144 671 -67 671 c 0,30,31
 -40 671 -40 671 -23 664 c 1,0,-1
EndSplineSet
EndChar

StartChar: exclamdown
Encoding: 161 161 100
Width: 151
Flags: W
LayerCount: 2
Fore
SplineSet
29 -140 m 1,0,-1
 -25 -140 l 1,1,-1
 58 208 l 1,2,-1
 93 208 l 1,3,-1
 29 -140 l 1,0,-1
133 304 m 256,4,5
 130 289 130 289 116.5 278 c 128,-1,6
 103 267 103 267 88 267 c 256,7,8
 73 267 73 267 64.5 278 c 128,-1,9
 56 289 56 289 59 304 c 256,10,11
 62 319 62 319 75.5 330 c 128,-1,12
 89 341 89 341 104 341 c 256,13,14
 119 341 119 341 127.5 330 c 128,-1,15
 136 319 136 319 133 304 c 256,4,5
EndSplineSet
EndChar

StartChar: cent
Encoding: 162 162 101
Width: 411
Flags: W
LayerCount: 2
Fore
SplineSet
345 48 m 1,0,1
 291 22 291 22 208 22 c 2,2,-1
 203 22 l 1,3,-1
 186 -59 l 1,4,-1
 153 -59 l 1,5,-1
 171 24 l 1,6,7
 97 35 97 35 60 85 c 0,8,9
 18 140 18 140 39 238 c 0,10,11
 57 321 57 321 112 376 c 0,12,13
 173 436 173 436 261 451 c 1,14,-1
 281 542 l 1,15,-1
 314 542 l 1,16,-1
 295 455 l 1,17,18
 302 456 302 456 316 456 c 0,19,20
 376 456 376 456 424 437 c 1,21,-1
 409 401 l 1,22,23
 369 424 369 424 312 424 c 0,24,25
 220 424 220 424 158.5 375.5 c 128,-1,26
 97 327 97 327 78 236 c 1,27,28
 59 150 59 150 97 105 c 0,29,30
 137 57 137 57 228 57 c 0,31,32
 291 57 291 57 339 77 c 1,33,-1
 345 48 l 1,0,1
EndSplineSet
EndChar

StartChar: sterling
Encoding: 163 163 102
Width: 411
Flags: W
LayerCount: 2
Fore
SplineSet
310 0 m 1,0,-1
 14 0 l 1,1,-1
 19 25 l 1,2,3
 115 77 115 77 132 158 c 0,4,5
 137 181 137 181 139 216 c 1,6,-1
 60 216 l 1,7,-1
 67 247 l 1,8,-1
 143 247 l 1,9,10
 145 295 145 295 152 328 c 0,11,12
 180 461 180 461 308 461 c 0,13,14
 349 461 349 461 387 441 c 1,15,-1
 369 412 l 1,16,17
 332 428 332 428 299 428 c 0,18,19
 208 428 208 428 187 327 c 0,20,21
 179 290 179 290 179 247 c 1,22,-1
 292 247 l 1,23,-1
 285 216 l 1,24,-1
 176 216 l 1,25,26
 176 193 176 193 170 165 c 0,27,28
 152 81 152 81 88 33 c 1,29,-1
 317 33 l 1,30,-1
 310 0 l 1,0,-1
EndSplineSet
EndChar

StartChar: currency
Encoding: 164 164 103
Width: 411
Flags: W
LayerCount: 2
Fore
SplineSet
391 225 m 0,0,1
 377 159 377 159 330 114 c 1,2,-1
 361 73 l 1,3,-1
 326 43 l 1,4,-1
 293 85 l 1,5,6
 238 43 238 43 170 43 c 0,7,8
 105 43 105 43 66 85 c 1,9,-1
 17 43 l 1,10,-1
 -5 73 l 1,11,-1
 42 114 l 1,12,13
 13 162 13 162 26 225 c 0,14,15
 40 289 40 289 90 339 c 1,16,-1
 59 379 l 1,17,-1
 95 410 l 1,18,-1
 126 368 l 1,19,20
 186 409 186 409 247 409 c 0,21,22
 311 409 311 409 353 368 c 1,23,-1
 405 410 l 1,24,-1
 426 379 l 1,25,-1
 378 339 l 1,26,27
 406 295 406 295 391 225 c 0,0,1
351 225 m 0,28,29
 364 285 364 285 332 329.5 c 128,-1,30
 300 374 300 374 240 374 c 0,31,32
 182 374 182 374 130 330 c 128,-1,33
 78 286 78 286 65 225 c 256,34,35
 52 164 52 164 85.5 121.5 c 128,-1,36
 119 79 119 79 177 79 c 0,37,38
 237 79 237 79 288 122.5 c 128,-1,39
 339 166 339 166 351 225 c 0,28,29
EndSplineSet
EndChar

StartChar: yen
Encoding: 165 165 104
Width: 411
Flags: W
LayerCount: 2
Fore
SplineSet
322 95 m 1,0,-1
 201 95 l 1,1,-1
 185 19 l 1,2,-1
 148 19 l 1,3,-1
 164 95 l 1,4,-1
 44 95 l 1,5,-1
 50 124 l 1,6,-1
 170 124 l 1,7,-1
 182 181 l 1,8,-1
 62 181 l 1,9,-1
 68 210 l 1,10,-1
 188 210 l 1,11,-1
 88 459 l 1,12,-1
 134 459 l 1,13,-1
 214 248 l 1,14,-1
 384 459 l 1,15,-1
 431 459 l 1,16,-1
 225 211 l 1,17,-1
 346 211 l 1,18,-1
 340 181 l 1,19,-1
 219 181 l 1,20,-1
 207 124 l 1,21,-1
 328 124 l 1,22,-1
 322 95 l 1,0,-1
EndSplineSet
EndChar

StartChar: brokenbar
Encoding: 166 166 105
Width: 153
Flags: W
LayerCount: 2
Fore
SplineSet
98 227 m 1,0,-1
 65 227 l 1,1,-1
 117 475 l 1,2,-1
 150 475 l 1,3,-1
 98 227 l 1,0,-1
23 -123 m 1,4,-1
 -9 -123 l 1,5,-1
 43 126 l 1,6,-1
 76 126 l 1,7,-1
 23 -123 l 1,4,-1
EndSplineSet
EndChar

StartChar: section
Encoding: 167 167 106
Width: 374
Flags: W
LayerCount: 2
Fore
SplineSet
271 65 m 0,0,1
 261 17 261 17 219 -11 c 128,-1,2
 177 -39 177 -39 123 -39 c 0,3,4
 60 -39 60 -39 27 -6 c 1,5,-1
 49 22 l 1,6,7
 76 -9 76 -9 132 -9 c 0,8,9
 173 -9 173 -9 201.5 10 c 128,-1,10
 230 29 230 29 236 60 c 0,11,12
 245 103 245 103 196 128 c 1,13,14
 149 148 149 148 102 169 c 1,15,16
 53 197 53 197 64 249 c 0,17,18
 74 293 74 293 126 329 c 1,19,20
 108 352 108 352 115 383 c 0,21,22
 124 426 124 426 163 452.5 c 128,-1,23
 202 479 202 479 255 479 c 256,24,25
 308 479 308 479 347 453 c 1,26,-1
 324 424 l 1,27,28
 294 450 294 450 244 450 c 0,29,30
 210 450 210 450 184 432.5 c 128,-1,31
 158 415 158 415 152 389 c 0,32,33
 146 362 146 362 172 344 c 0,34,35
 188 332 188 332 236 314 c 0,36,37
 335 278 335 278 320 211 c 1,38,39
 311 165 311 165 260 125 c 1,40,41
 279 101 279 101 271 65 c 0,0,1
282 206 m 1,42,43
 287 226 287 226 270 246.5 c 128,-1,44
 253 267 253 267 222 279 c 0,45,46
 166 299 166 299 146 313 c 1,47,48
 106 284 106 284 99 251 c 0,49,50
 93 223 93 223 123 202 c 0,51,52
 142 189 142 189 189 171 c 0,53,54
 232 154 232 154 243 144 c 1,55,56
 276 175 276 175 282 206 c 1,42,43
EndSplineSet
EndChar

StartChar: dieresis
Encoding: 168 168 107
Width: 212
Flags: W
LayerCount: 2
Fore
SplineSet
150 422 m 256,0,1
 147 409 147 409 136.5 400.5 c 128,-1,2
 126 392 126 392 113 392 c 256,3,4
 100 392 100 392 93 400.5 c 128,-1,5
 86 409 86 409 89 422 c 256,6,7
 92 435 92 435 102.5 444 c 128,-1,8
 113 453 113 453 126 453 c 256,9,10
 139 453 139 453 146 444 c 128,-1,11
 153 435 153 435 150 422 c 256,0,1
274 422 m 256,12,13
 271 409 271 409 260.5 400.5 c 128,-1,14
 250 392 250 392 237 392 c 256,15,16
 224 392 224 392 217 400.5 c 128,-1,17
 210 409 210 409 213 422 c 256,18,19
 216 435 216 435 226.5 444 c 128,-1,20
 237 453 237 453 250 453 c 256,21,22
 263 453 263 453 270 444 c 128,-1,23
 277 435 277 435 274 422 c 256,12,13
EndSplineSet
EndChar

StartChar: copyright
Encoding: 169 169 108
Width: 536
Flags: W
LayerCount: 2
Fore
SplineSet
385 117 m 1,0,1
 347 88 347 88 280 88 c 0,2,3
 215 88 215 88 176 130 c 128,-1,4
 137 172 137 172 137 233 c 0,5,6
 137 303 137 303 178 343.5 c 128,-1,7
 219 384 219 384 285 384 c 0,8,9
 348 384 348 384 380 360 c 1,10,-1
 368 330 l 1,11,12
 330 352 330 352 285 352 c 1,13,14
 177 346 177 346 177 238 c 0,15,16
 177 129 177 129 286 123 c 1,17,18
 337 123 337 123 372 148 c 1,19,-1
 385 117 l 1,0,1
526 240 m 256,20,21
 526 140 526 140 454.5 68.5 c 128,-1,22
 383 -3 383 -3 283 -3 c 256,23,24
 183 -3 183 -3 111.5 68.5 c 128,-1,25
 40 140 40 140 40 240 c 256,26,27
 40 340 40 340 111.5 411.5 c 128,-1,28
 183 483 183 483 283 483 c 256,29,30
 383 483 383 483 454.5 411.5 c 128,-1,31
 526 340 526 340 526 240 c 256,20,21
490 240 m 256,32,33
 490 326 490 326 429.5 386.5 c 128,-1,34
 369 447 369 447 283 447 c 256,35,36
 197 447 197 447 136.5 386.5 c 128,-1,37
 76 326 76 326 76 240 c 256,38,39
 76 154 76 154 136.5 93.5 c 128,-1,40
 197 33 197 33 283 33 c 256,41,42
 369 33 369 33 429.5 93.5 c 128,-1,43
 490 154 490 154 490 240 c 256,32,33
EndSplineSet
EndChar

StartChar: ordfeminine
Encoding: 170 170 109
Width: 272
Flags: W
LayerCount: 2
Fore
SplineSet
274 443 m 1,0,-1
 241 294 l 2,1,2
 239 285 239 285 239 274 c 0,3,4
 239 258 239 258 244 249 c 1,5,-1
 210 241 l 1,6,7
 206 252 206 252 206 265 c 0,8,9
 206 275 206 275 207 282 c 1,10,11
 164 241 164 241 116 241 c 0,12,13
 77 241 77 241 54.5 264 c 128,-1,14
 32 287 32 287 32 324 c 0,15,16
 32 383 32 383 71 430.5 c 128,-1,17
 110 478 110 478 169 478 c 0,18,19
 231 478 231 478 274 443 c 1,0,-1
216 343 m 2,20,-1
 236 432 l 1,21,22
 205 452 205 452 172 452 c 0,23,24
 127 452 127 452 97 412.5 c 128,-1,25
 67 373 67 373 67 327 c 0,26,27
 67 267 67 267 125 267 c 0,28,29
 155 267 155 267 182 290 c 128,-1,30
 209 313 209 313 216 343 c 2,20,-1
EndSplineSet
EndChar

StartChar: guillemotleft
Encoding: 171 171 110
Width: 298
Flags: W
LayerCount: 2
Fore
SplineSet
200 48 m 1,0,-1
 116 177 l 1,1,-1
 254 309 l 1,2,-1
 296 309 l 1,3,-1
 158 177 l 1,4,-1
 242 48 l 1,5,-1
 200 48 l 1,0,-1
89 48 m 1,6,-1
 5 177 l 1,7,-1
 143 309 l 1,8,-1
 185 309 l 1,9,-1
 47 177 l 1,10,-1
 131 48 l 1,11,-1
 89 48 l 1,6,-1
EndSplineSet
EndChar

StartChar: logicalnot
Encoding: 172 172 111
Width: 420
Flags: W
LayerCount: 2
Fore
SplineSet
407 91 m 1,0,-1
 368 91 l 1,1,-1
 368 239 l 1,2,-1
 43 239 l 1,3,-1
 43 272 l 1,4,-1
 407 272 l 1,5,-1
 407 91 l 1,0,-1
EndSplineSet
EndChar

StartChar: registered
Encoding: 174 174 112
Width: 536
Flags: W
LayerCount: 2
Fore
SplineSet
394 99 m 1,0,-1
 355 99 l 1,1,2
 337 217 337 217 290 217 c 2,3,-1
 229 217 l 1,4,-1
 229 99 l 1,5,-1
 189 99 l 1,6,-1
 189 381 l 1,7,8
 225 388 225 388 272 389 c 1,9,10
 325 389 325 389 354.5 366.5 c 128,-1,11
 384 344 384 344 384 305 c 0,12,13
 384 253 384 253 343 231 c 1,14,15
 382 196 382 196 394 99 c 1,0,-1
345 300 m 0,16,17
 345 354 345 354 276 354 c 0,18,19
 249 354 249 354 229 351 c 1,20,-1
 229 254 l 1,21,-1
 283 254 l 2,22,23
 311 254 311 254 328 266 c 128,-1,24
 345 278 345 278 345 300 c 0,16,17
526 240 m 256,25,26
 526 140 526 140 454.5 68.5 c 128,-1,27
 383 -3 383 -3 283 -3 c 256,28,29
 183 -3 183 -3 111.5 68.5 c 128,-1,30
 40 140 40 140 40 240 c 256,31,32
 40 340 40 340 111.5 411.5 c 128,-1,33
 183 483 183 483 283 483 c 256,34,35
 383 483 383 483 454.5 411.5 c 128,-1,36
 526 340 526 340 526 240 c 256,25,26
490 240 m 256,37,38
 490 326 490 326 429.5 386.5 c 128,-1,39
 369 447 369 447 283 447 c 256,40,41
 197 447 197 447 136.5 386.5 c 128,-1,42
 76 326 76 326 76 240 c 256,43,44
 76 154 76 154 136.5 93.5 c 128,-1,45
 197 33 197 33 283 33 c 256,46,47
 369 33 369 33 429.5 93.5 c 128,-1,48
 490 154 490 154 490 240 c 256,37,38
EndSplineSet
EndChar

StartChar: macron
Encoding: 175 175 113
Width: 352
Flags: W
LayerCount: 2
Fore
SplineSet
427 559 m 1,0,-1
 421 528 l 1,1,-1
 69 528 l 1,2,-1
 75 559 l 1,3,-1
 427 559 l 1,0,-1
EndSplineSet
EndChar

StartChar: degree
Encoding: 176 176 114
Width: 212
Flags: W
LayerCount: 2
Fore
SplineSet
232 397 m 0,0,1
 224 362 224 362 193.5 337 c 128,-1,2
 163 312 163 312 128 312 c 256,3,4
 93 312 93 312 73 337 c 128,-1,5
 53 362 53 362 61 397 c 0,6,7
 68 432 68 432 98.5 457.5 c 128,-1,8
 129 483 129 483 164 483 c 256,9,10
 199 483 199 483 219 457.5 c 128,-1,11
 239 432 239 432 232 397 c 0,0,1
202 397 m 256,12,13
 207 420 207 420 194 437 c 128,-1,14
 181 454 181 454 158 454 c 256,15,16
 135 454 135 454 115.5 437 c 128,-1,17
 96 420 96 420 91 397 c 256,18,19
 86 374 86 374 98.5 357.5 c 128,-1,20
 111 341 111 341 134 341 c 256,21,22
 157 341 157 341 177 357.5 c 128,-1,23
 197 374 197 374 202 397 c 256,12,13
EndSplineSet
EndChar

StartChar: plusminus
Encoding: 177 177 115
Width: 411
Flags: W
LayerCount: 2
Fore
SplineSet
372 201 m 1,0,-1
 222 201 l 1,1,-1
 194 68 l 1,2,-1
 159 68 l 1,3,-1
 187 201 l 1,4,-1
 37 201 l 1,5,-1
 44 233 l 1,6,-1
 194 233 l 1,7,-1
 220 357 l 1,8,-1
 255 357 l 1,9,-1
 229 233 l 1,10,-1
 379 233 l 1,11,-1
 372 201 l 1,0,-1
330 0 m 1,12,-1
 -5 0 l 1,13,-1
 1 32 l 1,14,-1
 336 32 l 1,15,-1
 330 0 l 1,12,-1
EndSplineSet
EndChar

StartChar: twosuperior
Encoding: 178 178 116
Width: 254
Flags: W
LayerCount: 2
Fore
SplineSet
215 227 m 1,0,-1
 204 196 l 1,1,-1
 23 196 l 1,2,3
 34 237 34 237 114 301 c 1,4,5
 147 326 147 326 178 353 c 128,-1,6
 209 380 209 380 215 407 c 0,7,8
 224 450 224 450 181 450 c 0,9,10
 133 450 133 450 116 395 c 1,11,-1
 84 401 l 1,12,13
 96 439 96 439 123.5 460 c 128,-1,14
 151 481 151 481 185 481 c 0,15,16
 220 481 220 481 238 461 c 128,-1,17
 256 441 256 441 249 407 c 0,18,19
 240 366 240 366 174 310 c 0,20,21
 125 268 125 268 76 227 c 1,22,-1
 215 227 l 1,0,-1
EndSplineSet
EndChar

StartChar: threesuperior
Encoding: 179 179 117
Width: 254
Flags: W
LayerCount: 2
Fore
SplineSet
235 298 m 0,0,1
 225 252 225 252 189 224.5 c 128,-1,2
 153 197 153 197 104 196 c 0,3,4
 60 195 60 195 37 216 c 1,5,-1
 59 248 l 1,6,7
 78 229 78 229 108 229 c 0,8,9
 145 229 145 229 170 248 c 128,-1,10
 195 267 195 267 202 297 c 0,11,12
 211 341 211 341 169 341 c 0,13,14
 141 341 141 341 122 327 c 1,15,-1
 113 352 l 1,16,17
 171 387 171 387 178 392 c 0,18,19
 205 411 205 411 209 429 c 0,20,21
 213 449 213 449 180 449 c 0,22,23
 139 449 139 449 113 405 c 1,24,-1
 87 420 l 1,25,26
 127 482 127 482 190 482 c 256,27,28
 253 482 253 482 242 430 c 0,29,30
 238 412 238 412 220 393 c 128,-1,31
 202 374 202 374 184 367 c 1,32,33
 249 363 249 363 235 298 c 0,0,1
EndSplineSet
EndChar

StartChar: acute
Encoding: 180 180 118
Width: 212
Flags: W
LayerCount: 2
Fore
SplineSet
154 528 m 1,0,-1
 123 528 l 1,1,-1
 192 619 l 1,2,-1
 242 619 l 1,3,-1
 154 528 l 1,0,-1
EndSplineSet
EndChar

StartChar: mu
Encoding: 181 181 119
Width: 406
Flags: W
LayerCount: 2
Fore
SplineSet
325 83 m 2,0,1
 318 46 318 46 326 1 c 1,2,-1
 287 -7 l 1,3,4
 282 27 282 27 286 63 c 1,5,6
 214 -9 214 -9 143 -9 c 0,7,8
 85 -9 85 -9 60 42 c 1,9,-1
 22 -140 l 1,10,-1
 -15 -140 l 1,11,-1
 86 340 l 1,12,-1
 124 340 l 1,13,-1
 83 146 l 2,14,15
 57 25 57 25 159 25 c 0,16,17
 203 25 203 25 246 58.5 c 128,-1,18
 289 92 289 92 298 133 c 2,19,-1
 342 340 l 1,20,-1
 380 340 l 1,21,-1
 325 83 l 2,0,1
EndSplineSet
EndChar

StartChar: paragraph
Encoding: 182 182 120
Width: 374
Flags: W
LayerCount: 2
Fore
SplineSet
264 -63 m 1,0,-1
 230 -63 l 1,1,-1
 338 443 l 1,2,-1
 290 443 l 1,3,-1
 182 -63 l 1,4,-1
 147 -63 l 1,5,-1
 199 180 l 1,6,-1
 195 180 l 2,7,8
 135 180 135 180 98 215 c 0,9,10
 56 255 56 255 70 321 c 0,11,12
 102 475 102 475 300 475 c 0,13,14
 353 475 353 475 377 470 c 1,15,-1
 264 -63 l 1,0,-1
EndSplineSet
EndChar

StartChar: periodcentered
Encoding: 183 183 121
Width: 162
Flags: W
LayerCount: 2
Fore
SplineSet
110 181 m 256,0,1
 107 167 107 167 94.5 157 c 128,-1,2
 82 147 82 147 68 147 c 256,3,4
 54 147 54 147 46 157 c 128,-1,5
 38 167 38 167 41 181 c 256,6,7
 44 195 44 195 56 205.5 c 128,-1,8
 68 216 68 216 82 216 c 256,9,10
 96 216 96 216 104.5 205.5 c 128,-1,11
 113 195 113 195 110 181 c 256,0,1
EndSplineSet
EndChar

StartChar: cedilla
Encoding: 184 184 122
Width: 212
Flags: W
LayerCount: 2
Fore
SplineSet
92 -81 m 0,0,1
 80 -139 80 -139 10 -139 c 0,2,3
 -13 -139 -13 -139 -34 -126 c 1,4,-1
 -20 -104 l 1,5,6
 -1 -114 -1 -114 16 -114 c 0,7,8
 54 -114 54 -114 60 -86 c 0,9,10
 66 -61 66 -61 4 -56 c 1,11,-1
 55 4 l 1,12,-1
 87 4 l 1,13,-1
 52 -34 l 1,14,15
 100 -46 100 -46 92 -81 c 0,0,1
EndSplineSet
EndChar

StartChar: onesuperior
Encoding: 185 185 123
Width: 254
Flags: W
LayerCount: 2
Fore
SplineSet
193 201 m 1,0,-1
 71 201 l 1,1,-1
 76 225 l 1,2,-1
 120 225 l 1,3,-1
 164 430 l 1,4,-1
 119 397 l 1,5,-1
 105 421 l 1,6,-1
 189 484 l 1,7,8
 210 482 210 482 204 456 c 2,9,-1
 155 225 l 1,10,-1
 198 225 l 1,11,-1
 193 201 l 1,0,-1
EndSplineSet
EndChar

StartChar: ordmasculine
Encoding: 186 186 124
Width: 285
Flags: W
LayerCount: 2
Fore
SplineSet
297 360 m 1,0,1
 287 310 287 310 242 274 c 128,-1,2
 197 238 197 238 148 238 c 0,3,4
 98 238 98 238 70 274 c 128,-1,5
 42 310 42 310 52 360 c 1,6,7
 63 409 63 409 107 446 c 128,-1,8
 151 483 151 483 201 483 c 0,9,10
 250 483 250 483 279 446 c 128,-1,11
 308 409 308 409 297 360 c 1,0,1
262 360 m 0,12,13
 270 396 270 396 249.5 422 c 128,-1,14
 229 448 229 448 193 448 c 256,15,16
 157 448 157 448 126 422 c 128,-1,17
 95 396 95 396 87 360 c 0,18,19
 80 324 80 324 100 298.5 c 128,-1,20
 120 273 120 273 156 273 c 256,21,22
 192 273 192 273 223.5 298.5 c 128,-1,23
 255 324 255 324 262 360 c 0,12,13
EndSplineSet
EndChar

StartChar: guillemotright
Encoding: 187 187 125
Width: 294
Flags: W
LayerCount: 2
Fore
SplineSet
28 48 m 1,0,-1
 -13 48 l 1,1,-1
 124 177 l 1,2,-1
 42 309 l 1,3,-1
 84 309 l 1,4,-1
 166 177 l 1,5,-1
 28 48 l 1,0,-1
139 48 m 1,6,-1
 97 48 l 1,7,-1
 235 177 l 1,8,-1
 153 309 l 1,9,-1
 195 309 l 1,10,-1
 277 177 l 1,11,-1
 139 48 l 1,6,-1
EndSplineSet
EndChar

StartChar: onequarter
Encoding: 188 188 126
Width: 536
Flags: W
LayerCount: 2
Fore
SplineSet
101 -9 m 1,0,-1
 68 -9 l 1,1,-1
 453 467 l 1,2,-1
 486 467 l 1,3,-1
 101 -9 l 1,0,-1
161 186 m 1,4,-1
 39 186 l 1,5,-1
 44 210 l 1,6,-1
 88 210 l 1,7,-1
 131 411 l 1,8,-1
 86 378 l 1,9,-1
 72 402 l 1,10,-1
 156 465 l 1,11,12
 177 463 177 463 171 437 c 2,13,-1
 123 210 l 1,14,-1
 166 210 l 1,15,-1
 161 186 l 1,4,-1
400 95 m 1,16,-1
 431 243 l 1,17,18
 398 219 398 219 365 171 c 0,19,20
 334 127 334 127 325 95 c 1,21,-1
 400 95 l 1,16,-1
470 62 m 1,22,-1
 428 62 l 1,23,-1
 415 0 l 1,24,-1
 380 0 l 1,25,-1
 393 62 l 1,26,-1
 281 62 l 1,27,28
 296 129 296 129 348 199 c 0,29,30
 410 284 410 284 476 286 c 1,31,-1
 435 95 l 1,32,-1
 479 95 l 1,33,-1
 470 62 l 1,22,-1
EndSplineSet
Ligature2: "'frac' Diagonal Fractions in Latin lookup 0 subtable" one fraction four
Ligature2: "'frac' Diagonal Fractions in Latin lookup 0 subtable" one slash four
EndChar

StartChar: onehalf
Encoding: 189 189 127
Width: 536
Flags: W
LayerCount: 2
Fore
SplineSet
101 -9 m 1,0,-1
 68 -9 l 1,1,-1
 453 467 l 1,2,-1
 486 467 l 1,3,-1
 101 -9 l 1,0,-1
161 186 m 1,4,-1
 39 186 l 1,5,-1
 44 210 l 1,6,-1
 88 210 l 1,7,-1
 131 411 l 1,8,-1
 86 378 l 1,9,-1
 72 402 l 1,10,-1
 156 465 l 1,11,12
 177 463 177 463 171 437 c 2,13,-1
 123 210 l 1,14,-1
 166 210 l 1,15,-1
 161 186 l 1,4,-1
463 0 m 1,16,-1
 282 0 l 1,17,18
 292 41 292 41 373 105 c 0,19,20
 405 130 405 130 436.5 157 c 128,-1,21
 468 184 468 184 473 211 c 0,22,23
 482 254 482 254 439 254 c 0,24,25
 391 254 391 254 375 199 c 1,26,-1
 342 205 l 1,27,28
 354 243 354 243 381.5 264 c 128,-1,29
 409 285 409 285 443 285 c 0,30,31
 479 285 479 285 497.5 265.5 c 128,-1,32
 516 246 516 246 508 211 c 1,33,34
 500 170 500 170 434 114 c 0,35,36
 384 72 384 72 338 31 c 1,37,-1
 473 31 l 1,38,-1
 463 0 l 1,16,-1
EndSplineSet
Ligature2: "'frac' Diagonal Fractions in Latin lookup 0 subtable" one fraction two
Ligature2: "'frac' Diagonal Fractions in Latin lookup 0 subtable" one slash two
EndChar

StartChar: threequarters
Encoding: 190 190 128
Width: 536
Flags: W
LayerCount: 2
Fore
SplineSet
101 -9 m 1,0,-1
 68 -9 l 1,1,-1
 453 467 l 1,2,-1
 486 467 l 1,3,-1
 101 -9 l 1,0,-1
232 286 m 1,4,5
 223 240 223 240 187 212.5 c 128,-1,6
 151 185 151 185 102 184 c 0,7,8
 57 183 57 183 35 204 c 1,9,-1
 57 236 l 1,10,11
 76 217 76 217 106 217 c 0,12,13
 143 217 143 217 168 236 c 128,-1,14
 193 255 193 255 199 285 c 0,15,16
 208 329 208 329 166 329 c 0,17,18
 138 329 138 329 119 315 c 1,19,-1
 111 340 l 1,20,21
 168 375 168 375 175 380 c 0,22,23
 202 399 202 399 206 417 c 0,24,25
 210 437 210 437 177 437 c 0,26,27
 132 437 132 437 110 393 c 1,28,-1
 84 408 l 1,29,30
 124 470 124 470 187 470 c 256,31,32
 250 470 250 470 239 418 c 0,33,34
 236 400 236 400 217.5 381 c 128,-1,35
 199 362 199 362 181 355 c 1,36,37
 245 345 245 345 232 286 c 1,4,5
400 95 m 1,38,-1
 431 243 l 1,39,40
 398 219 398 219 365 171 c 0,41,42
 334 127 334 127 325 95 c 1,43,-1
 400 95 l 1,38,-1
470 62 m 1,44,-1
 428 62 l 1,45,-1
 415 0 l 1,46,-1
 380 0 l 1,47,-1
 393 62 l 1,48,-1
 281 62 l 1,49,50
 296 129 296 129 348 199 c 0,51,52
 410 284 410 284 476 286 c 1,53,-1
 435 95 l 1,54,-1
 479 95 l 1,55,-1
 470 62 l 1,44,-1
EndSplineSet
Ligature2: "'frac' Diagonal Fractions in Latin lookup 0 subtable" three fraction four
Ligature2: "'frac' Diagonal Fractions in Latin lookup 0 subtable" three slash four
EndChar

StartChar: questiondown
Encoding: 191 191 129
Width: 289
Flags: W
LayerCount: 2
Fore
SplineSet
181 -122 m 1,0,1
 126 -153 126 -153 72 -153 c 0,2,3
 15 -153 15 -153 -7 -120 c 1,4,5
 -28 -91 -28 -91 -19 -48 c 0,6,7
 -7 5 -7 5 69 72 c 0,8,9
 129 124 129 124 140 175 c 0,10,11
 144 193 144 193 143 207 c 1,12,-1
 177 207 l 1,13,14
 179 192 179 192 175 172 c 0,15,16
 164 119 164 119 96.5 58 c 128,-1,17
 29 -3 29 -3 20 -46 c 0,18,19
 4 -118 4 -118 86 -118 c 0,20,21
 133 -118 133 -118 172 -92 c 1,22,-1
 181 -122 l 1,0,1
219 304 m 256,23,24
 216 289 216 289 202.5 278 c 128,-1,25
 189 267 189 267 174 267 c 256,26,27
 159 267 159 267 150.5 278 c 128,-1,28
 142 289 142 289 145 304 c 256,29,30
 148 319 148 319 161.5 330 c 128,-1,31
 175 341 175 341 190 341 c 256,32,33
 205 341 205 341 213.5 330 c 128,-1,34
 222 319 222 319 219 304 c 256,23,24
EndSplineSet
EndChar

StartChar: AE
Encoding: 198 198 136
Width: 582
Flags: W
LayerCount: 2
Fore
SplineSet
501 0 m 1,0,-1
 287 0 l 1,1,-1
 300 196 l 1,2,-1
 136 196 l 1,3,-1
 -9 0 l 1,4,-1
 -50 0 l 1,5,-1
 306 476 l 1,6,-1
 590 476 l 1,7,-1
 583 443 l 1,8,-1
 355 443 l 1,9,-1
 341 267 l 1,10,-1
 534 267 l 1,11,-1
 527 234 l 1,12,-1
 339 234 l 1,13,-1
 327 33 l 1,14,-1
 508 33 l 1,15,-1
 501 0 l 1,0,-1
302 228 m 1,16,-1
 322 448 l 1,17,-1
 159 228 l 1,18,-1
 302 228 l 1,16,-1
EndSplineSet
EndChar

StartChar: Eth
Encoding: 208 208 146
Width: 431
Flags: W
LayerCount: 2
Fore
SplineSet
411 248 m 0,0,1
 358 -4 358 -4 132 -4 c 0,2,3
 102 -4 102 -4 12 5 c 1,4,-1
 56 213 l 1,5,-1
 7 213 l 1,6,-1
 14 246 l 1,7,-1
 63 246 l 1,8,-1
 110 469 l 1,9,10
 205 481 205 481 255 481 c 0,11,12
 346 481 346 481 390 420 c 1,13,14
 434 356 434 356 411 248 c 0,0,1
372 248 m 0,15,16
 392 343 392 343 354 397 c 0,17,18
 319 447 319 447 245 447 c 0,19,20
 214 447 214 447 143 439 c 1,21,-1
 102 246 l 1,22,-1
 270 246 l 1,23,-1
 263 213 l 1,24,-1
 95 213 l 1,25,-1
 57 36 l 1,26,27
 106 30 106 30 151 30 c 0,28,29
 232 30 232 30 291 87.5 c 128,-1,30
 350 145 350 145 372 248 c 0,15,16
EndSplineSet
EndChar

StartChar: multiply
Encoding: 215 215 153
Width: 411
Flags: W
LayerCount: 2
Fore
SplineSet
296 11 m 1,0,-1
 193 149 l 1,1,-1
 32 11 l 1,2,-1
 11 35 l 1,3,-1
 172 174 l 1,4,-1
 70 313 l 1,5,-1
 101 337 l 1,6,-1
 204 199 l 1,7,-1
 365 337 l 1,8,-1
 386 313 l 1,9,-1
 224 174 l 1,10,-1
 327 35 l 1,11,-1
 296 11 l 1,0,-1
EndSplineSet
EndChar

StartChar: Oslash
Encoding: 216 216 154
Width: 486
Flags: W
LayerCount: 2
Fore
SplineSet
471 237 m 256,0,1
 448 130 448 130 371.5 60 c 128,-1,2
 295 -10 295 -10 197 -10 c 0,3,4
 146 -10 146 -10 109 8 c 1,5,-1
 83 -29 l 1,6,-1
 45 -29 l 1,7,-1
 83 25 l 1,8,9
 66 40 66 40 52 60 c 0,10,11
 6 130 6 130 29 237 c 256,12,13
 52 344 52 344 128 414 c 128,-1,14
 204 484 204 484 302 484 c 0,15,16
 353 484 353 484 391 464 c 1,17,-1
 411 493 l 1,18,-1
 452 493 l 1,19,-1
 418 446 l 1,20,21
 434 432 434 432 446 414 c 0,22,23
 494 344 494 344 471 237 c 256,0,1
368 432 m 1,24,25
 337 450 337 450 295 450 c 0,26,27
 215 450 215 450 151 387.5 c 128,-1,28
 87 325 87 325 68 237 c 256,29,30
 49 149 49 149 87 86 c 0,31,32
 96 71 96 71 107 60 c 1,33,-1
 368 432 l 1,24,25
432 237 m 256,34,35
 451 325 451 325 413 387 c 0,36,37
 405 401 405 401 394 411 c 1,38,-1
 132 41 l 1,39,40
 163 24 163 24 205 24 c 0,41,42
 285 24 285 24 349 86.5 c 128,-1,43
 413 149 413 149 432 237 c 256,34,35
EndSplineSet
EndChar

StartChar: Thorn
Encoding: 222 222 160
Width: 380
Flags: W
LayerCount: 2
Fore
SplineSet
363 262 m 0,0,1
 347 187 347 187 288.5 148.5 c 128,-1,2
 230 110 230 110 143 110 c 0,3,4
 118 110 118 110 80 118 c 1,5,-1
 55 0 l 1,6,-1
 17 0 l 1,7,-1
 118 476 l 1,8,-1
 156 476 l 1,9,-1
 136 382 l 1,10,11
 180 393 180 393 220 393 c 0,12,13
 287 393 287 393 329 361 c 0,14,15
 376 324 376 324 363 262 c 0,0,1
325 257 m 0,16,17
 336 310 336 310 301 338 c 0,18,19
 271 361 271 361 213 361 c 0,20,21
 176 361 176 361 128 347 c 1,22,-1
 87 153 l 1,23,24
 121 142 121 142 152 142 c 0,25,26
 224 142 224 142 269 172.5 c 128,-1,27
 314 203 314 203 325 257 c 0,16,17
EndSplineSet
EndChar

StartChar: germandbls
Encoding: 223 223 161
Width: 392
Flags: W
LayerCount: 2
Fore
SplineSet
334 102 m 0,0,1
 324 53 324 53 287 23 c 0,2,3
 248 -9 248 -9 190 -9 c 0,4,5
 141 -9 141 -9 109 11 c 1,6,-1
 128 44 l 1,7,8
 162 24 162 24 198 24 c 0,9,10
 238 24 238 24 264 44.5 c 128,-1,11
 290 65 290 65 297 96 c 0,12,13
 304 130 304 130 262.5 174.5 c 128,-1,14
 221 219 221 219 229 257 c 0,15,16
 235 284 235 284 276 316.5 c 128,-1,17
 317 349 317 349 321 369 c 0,18,19
 338 451 338 451 251 451 c 0,20,21
 151 451 151 451 117 287 c 1,22,-1
 44 -54 l 2,23,24
 33 -108 33 -108 2 -148 c 1,25,-1
 -31 -138 l 1,26,27
 -4 -99 -4 -99 5 -54 c 2,28,-1
 81 304 l 2,29,30
 120 487 120 487 266 487 c 0,31,32
 316 487 316 487 343 455.5 c 128,-1,33
 370 424 370 424 358 371 c 1,34,35
 350 331 350 331 311 304 c 128,-1,36
 272 277 272 277 267 254 c 0,37,38
 264 237 264 237 291 208 c 128,-1,39
 318 179 318 179 322 169 c 1,40,41
 341 134 341 134 334 102 c 0,0,1
EndSplineSet
EndChar

StartChar: ae
Encoding: 230 230 168
Width: 608
Flags: W
LayerCount: 2
Fore
SplineSet
517 48 m 1,0,-1
 513 15 l 1,1,2
 450 -9 450 -9 382 -9 c 0,3,4
 279 -9 279 -9 248 78 c 1,5,6
 202 -9 202 -9 89 -9 c 0,7,8
 45 -9 45 -9 18.5 16 c 128,-1,9
 -8 41 -8 41 1 85 c 0,10,11
 28 212 28 212 249 212 c 2,12,-1
 255 212 l 1,13,-1
 256 218 l 1,14,15
 263 251 263 251 253 276 c 1,16,17
 239 316 239 316 184 316 c 0,18,19
 149 316 149 316 71 293 c 1,20,-1
 73 329 l 1,21,22
 133 347 133 347 193 347 c 0,23,24
 285 347 285 347 296 271 c 1,25,26
 360 347 360 347 453 347 c 0,27,28
 596 347 596 347 561 168 c 1,29,-1
 283 168 l 1,30,31
 271 100 271 100 301.5 62.5 c 128,-1,32
 332 25 332 25 393 25 c 0,33,34
 453 25 453 25 517 48 c 1,0,-1
240 143 m 2,35,-1
 247 178 l 1,36,37
 61 178 61 178 43 92 c 0,38,39
 36 59 36 59 52.5 41.5 c 128,-1,40
 69 24 69 24 99 24 c 0,41,42
 143 24 143 24 178 47 c 0,43,44
 226 78 226 78 240 143 c 2,35,-1
292 199 m 1,45,-1
 531 199 l 1,46,47
 539 240 539 240 523 272 c 1,48,49
 503 316 503 316 442 316 c 0,50,51
 387 316 387 316 343 276 c 0,52,53
 308 244 308 244 292 199 c 1,45,-1
EndSplineSet
EndChar

StartChar: eth
Encoding: 240 240 178
Width: 362
Flags: W
LayerCount: 2
Fore
SplineSet
313 163 m 0,0,1
 298 90 298 90 251 42 c 0,2,3
 199 -12 199 -12 128 -12 c 0,4,5
 65 -12 65 -12 38 32 c 128,-1,6
 11 76 11 76 24 141 c 1,7,8
 38 204 38 204 84.5 249 c 128,-1,9
 131 294 131 294 190 294 c 0,10,11
 232 294 232 294 260 274 c 1,12,13
 279 258 279 258 281 244 c 1,14,15
 275 322 275 322 226 380 c 1,16,-1
 128 325 l 1,17,-1
 116 352 l 1,18,-1
 205 402 l 1,19,20
 167 436 167 436 119 451 c 1,21,-1
 129 480 l 1,22,23
 197 466 197 466 242 423 c 1,24,-1
 328 472 l 1,25,-1
 339 445 l 1,26,-1
 263 401 l 1,27,28
 276 386 276 386 286 368 c 0,29,30
 338 278 338 278 313 163 c 0,0,1
268 141 m 0,31,32
 279 191 279 191 256.5 226 c 128,-1,33
 234 261 234 261 191 261 c 0,34,35
 144 261 144 261 109.5 226 c 128,-1,36
 75 191 75 191 64 141 c 0,37,38
 54 92 54 92 73 57 c 128,-1,39
 92 22 92 22 140 22 c 0,40,41
 183 22 183 22 220.5 57 c 128,-1,42
 258 92 258 92 268 141 c 0,31,32
EndSplineSet
EndChar

StartChar: divide
Encoding: 247 247 185
Width: 411
Flags: W
LayerCount: 2
Fore
SplineSet
260 302 m 256,0,1
 257 288 257 288 245.5 277.5 c 128,-1,2
 234 267 234 267 220 267 c 0,3,4
 205 267 205 267 198.5 277.5 c 128,-1,5
 192 288 192 288 195 302 c 0,6,7
 199 316 199 316 210 326 c 128,-1,8
 221 336 221 336 235 336 c 256,9,10
 249 336 249 336 256 326 c 128,-1,11
 263 316 263 316 260 302 c 256,0,1
207 59 m 256,12,13
 204 45 204 45 193 35 c 128,-1,14
 182 25 182 25 168 25 c 0,15,16
 153 25 153 25 146.5 35 c 128,-1,17
 140 45 140 45 143 59 c 256,18,19
 146 73 146 73 157 83.5 c 128,-1,20
 168 94 168 94 183 94 c 0,21,22
 197 94 197 94 203.5 83.5 c 128,-1,23
 210 73 210 73 207 59 c 256,12,13
365 165 m 1,24,-1
 30 165 l 1,25,-1
 37 198 l 1,26,-1
 372 198 l 1,27,-1
 365 165 l 1,24,-1
EndSplineSet
EndChar

StartChar: oslash
Encoding: 248 248 186
Width: 398
Flags: W
LayerCount: 2
Fore
SplineSet
362 169 m 0,0,1
 346 94 346 94 288 42 c 128,-1,2
 230 -10 230 -10 153 -10 c 0,3,4
 109 -10 109 -10 74 10 c 1,5,-1
 41 -29 l 1,6,-1
 1 -29 l 1,7,-1
 50 30 l 1,8,9
 2 81 2 81 20 169 c 0,10,11
 36 244 36 244 94 295.5 c 128,-1,12
 152 347 152 347 229 347 c 0,13,14
 265 347 265 347 299 332 c 1,15,-1
 341 383 l 1,16,-1
 384 383 l 1,17,-1
 326 314 l 1,18,19
 382 263 382 263 362 169 c 0,0,1
324 169 m 0,20,21
 340 240 340 240 301 283 c 1,22,-1
 99 40 l 1,23,24
 124 23 124 23 160 23 c 0,25,26
 218 23 218 23 264.5 65 c 128,-1,27
 311 107 311 107 324 169 c 0,20,21
75 61 m 1,28,-1
 275 302 l 1,29,30
 252 314 252 314 222 314 c 0,31,32
 164 314 164 314 118 272.5 c 128,-1,33
 72 231 72 231 58 169 c 1,34,35
 45 104 45 104 75 61 c 1,28,-1
EndSplineSet
EndChar

StartChar: thorn
Encoding: 254 254 192
Width: 432
Flags: W
LayerCount: 2
Fore
SplineSet
395 176 m 0,0,1
 376 89 376 89 314 38 c 0,2,3
 256 -9 256 -9 182 -9 c 0,4,5
 100 -9 100 -9 67 53 c 1,6,-1
 26 -140 l 1,7,-1
 -11 -140 l 1,8,-1
 117 470 l 1,9,-1
 155 470 l 1,10,-1
 115 278 l 1,11,12
 180 347 180 347 268 347 c 0,13,14
 340 347 340 347 376 296 c 0,15,16
 410 248 410 248 395 176 c 0,0,1
358 175 m 0,17,18
 371 236 371 236 343 276 c 128,-1,19
 315 316 315 316 255 316 c 0,20,21
 164 316 164 316 113 233 c 0,22,23
 101 213 101 213 97 193 c 2,24,-1
 84 134 l 2,25,26
 82 124 82 124 83 104 c 1,27,28
 90 70 90 70 119 47 c 128,-1,29
 148 24 148 24 192 24 c 0,30,31
 251 24 251 24 297 64 c 128,-1,32
 343 104 343 104 358 175 c 0,17,18
EndSplineSet
EndChar

StartChar: dotlessi
Encoding: 305 305 194
Width: 143
Flags: W
LayerCount: 2
Fore
SplineSet
47 0 m 1,0,-1
 9 0 l 1,1,-1
 81 340 l 1,2,-1
 119 340 l 1,3,-1
 47 0 l 1,0,-1
EndSplineSet
EndChar

StartChar: Lslash
Encoding: 321 321 195
Width: 361
Flags: W
LayerCount: 2
Fore
SplineSet
290 0 m 1,0,-1
 17 0 l 1,1,-1
 58 194 l 1,2,-1
 23 184 l 1,3,-1
 20 215 l 1,4,-1
 65 228 l 1,5,-1
 118 476 l 1,6,-1
 157 476 l 1,7,-1
 107 241 l 1,8,-1
 338 310 l 1,9,-1
 331 273 l 1,10,-1
 99 207 l 1,11,-1
 63 33 l 1,12,-1
 297 33 l 1,13,-1
 290 0 l 1,0,-1
EndSplineSet
EndChar

StartChar: lslash
Encoding: 322 322 196
Width: 209
Flags: W
LayerCount: 2
Fore
SplineSet
194 268 m 1,0,-1
 187 233 l 1,1,-1
 99 206 l 1,2,-1
 95 186 l 1,3,4
 79 112 79 112 86 80 c 1,5,6
 94 29 94 29 152 27 c 1,7,-1
 141 -7 l 1,8,9
 16 -1 16 -1 53 171 c 2,10,-1
 58 194 l 1,11,-1
 23 184 l 1,12,-1
 20 215 l 1,13,-1
 65 228 l 1,14,-1
 124 505 l 1,15,-1
 163 505 l 1,16,-1
 107 241 l 1,17,-1
 194 268 l 1,0,-1
EndSplineSet
EndChar

StartChar: OE
Encoding: 338 338 197
Width: 711
Flags: W
LayerCount: 2
Fore
SplineSet
637 33 m 1,0,-1
 630 0 l 1,1,-1
 371 0 l 1,2,-1
 386 74 l 1,3,4
 305 -10 305 -10 197 -10 c 0,5,6
 99 -10 99 -10 52.5 60 c 128,-1,7
 6 130 6 130 29 237 c 256,8,9
 52 344 52 344 128 414 c 128,-1,10
 204 484 204 484 302 484 c 0,11,12
 410 484 410 484 456 400 c 1,13,-1
 472 476 l 1,14,-1
 731 476 l 1,15,-1
 724 443 l 1,16,-1
 504 443 l 1,17,-1
 466 268 l 1,18,-1
 662 268 l 1,19,-1
 655 235 l 1,20,-1
 459 235 l 1,21,-1
 417 33 l 1,22,-1
 637 33 l 1,0,-1
401 145 m 1,23,-1
 439 320 l 1,24,25
 442 369 442 369 400 409 c 0,26,27
 356 450 356 450 295 450 c 0,28,29
 215 450 215 450 151 387.5 c 128,-1,30
 87 325 87 325 68 237 c 256,31,32
 49 149 49 149 87 86.5 c 128,-1,33
 125 24 125 24 205 24 c 0,34,35
 262 24 262 24 314.5 57 c 128,-1,36
 367 90 367 90 401 145 c 1,23,-1
EndSplineSet
EndChar

StartChar: oe
Encoding: 339 339 198
Width: 679
Flags: W
LayerCount: 2
Fore
SplineSet
596 48 m 1,0,-1
 592 15 l 1,1,2
 529 -9 529 -9 461 -9 c 0,3,4
 351 -9 351 -9 323 81 c 1,5,6
 258 -10 258 -10 153 -10 c 0,7,8
 76 -10 76 -10 40 42 c 128,-1,9
 4 94 4 94 20 169 c 256,10,11
 36 244 36 244 94 295.5 c 128,-1,12
 152 347 152 347 229 347 c 0,13,14
 337 347 337 347 361 254 c 1,15,16
 424 347 424 347 532 347 c 0,17,18
 675 347 675 347 640 168 c 1,19,-1
 362 168 l 1,20,21
 347 97 347 97 378.5 61 c 128,-1,22
 410 25 410 25 472 25 c 0,23,24
 531 25 531 25 596 48 c 1,0,-1
324 169 m 0,25,26
 338 230 338 230 309.5 272 c 128,-1,27
 281 314 281 314 222 314 c 0,28,29
 164 314 164 314 118 272.5 c 128,-1,30
 72 231 72 231 58 169 c 0,31,32
 45 107 45 107 73.5 65 c 128,-1,33
 102 23 102 23 160 23 c 0,34,35
 217 23 217 23 263.5 64.5 c 128,-1,36
 310 106 310 106 324 169 c 0,25,26
610 199 m 1,37,38
 619 250 619 250 595.5 283 c 128,-1,39
 572 316 572 316 521 316 c 0,40,41
 472 316 472 316 431 283.5 c 128,-1,42
 390 251 390 251 371 199 c 1,43,-1
 610 199 l 1,37,38
EndSplineSet
EndChar

StartChar: florin
Encoding: 402 402 204
Width: 398
Flags: W
LayerCount: 2
Fore
SplineSet
460 446 m 1,0,-1
 437 418 l 1,1,2
 421 429 421 429 393 429 c 0,3,4
 315 429 315 429 259 302 c 1,5,-1
 247 276 l 1,6,-1
 345 276 l 1,7,-1
 333 245 l 1,8,-1
 235 245 l 1,9,-1
 167 88 l 2,10,11
 98 -72 98 -72 -21 -72 c 0,12,13
 -59 -72 -59 -72 -71 -56 c 1,14,-1
 -48 -28 l 1,15,16
 -32 -39 -32 -39 -4 -39 c 0,17,18
 73 -39 73 -39 128 88 c 2,19,-1
 196 245 l 1,20,-1
 139 245 l 1,21,-1
 151 276 l 1,22,-1
 209 276 l 1,23,-1
 221 302 l 1,24,25
 292 462 292 462 410 462 c 0,26,27
 448 462 448 462 460 446 c 1,0,-1
EndSplineSet
EndChar

StartChar: circumflex
Encoding: 710 710 205
Width: 212
Flags: W
LayerCount: 2
Fore
SplineSet
205 470 m 1,0,-1
 258 392 l 1,1,-1
 221 392 l 1,2,-1
 186 444 l 1,3,-1
 129 392 l 1,4,-1
 92 392 l 1,5,-1
 177 470 l 1,6,-1
 205 470 l 1,0,-1
EndSplineSet
EndChar

StartChar: caron
Encoding: 711 711 206
Width: 212
Flags: W
LayerCount: 2
Fore
SplineSet
158 384 m 1,0,-1
 130 384 l 1,1,-1
 78 462 l 1,2,-1
 115 462 l 1,3,-1
 150 410 l 1,4,-1
 207 462 l 1,5,-1
 244 462 l 1,6,-1
 158 384 l 1,0,-1
EndSplineSet
EndChar

StartChar: breve
Encoding: 728 728 207
Width: 302
Flags: W
LayerCount: 2
Fore
SplineSet
321 453 m 1,0,1
 310 426 310 426 287 409 c 0,2,3
 256 385 256 385 217 385 c 256,4,5
 178 385 178 385 156 409 c 1,6,7
 142 426 142 426 142 453 c 1,8,-1
 177 453 l 1,9,10
 178 442 178 442 184 434 c 0,11,12
 196 416 196 416 224 416 c 256,13,14
 252 416 252 416 271 434 c 0,15,16
 280 442 280 442 287 453 c 1,17,-1
 321 453 l 1,0,1
EndSplineSet
EndChar

StartChar: dotaccent
Encoding: 729 729 208
Width: 302
Flags: W
LayerCount: 2
Fore
SplineSet
256 540 m 256,0,1
 253 526 253 526 241 516.5 c 128,-1,2
 229 507 229 507 214 507 c 0,3,4
 200 507 200 507 192.5 516.5 c 128,-1,5
 185 526 185 526 188 540 c 256,6,7
 191 554 191 554 203 564.5 c 128,-1,8
 215 575 215 575 229 575 c 0,9,10
 244 575 244 575 251.5 564.5 c 128,-1,11
 259 554 259 554 256 540 c 256,0,1
EndSplineSet
EndChar

StartChar: ring
Encoding: 730 730 209
Width: 302
Flags: W
LayerCount: 2
Fore
SplineSet
307 440 m 0,0,1
 301 411 301 411 275 389.5 c 128,-1,2
 249 368 249 368 218 368 c 0,3,4
 189 368 189 368 172 389.5 c 128,-1,5
 155 411 155 411 161 440 c 0,6,7
 168 471 168 471 194 493 c 128,-1,8
 220 515 220 515 249 515 c 0,9,10
 280 515 280 515 297 493 c 128,-1,11
 314 471 314 471 307 440 c 0,0,1
278 439 m 0,12,13
 282 458 282 458 272 470.5 c 128,-1,14
 262 483 262 483 243 483 c 0,15,16
 225 483 225 483 210.5 470.5 c 128,-1,17
 196 458 196 458 192 439 c 0,18,19
 188 422 188 422 197.5 410 c 128,-1,20
 207 398 207 398 225 398 c 0,21,22
 244 398 244 398 259 410 c 128,-1,23
 274 422 274 422 278 439 c 0,12,13
EndSplineSet
EndChar

StartChar: ogonek
Encoding: 731 731 210
Width: 302
Flags: W
LayerCount: 2
Fore
SplineSet
144 -143 m 1,0,1
 123 -151 123 -151 106.5 -154.5 c 128,-1,2
 90 -158 90 -158 73 -158 c 0,3,4
 37 -158 37 -158 24.5 -136.5 c 128,-1,5
 12 -115 12 -115 18 -86 c 0,6,7
 22 -68 22 -68 32 -45 c 128,-1,8
 42 -22 42 -22 55 4 c 1,9,-1
 95 4 l 1,10,11
 66 -45 66 -45 59 -76 c 0,12,13
 50 -119 50 -119 89 -122 c 1,14,15
 119 -122 119 -122 151 -107 c 1,16,-1
 144 -143 l 1,0,1
EndSplineSet
EndChar

StartChar: tilde
Encoding: 732 732 211
Width: 212
Flags: W
LayerCount: 2
Fore
SplineSet
247 457 m 1,0,1
 240 431 240 431 223.5 413 c 128,-1,2
 207 395 207 395 184 395 c 0,3,4
 175 395 175 395 165.5 399.5 c 128,-1,5
 156 404 156 404 146.5 409 c 128,-1,6
 137 414 137 414 128.5 418.5 c 128,-1,7
 120 423 120 423 113 423 c 0,8,9
 105 423 105 423 98.5 414 c 128,-1,10
 92 405 92 405 88 391 c 1,11,-1
 63 391 l 1,12,13
 69 415 69 415 82.5 435 c 128,-1,14
 96 455 96 455 119 455 c 0,15,16
 129 455 129 455 138 450.5 c 128,-1,17
 147 446 147 446 156 440 c 128,-1,18
 165 434 165 434 174 429.5 c 128,-1,19
 183 425 183 425 194 425 c 0,20,21
 201 425 201 425 208.5 432.5 c 128,-1,22
 216 440 216 440 221 457 c 1,23,-1
 247 457 l 1,0,1
EndSplineSet
EndChar

StartChar: hungarumlaut
Encoding: 733 733 212
Width: 279
Flags: W
LayerCount: 2
Fore
SplineSet
183 330 m 1,0,-1
 156 330 l 1,1,-1
 249 491 l 1,2,-1
 296 491 l 1,3,-1
 183 330 l 1,0,-1
96 330 m 1,4,-1
 69 330 l 1,5,-1
 162 491 l 1,6,-1
 209 491 l 1,7,-1
 96 330 l 1,4,-1
EndSplineSet
EndChar

StartChar: uni0E01
Encoding: 3585 3585 214
Width: 386
Flags: W
LayerCount: 2
Fore
SplineSet
294 34 m 1,0,1
 282 -13 282 -13 246 -37 c 1,2,-1
 218 -19 l 1,3,4
 252 7 252 7 261 47 c 2,5,-1
 306 261 l 2,6,7
 316 310 316 310 292 339 c 128,-1,8
 268 368 268 368 220 368 c 0,9,10
 186 368 186 368 150 349 c 128,-1,11
 114 330 114 330 95 300 c 1,12,13
 153 295 153 295 167 256 c 1,14,15
 142 251 142 251 119.5 229.5 c 128,-1,16
 97 208 97 208 91 182 c 2,17,-1
 53 0 l 1,18,-1
 17 0 l 1,19,-1
 55 181 l 2,20,21
 68 240 68 240 124 261 c 1,22,23
 94 277 94 277 50 272 c 1,24,25
 70 328 70 328 120.5 364 c 128,-1,26
 171 400 171 400 229 400 c 0,27,28
 294 400 294 400 325 364 c 128,-1,29
 356 328 356 328 343 265 c 2,30,-1
 294 34 l 1,0,1
EndSplineSet
EndChar

StartChar: uni0E02
Encoding: 3586 3586 215
Width: 378
Flags: W
LayerCount: 2
Fore
SplineSet
129 289 m 256,0,1
 132 303 132 303 125 312 c 128,-1,2
 118 321 118 321 104 321 c 256,3,4
 90 321 90 321 79 312 c 128,-1,5
 68 303 68 303 65 289 c 256,6,7
 62 275 62 275 69 266 c 128,-1,8
 76 257 76 257 90 257 c 256,9,10
 104 257 104 257 115 266 c 128,-1,11
 126 275 126 275 129 289 c 256,0,1
296 83 m 2,12,13
 277 -8 277 -8 185 -8 c 0,14,15
 95 -8 95 -8 114 83 c 2,16,-1
 134 178 l 2,17,18
 140 203 140 203 174 246 c 128,-1,19
 208 289 208 289 213 313 c 0,20,21
 218 336 218 336 202 353.5 c 128,-1,22
 186 371 186 371 158 371 c 0,23,24
 114 371 114 371 85 342 c 1,25,26
 95 346 95 346 109 346 c 0,27,28
 135 346 135 346 148 329.5 c 128,-1,29
 161 313 161 313 156 288 c 0,30,31
 150 262 150 262 130 244.5 c 128,-1,32
 110 227 110 227 84 227 c 0,33,34
 53 227 53 227 41.5 250 c 128,-1,35
 30 273 30 273 37 306 c 0,36,37
 44 343 44 343 79 371.5 c 128,-1,38
 114 400 114 400 165 400 c 0,39,40
 209 400 209 400 232.5 378 c 128,-1,41
 256 356 256 356 248 318 c 0,42,43
 242 289 242 289 208 242 c 128,-1,44
 174 195 174 195 169 173 c 2,45,-1
 150 80 l 2,46,47
 138 24 138 24 193 24 c 256,48,49
 248 24 248 24 260 80 c 2,50,-1
 321 367 l 2,51,52
 329 405 329 405 350 427 c 1,53,-1
 378 409 l 1,54,55
 364 397 364 397 354 354 c 2,56,-1
 296 83 l 2,12,13
EndSplineSet
EndChar

StartChar: uni0E03
Encoding: 3587 3587 216
Width: 382
Flags: W
LayerCount: 2
Fore
SplineSet
124 249 m 256,0,1
 127 263 127 263 120 272 c 128,-1,2
 113 281 113 281 99 281 c 256,3,4
 85 281 85 281 74 272 c 128,-1,5
 63 263 63 263 60 249 c 256,6,7
 57 235 57 235 64.5 226 c 128,-1,8
 72 217 72 217 86 217 c 256,9,10
 100 217 100 217 110.5 226 c 128,-1,11
 121 235 121 235 124 249 c 256,0,1
300 83 m 2,12,13
 281 -8 281 -8 189 -8 c 0,14,15
 99 -8 99 -8 118 83 c 1,16,-1
 132 146 l 1,17,18
 138 178 138 178 178.5 226.5 c 128,-1,19
 219 275 219 275 226 306 c 0,20,21
 237 358 237 358 200 366 c 1,22,-1
 156 324 l 1,23,-1
 129 365 l 1,24,25
 92 343 92 343 74 307 c 1,26,27
 89 313 89 313 107 313 c 0,28,29
 136 313 136 313 149 294.5 c 128,-1,30
 162 276 162 276 156 248 c 0,31,32
 150 219 150 219 127.5 201 c 128,-1,33
 105 183 105 183 78 183 c 0,34,35
 44 183 44 183 32 211 c 0,36,37
 22 236 22 236 29 272 c 0,38,39
 38 315 38 315 70 352 c 0,40,41
 105 393 105 393 148 401 c 1,42,-1
 165 366 l 1,43,-1
 200 401 l 1,44,45
 235 397 235 397 252 367 c 1,46,47
 266 339 266 339 258 303 c 0,48,49
 251 272 251 272 212 222 c 128,-1,50
 173 172 173 172 167 143 c 2,51,-1
 154 80 l 2,52,53
 142 24 142 24 197 24 c 256,54,55
 252 24 252 24 264 80 c 2,56,-1
 325 367 l 2,57,58
 333 405 333 405 354 427 c 1,59,-1
 382 409 l 1,60,61
 368 397 368 397 358 354 c 2,62,-1
 300 83 l 2,12,13
EndSplineSet
EndChar

StartChar: uni0E04
Encoding: 3588 3588 217
Width: 393
Flags: W
LayerCount: 2
Fore
SplineSet
301 34 m 1,0,1
 289 -13 289 -13 253 -37 c 1,2,-1
 225 -19 l 1,3,4
 259 7 259 7 268 47 c 2,5,-1
 315 269 l 2,6,7
 325 317 325 317 295 342.5 c 128,-1,8
 265 368 265 368 220 368 c 0,9,10
 174 368 174 368 132.5 336.5 c 128,-1,11
 91 305 91 305 82 259 c 0,12,13
 77 237 77 237 78 206 c 0,14,15
 80 162 80 162 80 156 c 1,16,17
 101 213 101 213 131 253 c 0,18,19
 171 305 171 305 215 305 c 0,20,21
 240 305 240 305 253 289 c 128,-1,22
 266 273 266 273 260 246 c 0,23,24
 254 221 254 221 233.5 203.5 c 128,-1,25
 213 186 213 186 188 186 c 0,26,27
 162 186 162 186 147 210 c 1,28,29
 129 189 129 189 106 150 c 0,30,31
 79 102 79 102 71 65 c 2,32,-1
 58 0 l 1,33,-1
 22 0 l 1,34,-1
 41 92 l 2,35,36
 47 121 47 121 42.5 174 c 128,-1,37
 38 227 38 227 44 255 c 0,38,39
 58 320 58 320 110.5 360 c 128,-1,40
 163 400 163 400 229 400 c 0,41,42
 290 400 290 400 327.5 367.5 c 128,-1,43
 365 335 365 335 351 272 c 2,44,-1
 301 34 l 1,0,1
232 246 m 256,45,46
 235 259 235 259 227.5 268 c 128,-1,47
 220 277 220 277 207 277 c 256,48,49
 194 277 194 277 183.5 268 c 128,-1,50
 173 259 173 259 170 246 c 256,51,52
 167 233 167 233 174 224 c 128,-1,53
 181 215 181 215 194 215 c 256,54,55
 207 215 207 215 218 224 c 128,-1,56
 229 233 229 233 232 246 c 256,45,46
EndSplineSet
EndChar

StartChar: uni0E05
Encoding: 3589 3589 218
Width: 393
Flags: W
LayerCount: 2
Fore
SplineSet
301 34 m 1,0,1
 289 -13 289 -13 253 -37 c 1,2,-1
 225 -19 l 1,3,4
 259 7 259 7 268 47 c 2,5,-1
 317 280 l 2,6,7
 331 349 331 349 268 365 c 1,8,-1
 209 311 l 1,9,-1
 167 366 l 1,10,11
 132 349 132 349 107 314 c 0,12,13
 89 288 89 288 84 265 c 0,14,15
 77 231 77 231 78 146 c 1,16,17
 133 282 133 282 208 282 c 0,18,19
 234 282 234 282 247 266 c 128,-1,20
 260 250 260 250 254 224 c 0,21,22
 249 199 249 199 229 182 c 128,-1,23
 209 165 209 165 185 165 c 0,24,25
 153 165 153 165 137 188 c 1,26,27
 121 174 121 174 101 135 c 0,28,29
 79 92 79 92 71 54 c 2,30,-1
 60 0 l 1,31,-1
 24 0 l 1,32,-1
 41 80 l 2,33,34
 47 111 47 111 42.5 169 c 128,-1,35
 38 227 38 227 44 257 c 0,36,37
 69 372 69 372 184 402 c 1,38,-1
 217 351 l 1,39,-1
 268 402 l 1,40,41
 373 380 373 380 353 282 c 2,42,-1
 301 34 l 1,0,1
227 224 m 256,43,44
 230 237 230 237 223 246 c 128,-1,45
 216 255 216 255 203 255 c 256,46,47
 190 255 190 255 179 246 c 128,-1,48
 168 237 168 237 165 224 c 256,49,50
 162 211 162 211 169.5 202 c 128,-1,51
 177 193 177 193 190 193 c 256,52,53
 203 193 203 193 213.5 202 c 128,-1,54
 224 211 224 211 227 224 c 256,43,44
EndSplineSet
EndChar

StartChar: uni0E06
Encoding: 3590 3590 219
Width: 408
Flags: W
LayerCount: 2
Fore
SplineSet
144 61 m 256,0,1
 147 75 147 75 139 85.5 c 128,-1,2
 131 96 131 96 117 96 c 256,3,4
 103 96 103 96 90 85.5 c 128,-1,5
 77 75 77 75 74 61 c 256,6,7
 71 47 71 47 79.5 36.5 c 128,-1,8
 88 26 88 26 102 26 c 256,9,10
 116 26 116 26 128.5 36.5 c 128,-1,11
 141 47 141 47 144 61 c 256,0,1
124 249 m 256,12,13
 127 263 127 263 120 272 c 128,-1,14
 113 281 113 281 99 281 c 256,15,16
 85 281 85 281 74 272 c 128,-1,17
 63 263 63 263 60 249 c 256,18,19
 57 235 57 235 64.5 226 c 128,-1,20
 72 217 72 217 86 217 c 256,21,22
 100 217 100 217 110.5 226 c 128,-1,23
 121 235 121 235 124 249 c 256,12,13
309 0 m 1,24,-1
 273 0 l 1,25,26
 247 82 247 82 172 99 c 1,27,28
 182 83 182 83 177 61 c 0,29,30
 171 32 171 32 147.5 12 c 128,-1,31
 124 -8 124 -8 95 -8 c 0,32,33
 65 -8 65 -8 49.5 12 c 128,-1,34
 34 32 34 32 40 61 c 0,35,36
 47 90 47 90 71 109.5 c 128,-1,37
 95 129 95 129 124 129 c 2,38,-1
 128 129 l 1,39,-1
 132 146 l 1,40,41
 138 178 138 178 178.5 226.5 c 128,-1,42
 219 275 219 275 226 306 c 0,43,44
 237 358 237 358 200 366 c 1,45,-1
 156 324 l 1,46,-1
 129 365 l 1,47,48
 92 343 92 343 74 307 c 1,49,50
 89 313 89 313 107 313 c 0,51,52
 136 313 136 313 149 294.5 c 128,-1,53
 162 276 162 276 156 248 c 0,54,55
 150 219 150 219 127.5 201 c 128,-1,56
 105 183 105 183 78 183 c 0,57,58
 44 183 44 183 32 211 c 0,59,60
 22 236 22 236 29 272 c 0,61,62
 38 315 38 315 70 352 c 0,63,64
 105 393 105 393 148 401 c 1,65,-1
 165 366 l 1,66,-1
 200 401 l 1,67,68
 235 397 235 397 250.5 369.5 c 128,-1,69
 266 342 266 342 258 303 c 0,70,71
 251 272 251 272 212 222 c 128,-1,72
 173 172 173 172 167 143 c 2,73,-1
 164 128 l 1,74,75
 251 118 251 118 284 54 c 1,76,-1
 351 367 l 2,77,78
 359 405 359 405 380 427 c 1,79,-1
 408 409 l 1,80,81
 394 397 394 397 384 354 c 2,82,-1
 309 0 l 1,24,-1
EndSplineSet
EndChar

StartChar: uni0E07
Encoding: 3591 3591 220
Width: 294
Flags: W
LayerCount: 2
Fore
SplineSet
233 335 m 256,0,1
 236 349 236 349 228 359 c 128,-1,2
 220 369 220 369 206 369 c 256,3,4
 192 369 192 369 180 359 c 128,-1,5
 168 349 168 349 165 335 c 256,6,7
 162 321 162 321 169.5 311 c 128,-1,8
 177 301 177 301 191 301 c 256,9,10
 205 301 205 301 217.5 311 c 128,-1,11
 230 321 230 321 233 335 c 256,0,1
195 0 m 1,12,-1
 159 0 l 1,13,-1
 39 176 l 2,14,15
 27 195 27 195 23 219 c 1,16,-1
 47 248 l 1,17,18
 53 219 53 219 70 192 c 1,19,-1
 169 51 l 1,20,-1
 217 275 l 1,21,22
 201 268 201 268 184 268 c 0,23,24
 157 268 157 268 142 287.5 c 128,-1,25
 127 307 127 307 132 333 c 0,26,27
 138 362 138 362 161.5 381 c 128,-1,28
 185 400 185 400 213 400 c 0,29,30
 245 400 245 400 259 379 c 0,31,32
 271 360 271 360 265 333 c 2,33,-1
 195 0 l 1,12,-1
EndSplineSet
EndChar

StartChar: uni0E08
Encoding: 3592 3592 221
Width: 367
Flags: W
LayerCount: 2
Fore
SplineSet
281 65 m 2,0,1
 266 -9 266 -9 195 -9 c 0,2,3
 139 -9 139 -9 142 47 c 2,4,-1
 149 159 l 1,5,6
 132 150 132 150 113 150 c 0,7,8
 88 150 88 150 75 167 c 128,-1,9
 62 184 62 184 67 209 c 0,10,11
 72 235 72 235 93 252.5 c 128,-1,12
 114 270 114 270 139 270 c 0,13,14
 161 270 161 270 175 255.5 c 128,-1,15
 189 241 189 241 188 219 c 2,16,-1
 181 49 l 2,17,18
 180 24 180 24 204 24 c 0,19,20
 237 24 237 24 244 60 c 2,21,-1
 294 295 l 2,22,23
 302 334 302 334 275 350.5 c 128,-1,24
 248 367 248 367 207 367 c 0,25,26
 162 367 162 367 128 348 c 128,-1,27
 94 329 94 329 80 296 c 1,28,-1
 43 296 l 1,29,30
 57 338 57 338 97 366 c 0,31,32
 146 400 146 400 213 400 c 0,33,34
 353 400 353 400 330 295 c 2,35,-1
 281 65 l 2,0,1
158 209 m 256,36,37
 161 222 161 222 154 231 c 128,-1,38
 147 240 147 240 134 240 c 256,39,40
 121 240 121 240 110.5 231 c 128,-1,41
 100 222 100 222 97 209 c 256,42,43
 94 196 94 196 101 187.5 c 128,-1,44
 108 179 108 179 121 179 c 256,45,46
 134 179 134 179 144.5 187.5 c 128,-1,47
 155 196 155 196 158 209 c 256,36,37
EndSplineSet
EndChar

StartChar: uni0E09
Encoding: 3593 3593 222
Width: 377
Flags: W
LayerCount: 2
Fore
SplineSet
307 55 m 0,0,1
 302 29 302 29 281 11 c 128,-1,2
 260 -7 260 -7 231 -7 c 0,3,4
 205 -7 205 -7 191 11 c 128,-1,5
 177 29 177 29 182 55 c 0,6,7
 184 64 184 64 186 68 c 1,8,9
 124 44 124 44 85 0 c 1,10,-1
 40 0 l 1,11,-1
 59 93 l 2,12,13
 65 122 65 122 76 137 c 1,14,-1
 72 137 l 2,15,16
 47 137 47 137 33 154.5 c 128,-1,17
 19 172 19 172 24 197 c 0,18,19
 30 223 30 223 51 240.5 c 128,-1,20
 72 258 72 258 97 258 c 0,21,22
 123 258 123 258 137 240.5 c 128,-1,23
 151 223 151 223 145 197 c 0,24,25
 141 178 141 178 121 149.5 c 128,-1,26
 101 121 101 121 97 99 c 2,27,-1
 83 35 l 1,28,29
 126 83 126 83 207 106 c 1,30,31
 270 132 270 132 282 192 c 1,32,-1
 304 292 l 2,33,34
 311 327 311 327 280 349 c 0,35,36
 253 367 253 367 212 367 c 0,37,38
 174 367 174 367 138 349 c 0,39,40
 97 328 97 328 82 294 c 1,41,-1
 45 294 l 1,42,43
 57 336 57 336 100 366 c 0,44,45
 150 400 150 400 217 400 c 0,46,47
 282 400 282 400 315 374 c 0,48,49
 351 345 351 345 339 291 c 2,50,-1
 318 190 l 2,51,52
 308 142 308 142 275 115 c 1,53,54
 317 101 317 101 307 55 c 0,0,1
278 55 m 0,55,56
 281 69 281 69 273.5 78.5 c 128,-1,57
 266 88 266 88 252 88 c 0,58,59
 239 88 239 88 227 78.5 c 128,-1,60
 215 69 215 69 212 55 c 0,61,62
 209 42 209 42 217 32 c 128,-1,63
 225 22 225 22 238 22 c 0,64,65
 252 22 252 22 263.5 32 c 128,-1,66
 275 42 275 42 278 55 c 0,55,56
115 197 m 0,67,68
 118 210 118 210 111.5 218.5 c 128,-1,69
 105 227 105 227 92 227 c 256,70,71
 79 227 79 227 68.5 218.5 c 128,-1,72
 58 210 58 210 55 197 c 0,73,74
 53 184 53 184 59.5 175.5 c 128,-1,75
 66 167 66 167 79 167 c 256,76,77
 92 167 92 167 102.5 175.5 c 128,-1,78
 113 184 113 184 115 197 c 0,67,68
EndSplineSet
EndChar

StartChar: uni0E0A
Encoding: 3594 3594 223
Width: 380
Flags: W
LayerCount: 2
Fore
SplineSet
298 83 m 2,0,1
 279 -8 279 -8 186 -8 c 0,2,3
 95 -8 95 -8 114 83 c 2,4,-1
 134 178 l 2,5,6
 140 203 140 203 174 246 c 128,-1,7
 208 289 208 289 213 313 c 0,8,9
 218 336 218 336 202 353.5 c 128,-1,10
 186 371 186 371 158 371 c 0,11,12
 114 371 114 371 85 342 c 1,13,14
 95 346 95 346 109 346 c 0,15,16
 135 346 135 346 148 329.5 c 128,-1,17
 161 313 161 313 156 288 c 0,18,19
 150 262 150 262 130 244.5 c 128,-1,20
 110 227 110 227 84 227 c 0,21,22
 53 227 53 227 41.5 250 c 128,-1,23
 30 273 30 273 37 306 c 0,24,25
 44 343 44 343 79 371.5 c 128,-1,26
 114 400 114 400 165 400 c 0,27,28
 209 400 209 400 232.5 378 c 128,-1,29
 256 356 256 356 248 318 c 0,30,31
 242 289 242 289 208 242 c 128,-1,32
 174 195 174 195 169 173 c 2,33,-1
 150 80 l 2,34,35
 138 24 138 24 194 24 c 256,36,37
 250 24 250 24 262 80 c 2,38,-1
 296 241 l 2,39,40
 305 285 305 285 265 300 c 1,41,42
 281 346 281 346 316 381.5 c 128,-1,43
 351 417 351 417 401 427 c 1,44,-1
 419 402 l 1,45,46
 340 388 340 388 303 313 c 1,47,48
 344 297 344 297 333 245 c 2,49,-1
 298 83 l 2,0,1
129 289 m 256,50,51
 132 303 132 303 125 312 c 128,-1,52
 118 321 118 321 104 321 c 256,53,54
 90 321 90 321 79 312 c 128,-1,55
 68 303 68 303 65 289 c 256,56,57
 62 275 62 275 69 266 c 128,-1,58
 76 257 76 257 90 257 c 256,59,60
 104 257 104 257 115 266 c 128,-1,61
 126 275 126 275 129 289 c 256,50,51
EndSplineSet
EndChar

StartChar: uni0E0B
Encoding: 3595 3595 224
Width: 384
Flags: W
LayerCount: 2
Fore
SplineSet
124 249 m 256,0,1
 127 263 127 263 120 272 c 128,-1,2
 113 281 113 281 99 281 c 256,3,4
 85 281 85 281 74 272 c 128,-1,5
 63 263 63 263 60 249 c 256,6,7
 57 235 57 235 64.5 226 c 128,-1,8
 72 217 72 217 86 217 c 256,9,10
 100 217 100 217 110.5 226 c 128,-1,11
 121 235 121 235 124 249 c 256,0,1
302 83 m 2,12,13
 283 -8 283 -8 190 -8 c 0,14,15
 99 -8 99 -8 118 83 c 1,16,-1
 132 146 l 1,17,18
 138 178 138 178 178.5 226.5 c 128,-1,19
 219 275 219 275 226 306 c 0,20,21
 237 358 237 358 200 366 c 1,22,-1
 156 324 l 1,23,-1
 129 365 l 1,24,25
 92 343 92 343 74 307 c 1,26,27
 89 313 89 313 107 313 c 0,28,29
 136 313 136 313 149 294.5 c 128,-1,30
 162 276 162 276 156 248 c 0,31,32
 150 219 150 219 127.5 201 c 128,-1,33
 105 183 105 183 78 183 c 0,34,35
 44 183 44 183 32 211 c 0,36,37
 22 236 22 236 29 272 c 0,38,39
 38 315 38 315 70 352 c 0,40,41
 105 393 105 393 148 401 c 1,42,-1
 165 366 l 1,43,-1
 200 401 l 1,44,45
 235 397 235 397 252 367 c 1,46,47
 266 339 266 339 258 303 c 0,48,49
 251 272 251 272 212 222 c 128,-1,50
 173 172 173 172 167 143 c 2,51,-1
 154 81 l 2,52,53
 142 24 142 24 198 24 c 256,54,55
 254 24 254 24 266 80 c 2,56,-1
 300 241 l 2,57,58
 309 285 309 285 269 300 c 1,59,60
 285 346 285 346 320 381.5 c 128,-1,61
 355 417 355 417 405 427 c 1,62,-1
 423 402 l 1,63,64
 344 388 344 388 307 313 c 1,65,66
 348 297 348 297 337 245 c 2,67,-1
 302 83 l 2,12,13
EndSplineSet
EndChar

StartChar: uni0E0C
Encoding: 3596 3596 225
Width: 519
Flags: W
LayerCount: 2
Fore
SplineSet
420 0 m 1,0,-1
 383 0 l 1,1,2
 366 37 366 37 317 70 c 1,3,4
 318 62 318 62 317 57 c 0,5,6
 311 30 311 30 289.5 10.5 c 128,-1,7
 268 -9 268 -9 237 -9 c 0,8,9
 210 -9 210 -9 194.5 10.5 c 128,-1,10
 179 30 179 30 185 57 c 0,11,12
 190 83 190 83 211.5 102 c 128,-1,13
 233 121 233 121 259 123 c 1,14,-1
 289 265 l 2,15,16
 311 368 311 368 208 368 c 0,17,18
 176 368 176 368 143 348.5 c 128,-1,19
 110 329 110 329 93 299 c 1,20,21
 148 295 148 295 164 255 c 1,22,23
 139 250 139 250 116.5 229 c 128,-1,24
 94 208 94 208 88 182 c 2,25,-1
 75 119 l 1,26,27
 85 123 85 123 99 123 c 0,28,29
 126 123 126 123 141 103.5 c 128,-1,30
 156 84 156 84 151 57 c 0,31,32
 145 30 145 30 122.5 10.5 c 128,-1,33
 100 -9 100 -9 71 -9 c 256,34,35
 42 -9 42 -9 27.5 10.5 c 128,-1,36
 13 30 13 30 19 57 c 0,37,38
 22 73 22 73 32 86 c 1,39,-1
 52 181 l 2,40,41
 63 235 63 235 121 260 c 1,42,43
 86 275 86 275 44 271 c 1,44,45
 65 327 65 327 113.5 363.5 c 128,-1,46
 162 400 162 400 217 400 c 0,47,48
 280 400 280 400 309.5 365.5 c 128,-1,49
 339 331 339 331 326 269 c 2,50,-1
 294 119 l 1,51,52
 370 91 370 91 393 47 c 1,53,-1
 462 367 l 2,54,55
 470 405 470 405 491 427 c 1,56,-1
 519 409 l 1,57,58
 505 397 505 397 495 354 c 2,59,-1
 420 0 l 1,0,-1
284 57 m 256,60,61
 287 71 287 71 279 81 c 128,-1,62
 271 91 271 91 257 91 c 256,63,64
 243 91 243 91 231.5 81 c 128,-1,65
 220 71 220 71 217 57 c 256,66,67
 214 43 214 43 221.5 33.5 c 128,-1,68
 229 24 229 24 243 24 c 256,69,70
 257 24 257 24 269 33.5 c 128,-1,71
 281 43 281 43 284 57 c 256,60,61
119 57 m 256,72,73
 122 71 122 71 114 81 c 128,-1,74
 106 91 106 91 92 91 c 256,75,76
 78 91 78 91 66.5 81 c 128,-1,77
 55 71 55 71 52 57 c 256,78,79
 49 43 49 43 56.5 33.5 c 128,-1,80
 64 24 64 24 78 24 c 256,81,82
 92 24 92 24 104 33.5 c 128,-1,83
 116 43 116 43 119 57 c 256,72,73
EndSplineSet
EndChar

StartChar: uni0E0D
Encoding: 3597 3597 226
Width: 519
Flags: W
LayerCount: 2
Fore
SplineSet
427 -34 m 1,0,1
 413 -94 413 -94 375 -132.5 c 128,-1,2
 337 -171 337 -171 274 -171 c 0,3,4
 234 -171 234 -171 207.5 -146 c 128,-1,5
 181 -121 181 -121 189 -84 c 0,6,7
 193 -62 193 -62 212.5 -46 c 128,-1,8
 232 -30 232 -30 254 -30 c 0,9,10
 277 -30 277 -30 289.5 -46 c 128,-1,11
 302 -62 302 -62 298 -84 c 0,12,13
 290 -121 290 -121 252 -135 c 1,14,15
 262 -142 262 -142 279 -142 c 0,16,17
 365 -142 365 -142 390 -34 c 1,18,-1
 427 -34 l 1,0,1
271 -84 m 0,19,20
 273 -73 273 -73 266.5 -65 c 128,-1,21
 260 -57 260 -57 249 -57 c 256,22,23
 238 -57 238 -57 228.5 -65 c 128,-1,24
 219 -73 219 -73 217 -84 c 0,25,26
 214 -95 214 -95 220.5 -103 c 128,-1,27
 227 -111 227 -111 238 -111 c 256,28,29
 249 -111 249 -111 258.5 -103 c 128,-1,30
 268 -95 268 -95 271 -84 c 0,19,20
126 57 m 256,31,32
 129 71 129 71 121 81 c 128,-1,33
 113 91 113 91 99 91 c 256,34,35
 85 91 85 91 73.5 81 c 128,-1,36
 62 71 62 71 59 57 c 256,37,38
 56 43 56 43 63.5 33.5 c 128,-1,39
 71 24 71 24 85 24 c 256,40,41
 99 24 99 24 111 33.5 c 128,-1,42
 123 43 123 43 126 57 c 256,31,32
437 82 m 2,43,44
 418 -8 418 -8 320 -8 c 0,45,46
 223 -8 223 -8 242 83 c 2,47,-1
 281 265 l 2,48,49
 303 368 303 368 206 368 c 0,50,51
 174 368 174 368 142.5 349 c 128,-1,52
 111 330 111 330 93 299 c 1,53,54
 148 295 148 295 164 255 c 1,55,56
 139 250 139 250 116.5 229 c 128,-1,57
 94 208 94 208 88 182 c 2,58,-1
 74 117 l 1,59,60
 89 123 89 123 106 123 c 0,61,62
 134 123 134 123 149 104 c 128,-1,63
 164 85 164 85 158 58 c 256,64,65
 152 31 152 31 132.5 11 c 128,-1,66
 113 -9 113 -9 78 -9 c 0,67,68
 49 -9 49 -9 34 9.5 c 128,-1,69
 19 28 19 28 26 59 c 2,70,-1
 52 181 l 2,71,72
 63 235 63 235 121 260 c 1,73,74
 86 275 86 275 44 271 c 1,75,76
 65 327 65 327 112.5 363.5 c 128,-1,77
 160 400 160 400 215 400 c 0,78,79
 277 400 277 400 304 366 c 128,-1,80
 331 332 331 332 318 269 c 2,81,-1
 278 80 l 2,82,83
 266 24 266 24 328 24 c 0,84,85
 389 24 389 24 401 80 c 2,86,-1
 462 367 l 2,87,88
 470 405 470 405 491 427 c 1,89,-1
 519 409 l 1,90,91
 505 397 505 397 495 354 c 2,92,-1
 437 82 l 2,43,44
EndSplineSet
Substitution2: "<23,16000>  in Thai lookup 65 nested-substitutions 7 subtable" uni0E0D.alt1
Substitution2: "Single Substitution lookup 58 subtable" uni0E0D.alt1
EndChar

StartChar: uni0E0E
Encoding: 3598 3598 227
Width: 425
Flags: W
LayerCount: 2
Fore
SplineSet
280 -215 m 1,0,-1
 240 -215 l 1,1,2
 237 -191 237 -191 204.5 -167 c 128,-1,3
 172 -143 172 -143 144 -135 c 1,4,-1
 142 -142 l 1,5,6
 136 -174 136 -174 112 -196.5 c 128,-1,7
 88 -219 88 -219 56 -219 c 0,8,9
 26 -219 26 -219 13 -201.5 c 128,-1,10
 0 -184 0 -184 5 -158 c 0,11,12
 12 -127 12 -127 37.5 -109 c 128,-1,13
 63 -91 63 -91 94 -91 c 0,14,15
 99 -91 99 -91 120 -94 c 1,16,17
 131 -57 131 -57 168 -38 c 1,18,-1
 192 -54 l 1,19,20
 158 -73 158 -73 151 -102 c 1,21,22
 225 -130 225 -130 254 -169 c 1,23,-1
 345 260 l 2,24,25
 355 309 355 309 331 338.5 c 128,-1,26
 307 368 307 368 259 368 c 0,27,28
 225 368 225 368 189 348.5 c 128,-1,29
 153 329 153 329 135 299 c 1,30,31
 187 294 187 294 207 255 c 1,32,33
 149 237 149 237 137 182 c 0,34,35
 129 143 129 143 129 102 c 0,36,37
 129 84 129 84 124 60 c 0,38,39
 118 31 118 31 94.5 11.5 c 128,-1,40
 71 -8 71 -8 44 -8 c 256,41,42
 17 -8 17 -8 2.5 11 c 128,-1,43
 -12 30 -12 30 -6 57 c 0,44,45
 -1 84 -1 84 22 103.5 c 128,-1,46
 45 123 45 123 72 123 c 0,47,48
 83 123 83 123 95 118 c 1,49,50
 98 164 98 164 103 188 c 0,51,52
 113 234 113 234 159 260 c 1,53,54
 134 272 134 272 108 272 c 0,55,56
 95 272 95 272 89 271 c 1,57,58
 106 327 106 327 157.5 363.5 c 128,-1,59
 209 400 209 400 267 400 c 0,60,61
 331 400 331 400 363 363.5 c 128,-1,62
 395 327 395 327 382 264 c 2,63,-1
 280 -215 l 1,0,-1
110 -127 m 1,64,65
 101 -124 101 -124 89 -124 c 0,66,67
 44 -124 44 -124 37 -156 c 0,68,69
 31 -187 31 -187 64 -187 c 0,70,71
 99 -187 99 -187 108 -142 c 0,72,73
 110 -135 110 -135 110 -127 c 1,64,65
92 57 m 256,74,75
 95 71 95 71 87 81 c 128,-1,76
 79 91 79 91 65 91 c 256,77,78
 51 91 51 91 39.5 81 c 128,-1,79
 28 71 28 71 25 57 c 256,80,81
 22 43 22 43 29.5 33.5 c 128,-1,82
 37 24 37 24 51 24 c 256,83,84
 65 24 65 24 77 33.5 c 128,-1,85
 89 43 89 43 92 57 c 256,74,75
EndSplineSet
Substitution2: "<23,16000>  in Thai lookup 75 nested-substitutions 0 subtable" uni0E0E.alt1
Substitution2: "Single Substitution lookup 58 subtable" uni0E0E.alt1
EndChar

StartChar: uni0E0F
Encoding: 3599 3599 228
Width: 425
Flags: W
LayerCount: 2
Fore
SplineSet
75 -134 m 1,0,1
 68 -125 68 -125 47 -125 c 0,2,3
 8 -125 8 -125 1 -159 c 0,4,5
 -5 -189 -5 -189 26 -189 c 0,6,7
 63 -189 63 -189 75 -134 c 1,0,1
280 -215 m 1,8,-1
 240 -215 l 1,9,-1
 199 -154 l 1,10,-1
 142 -214 l 1,11,-1
 100 -154 l 1,12,13
 92 -185 92 -185 69.5 -202.5 c 128,-1,14
 47 -220 47 -220 22 -220 c 0,15,16
 -8 -220 -8 -220 -21 -202 c 128,-1,17
 -34 -184 -34 -184 -28 -158 c 0,18,19
 -22 -129 -22 -129 0.5 -111.5 c 128,-1,20
 23 -94 23 -94 51 -94 c 0,21,22
 70 -94 70 -94 82 -101 c 1,23,24
 91 -66 91 -66 135 -43 c 1,25,-1
 159 -59 l 1,26,27
 120 -80 120 -80 111 -115 c 1,28,-1
 149 -167 l 1,29,-1
 209 -104 l 1,30,-1
 254 -169 l 1,31,-1
 345 260 l 2,32,33
 355 309 355 309 331 338.5 c 128,-1,34
 307 368 307 368 259 368 c 0,35,36
 225 368 225 368 189 348.5 c 128,-1,37
 153 329 153 329 135 299 c 1,38,39
 187 294 187 294 207 255 c 1,40,41
 149 237 149 237 137 182 c 0,42,43
 129 143 129 143 129 102 c 0,44,45
 129 84 129 84 124 60 c 0,46,47
 118 31 118 31 94.5 11.5 c 128,-1,48
 71 -8 71 -8 44 -8 c 256,49,50
 17 -8 17 -8 2.5 11 c 128,-1,51
 -12 30 -12 30 -6 57 c 0,52,53
 -1 84 -1 84 22 103.5 c 128,-1,54
 45 123 45 123 72 123 c 0,55,56
 83 123 83 123 95 118 c 1,57,58
 98 164 98 164 103 188 c 0,59,60
 113 234 113 234 159 260 c 1,61,62
 134 272 134 272 108 272 c 0,63,64
 95 272 95 272 89 271 c 1,65,66
 106 327 106 327 157.5 363.5 c 128,-1,67
 209 400 209 400 267 400 c 0,68,69
 331 400 331 400 363 363.5 c 128,-1,70
 395 327 395 327 382 264 c 2,71,-1
 280 -215 l 1,8,-1
92 57 m 256,72,73
 95 71 95 71 87 81 c 128,-1,74
 79 91 79 91 65 91 c 256,75,76
 51 91 51 91 39.5 81 c 128,-1,77
 28 71 28 71 25 57 c 256,78,79
 22 43 22 43 29.5 33.5 c 128,-1,80
 37 24 37 24 51 24 c 256,81,82
 65 24 65 24 77 33.5 c 128,-1,83
 89 43 89 43 92 57 c 256,72,73
EndSplineSet
Substitution2: "<23,16000>  in Thai lookup 75 nested-substitutions 0 subtable" uni0E0F.alt1
Substitution2: "Single Substitution lookup 58 subtable" uni0E0F.alt1
EndChar

StartChar: uni0E10
Encoding: 3600 3600 229
Width: 343
Flags: W
LayerCount: 2
Fore
SplineSet
256 79 m 2,0,1
 238 -9 238 -9 158 -9 c 0,2,3
 79 -9 79 -9 97 79 c 2,4,-1
 108 130 l 1,5,6
 96 126 96 126 82 126 c 0,7,8
 57 126 57 126 43.5 142.5 c 128,-1,9
 30 159 30 159 36 184 c 1,10,11
 41 210 41 210 62 227.5 c 128,-1,12
 83 245 83 245 108 245 c 0,13,14
 134 245 134 245 148 229.5 c 128,-1,15
 162 214 162 214 156 186 c 2,16,-1
 133 76 l 2,17,18
 122 24 122 24 165 24 c 0,19,20
 209 24 209 24 220 76 c 2,21,-1
 250 221 l 1,22,23
 256 245 256 245 164 269 c 0,24,25
 109 284 109 284 45 293 c 1,26,27
 58 339 58 339 96.5 369.5 c 128,-1,28
 135 400 135 400 188 400 c 0,29,30
 209 400 209 400 242 389 c 128,-1,31
 275 378 275 378 294 378 c 0,32,33
 329 378 329 378 344 427 c 1,34,-1
 373 420 l 1,35,36
 346 341 346 341 288 341 c 0,37,38
 266 341 266 341 230 353 c 128,-1,39
 194 365 194 365 174 365 c 0,40,41
 151 365 151 365 126.5 351.5 c 128,-1,42
 102 338 102 338 97 320 c 1,43,44
 192 300 192 300 231 284 c 0,45,46
 295 259 295 259 287 224 c 2,47,-1
 256 79 l 2,0,1
221 -100 m 2,48,-1
 197 -216 l 1,49,-1
 158 -216 l 1,50,-1
 120 -189 l 1,51,-1
 71 -215 l 1,52,-1
 37 -160 l 1,53,54
 31 -188 31 -188 9 -204 c 128,-1,55
 -13 -220 -13 -220 -39 -220 c 0,56,57
 -103 -219 -103 -219 -91 -163 c 0,58,59
 -86 -139 -86 -139 -63.5 -126 c 128,-1,60
 -41 -113 -41 -113 -14 -113 c 0,61,62
 8 -113 8 -113 19 -118 c 1,63,64
 34 -77 34 -77 76 -57 c 1,65,-1
 100 -72 l 1,66,67
 55 -92 55 -92 46 -131 c 1,68,-1
 79 -182 l 1,69,-1
 126 -160 l 1,70,-1
 168 -190 l 1,71,-1
 178 -145 l 1,72,73
 172 -146 172 -146 161 -146 c 0,74,75
 140 -146 140 -146 128 -132.5 c 128,-1,76
 116 -119 116 -119 120 -100 c 256,77,78
 124 -81 124 -81 142 -67.5 c 128,-1,79
 160 -54 160 -54 181 -54 c 0,80,81
 201 -54 201 -54 213.5 -66.5 c 128,-1,82
 226 -79 226 -79 221 -100 c 2,48,-1
9 -147 m 1,83,84
 1 -140 1 -140 -22 -140 c 1,85,86
 -56 -142 -56 -142 -61 -166 c 0,87,88
 -66 -192 -66 -192 -35 -192 c 0,89,90
 2 -192 2 -192 8 -160 c 1,91,92
 10 -155 10 -155 9 -147 c 1,83,84
195 -100 m 0,93,94
 200 -78 200 -78 176 -78 c 256,95,96
 152 -78 152 -78 147 -100 c 0,97,98
 142 -123 142 -123 166 -123 c 256,99,100
 190 -123 190 -123 195 -100 c 0,93,94
122 185 m 0,101,102
 124 196 124 196 118 204 c 128,-1,103
 112 212 112 212 101 212 c 256,104,105
 90 212 90 212 80.5 204 c 128,-1,106
 71 196 71 196 69 185 c 0,107,108
 66 174 66 174 72 166.5 c 128,-1,109
 78 159 78 159 89 159 c 256,110,111
 100 159 100 159 109.5 166.5 c 128,-1,112
 119 174 119 174 122 185 c 0,101,102
EndSplineSet
Substitution2: "<23,16000>  in Thai lookup 65 nested-substitutions 7 subtable" uni0E10.alt1
Substitution2: "Single Substitution lookup 58 subtable" uni0E10.alt1
EndChar

StartChar: uni0E11
Encoding: 3601 3601 230
Width: 461
Flags: W
LayerCount: 2
Fore
SplineSet
369 34 m 1,0,1
 357 -13 357 -13 321 -37 c 1,2,-1
 293 -19 l 1,3,4
 327 7 327 7 336 47 c 2,5,-1
 394 320 l 2,6,7
 403 365 403 365 374 365 c 0,8,9
 363 365 363 365 345 339 c 1,10,-1
 146 0 l 1,11,-1
 101 0 l 1,12,-1
 132 146 l 2,13,14
 138 178 138 178 175.5 226.5 c 128,-1,15
 213 275 213 275 220 306 c 0,16,17
 231 360 231 360 200 366 c 1,18,-1
 156 324 l 1,19,-1
 129 365 l 1,20,21
 92 343 92 343 74 307 c 1,22,23
 89 313 89 313 107 313 c 0,24,25
 136 313 136 313 149 294.5 c 128,-1,26
 162 276 162 276 156 248 c 0,27,28
 150 219 150 219 127.5 201 c 128,-1,29
 105 183 105 183 78 183 c 0,30,31
 44 183 44 183 32 211 c 0,32,33
 22 236 22 236 29 272 c 0,34,35
 38 315 38 315 71.5 354 c 128,-1,36
 105 393 105 393 148 401 c 1,37,-1
 165 366 l 1,38,-1
 200 401 l 1,39,40
 271 392 271 392 252 303 c 0,41,42
 245 272 245 272 209 221 c 128,-1,43
 173 170 173 170 166 138 c 1,44,-1
 144 53 l 1,45,46
 164 95 164 95 184 128 c 2,47,-1
 312 344 l 2,48,49
 345 400 345 400 385 400 c 0,50,51
 447 400 447 400 430 320 c 2,52,-1
 369 34 l 1,0,1
124 249 m 256,53,54
 127 263 127 263 120 272 c 128,-1,55
 113 281 113 281 99 281 c 256,56,57
 85 281 85 281 74 272 c 128,-1,58
 63 263 63 263 60 249 c 256,59,60
 57 235 57 235 64.5 226 c 128,-1,61
 72 217 72 217 86 217 c 256,62,63
 100 217 100 217 110.5 226 c 128,-1,64
 121 235 121 235 124 249 c 256,53,54
EndSplineSet
EndChar

StartChar: uni0E12
Encoding: 3602 3602 231
Width: 532
Flags: W
LayerCount: 2
Fore
SplineSet
433 0 m 1,0,-1
 397 0 l 1,1,2
 380 43 380 43 331 71 c 1,3,4
 331 65 331 65 330 57 c 0,5,6
 324 31 324 31 302 11.5 c 128,-1,7
 280 -8 280 -8 250 -8 c 256,8,9
 220 -8 220 -8 206 11.5 c 128,-1,10
 192 31 192 31 198 58 c 0,11,12
 203 84 203 84 224.5 103 c 128,-1,13
 246 122 246 122 272 124 c 1,14,-1
 301 260 l 2,15,16
 316 332 316 332 276 362 c 1,17,-1
 200 304 l 1,18,-1
 154 363 l 1,19,20
 127 348 127 348 106.5 318 c 128,-1,21
 86 288 86 288 79 258 c 0,22,23
 73 229 73 229 82 174.5 c 128,-1,24
 91 120 91 120 85 86 c 1,25,26
 96 103 96 103 123 125 c 0,27,28
 154 149 154 149 166 162 c 1,29,30
 142 165 142 165 131 181.5 c 128,-1,31
 120 198 120 198 124 221 c 1,32,33
 130 246 130 246 150.5 263 c 128,-1,34
 171 280 171 280 196 280 c 256,35,36
 221 280 221 280 235 262.5 c 128,-1,37
 249 245 249 245 242 221 c 1,38,39
 231 175 231 175 155 110.5 c 128,-1,40
 79 46 79 46 67 0 c 1,41,-1
 31 0 l 1,42,-1
 50 91 l 2,43,44
 56 121 56 121 46.5 173.5 c 128,-1,45
 37 226 37 226 42 254 c 1,46,47
 53 303 53 303 84 343 c 1,48,49
 120 387 120 387 167 399 c 1,50,-1
 209 342 l 1,51,-1
 276 400 l 1,52,53
 318 392 318 392 333 352 c 128,-1,54
 348 312 348 312 338 264 c 2,55,-1
 307 119 l 1,56,57
 383 91 383 91 408 52 c 1,58,-1
 475 367 l 2,59,60
 483 405 483 405 504 427 c 1,61,-1
 532 409 l 1,62,63
 518 397 518 397 508 354 c 2,64,-1
 433 0 l 1,0,-1
215 222 m 256,65,66
 218 236 218 236 210.5 245 c 128,-1,67
 203 254 203 254 189 254 c 256,68,69
 175 254 175 254 165 245 c 128,-1,70
 155 236 155 236 152 222 c 256,71,72
 149 208 149 208 155.5 199.5 c 128,-1,73
 162 191 162 191 176 191 c 256,74,75
 190 191 190 191 201 199.5 c 128,-1,76
 212 208 212 208 215 222 c 256,65,66
297 57 m 256,77,78
 300 71 300 71 292 81 c 128,-1,79
 284 91 284 91 270 91 c 256,80,81
 256 91 256 91 244.5 81 c 128,-1,82
 233 71 233 71 230 57 c 256,83,84
 227 43 227 43 234.5 33.5 c 128,-1,85
 242 24 242 24 256 24 c 256,86,87
 270 24 270 24 282 33.5 c 128,-1,88
 294 43 294 43 297 57 c 256,77,78
EndSplineSet
EndChar

StartChar: uni0E13
Encoding: 3603 3603 232
Width: 543
Flags: W
LayerCount: 2
Fore
SplineSet
126 57 m 256,0,1
 129 71 129 71 121 81 c 128,-1,2
 113 91 113 91 99 91 c 256,3,4
 85 91 85 91 73.5 81 c 128,-1,5
 62 71 62 71 59 57 c 256,6,7
 56 43 56 43 63.5 33.5 c 128,-1,8
 71 24 71 24 85 24 c 256,9,10
 99 24 99 24 111 33.5 c 128,-1,11
 123 43 123 43 126 57 c 256,0,1
443 56 m 256,12,13
 446 70 446 70 438.5 80 c 128,-1,14
 431 90 431 90 417 90 c 256,15,16
 403 90 403 90 390.5 80 c 128,-1,17
 378 70 378 70 375 56 c 256,18,19
 372 42 372 42 380 32 c 128,-1,20
 388 22 388 22 402 22 c 256,21,22
 416 22 416 22 428 32 c 128,-1,23
 440 42 440 42 443 56 c 256,12,13
476 56 m 0,24,25
 470 28 470 28 447 9 c 128,-1,26
 424 -10 424 -10 395 -10 c 0,27,28
 367 -10 367 -10 352 9 c 128,-1,29
 337 28 337 28 343 56 c 1,30,-1
 345 62 l 1,31,32
 306 48 306 48 268 0 c 1,33,-1
 225 0 l 1,34,-1
 281 265 l 2,35,36
 303 368 303 368 206 368 c 0,37,38
 174 368 174 368 142.5 349 c 128,-1,39
 111 330 111 330 93 299 c 1,40,41
 148 295 148 295 164 255 c 1,42,43
 139 250 139 250 116.5 229 c 128,-1,44
 94 208 94 208 88 182 c 2,45,-1
 74 117 l 1,46,47
 89 123 89 123 106 123 c 0,48,49
 134 123 134 123 149 104 c 128,-1,50
 164 85 164 85 158 58 c 0,51,52
 152 29 152 29 129.5 10 c 128,-1,53
 107 -9 107 -9 78 -9 c 256,54,55
 49 -9 49 -9 34.5 10.5 c 128,-1,56
 20 30 20 30 26 59 c 2,57,-1
 52 181 l 2,58,59
 63 235 63 235 121 260 c 1,60,61
 86 275 86 275 44 271 c 1,62,63
 65 327 65 327 112.5 363.5 c 128,-1,64
 160 400 160 400 215 400 c 0,65,66
 277 400 277 400 304 366 c 128,-1,67
 331 332 331 332 318 269 c 2,68,-1
 271 48 l 1,69,70
 300 78 300 78 345 97 c 0,71,72
 399 121 399 121 410 128 c 1,73,74
 439 150 439 150 449 195 c 2,75,-1
 486 367 l 2,76,77
 494 405 494 405 515 427 c 1,78,-1
 543 409 l 1,79,80
 529 397 529 397 519 354 c 2,81,-1
 485 197 l 2,82,83
 473 137 473 137 450 118 c 1,84,85
 486 101 486 101 476 56 c 0,24,25
EndSplineSet
EndChar

StartChar: uni0E14
Encoding: 3604 3604 233
Width: 391
Flags: W
LayerCount: 2
Fore
SplineSet
226 245 m 0,0,1
 228 258 228 258 221 267 c 128,-1,2
 214 276 214 276 201 276 c 256,3,4
 188 276 188 276 177 267 c 128,-1,5
 166 258 166 258 164 245 c 0,6,7
 161 232 161 232 168 223 c 128,-1,8
 175 214 175 214 188 214 c 256,9,10
 201 214 201 214 212 223 c 128,-1,11
 223 232 223 232 226 245 c 0,0,1
299 34 m 1,12,13
 287 -13 287 -13 251 -37 c 1,14,-1
 223 -19 l 1,15,16
 257 7 257 7 266 47 c 2,17,-1
 311 260 l 2,18,19
 334 368 334 368 219 368 c 0,20,21
 173 368 173 368 131 336.5 c 128,-1,22
 89 305 89 305 80 259 c 1,23,24
 73 230 73 230 78.5 180.5 c 128,-1,25
 84 131 84 131 79 104 c 1,26,27
 74 84 74 84 71 77 c 1,28,29
 88 103 88 103 124 135 c 0,30,31
 153 160 153 160 182 186 c 1,32,33
 157 186 157 186 143.5 203 c 128,-1,34
 130 220 130 220 136 245 c 0,35,36
 141 270 141 270 161.5 287 c 128,-1,37
 182 304 182 304 207 304 c 256,38,39
 232 304 232 304 245.5 287 c 128,-1,40
 259 270 259 270 254 245 c 0,41,42
 243 197 243 197 157 123 c 128,-1,43
 71 49 71 49 58 0 c 1,44,-1
 22 0 l 1,45,-1
 41 90 l 2,46,47
 47 119 47 119 42 172.5 c 128,-1,48
 37 226 37 226 42 254 c 1,49,50
 57 322 57 322 110.5 361 c 128,-1,51
 164 400 164 400 231 400 c 0,52,53
 300 400 300 400 330.5 363.5 c 128,-1,54
 361 327 361 327 348 265 c 2,55,-1
 299 34 l 1,12,13
EndSplineSet
EndChar

StartChar: uni0E15
Encoding: 3605 3605 234
Width: 391
Flags: W
LayerCount: 2
Fore
SplineSet
299 34 m 1,0,1
 287 -13 287 -13 251 -37 c 1,2,-1
 223 -19 l 1,3,4
 257 7 257 7 266 47 c 2,5,-1
 311 260 l 2,6,7
 326 334 326 334 285 363 c 1,8,9
 259 343 259 343 208 304 c 1,10,-1
 153 363 l 1,11,12
 96 331 96 331 81 259 c 0,13,14
 74 228 74 228 78.5 173.5 c 128,-1,15
 83 119 83 119 74 79 c 1,16,17
 89 99 89 99 124.5 124 c 128,-1,18
 160 149 160 149 173 164 c 1,19,20
 151 166 151 166 139 182 c 128,-1,21
 127 198 127 198 132 222 c 0,22,23
 137 247 137 247 157 264 c 128,-1,24
 177 281 177 281 202 281 c 256,25,26
 227 281 227 281 240.5 264 c 128,-1,27
 254 247 254 247 249 222 c 0,28,29
 239 176 239 176 155.5 112 c 128,-1,30
 72 48 72 48 59 0 c 1,31,-1
 23 0 l 1,32,-1
 42 90 l 2,33,34
 48 119 48 119 42.5 172.5 c 128,-1,35
 37 226 37 226 42 254 c 1,36,37
 53 303 53 303 83 343 c 1,38,39
 119 388 119 388 167 400 c 1,40,-1
 217 345 l 1,41,-1
 286 400 l 1,42,43
 328 392 328 392 344 349 c 0,44,45
 358 312 358 312 348 265 c 2,46,-1
 299 34 l 1,0,1
223 223 m 256,47,48
 226 236 226 236 218.5 245 c 128,-1,49
 211 254 211 254 198 254 c 256,50,51
 185 254 185 254 174.5 245 c 128,-1,52
 164 236 164 236 161 223 c 256,53,54
 158 210 158 210 165 201 c 128,-1,55
 172 192 172 192 185 192 c 256,56,57
 198 192 198 192 209 201 c 128,-1,58
 220 210 220 210 223 223 c 256,47,48
EndSplineSet
EndChar

StartChar: uni0E16
Encoding: 3606 3606 235
Width: 378
Flags: W
LayerCount: 2
Fore
SplineSet
123 57 m 256,0,1
 126 71 126 71 118 81 c 128,-1,2
 110 91 110 91 96 91 c 256,3,4
 82 91 82 91 70.5 81 c 128,-1,5
 59 71 59 71 56 57 c 256,6,7
 53 43 53 43 60.5 33.5 c 128,-1,8
 68 24 68 24 82 24 c 256,9,10
 96 24 96 24 108 33.5 c 128,-1,11
 120 43 120 43 123 57 c 256,0,1
286 34 m 1,12,13
 274 -13 274 -13 238 -37 c 1,14,-1
 210 -19 l 1,15,16
 244 7 244 7 253 47 c 2,17,-1
 298 261 l 2,18,19
 309 312 309 312 285 340 c 128,-1,20
 261 368 261 368 212 368 c 0,21,22
 178 368 178 368 142.5 348.5 c 128,-1,23
 107 329 107 329 89 299 c 1,24,25
 149 294 149 294 159 256 c 1,26,27
 135 251 135 251 112.5 229.5 c 128,-1,28
 90 208 90 208 84 183 c 2,29,-1
 71 118 l 1,30,31
 88 125 88 125 102 125 c 0,32,33
 130 125 130 125 145.5 105.5 c 128,-1,34
 161 86 161 86 155 58 c 0,35,36
 148 28 148 28 125.5 10 c 128,-1,37
 103 -8 103 -8 74 -8 c 0,38,39
 46 -8 46 -8 31 11 c 128,-1,40
 16 30 16 30 22 58 c 2,41,-1
 48 182 l 2,42,43
 60 236 60 236 116 261 c 1,44,45
 91 272 91 272 40 272 c 1,46,47
 60 327 60 327 112 363.5 c 128,-1,48
 164 400 164 400 221 400 c 0,49,50
 285 400 285 400 316.5 364 c 128,-1,51
 348 328 348 328 335 265 c 2,52,-1
 286 34 l 1,12,13
EndSplineSet
EndChar

StartChar: uni0E17
Encoding: 3607 3607 236
Width: 430
Flags: W
LayerCount: 2
Fore
SplineSet
338 34 m 1,0,1
 326 -13 326 -13 290 -37 c 1,2,-1
 262 -19 l 1,3,4
 296 7 296 7 305 46 c 2,5,-1
 363 320 l 2,6,7
 372 365 372 365 343 365 c 0,8,9
 325 365 325 365 307 339 c 1,10,-1
 108 0 l 1,11,-1
 70 0 l 1,12,-1
 128 275 l 1,13,14
 113 268 113 268 96 268 c 0,15,16
 69 268 69 268 54 287.5 c 128,-1,17
 39 307 39 307 44 334 c 0,18,19
 50 361 50 361 74 380.5 c 128,-1,20
 98 400 98 400 125 400 c 256,21,22
 152 400 152 400 167 380.5 c 128,-1,23
 182 361 182 361 176 334 c 2,24,-1
 135 138 l 1,25,26
 123 92 123 92 116 72 c 1,27,28
 126 92 126 92 146 128 c 1,29,-1
 273 344 l 2,30,31
 306 400 306 400 354 400 c 0,32,33
 416 400 416 400 399 320 c 2,34,-1
 338 34 l 1,0,1
144 334 m 0,35,36
 147 348 147 348 139.5 358 c 128,-1,37
 132 368 132 368 118 368 c 256,38,39
 104 368 104 368 91.5 358 c 128,-1,40
 79 348 79 348 76 334 c 0,41,42
 74 320 74 320 81.5 310 c 128,-1,43
 89 300 89 300 103 300 c 256,44,45
 117 300 117 300 129.5 310 c 128,-1,46
 142 320 142 320 144 334 c 0,35,36
EndSplineSet
EndChar

StartChar: uni0E18
Encoding: 3608 3608 237
Width: 335
Flags: W
LayerCount: 2
Fore
SplineSet
250 76 m 2,0,1
 232 -7 232 -7 122 -7 c 256,2,3
 12 -7 12 -7 30 76 c 2,4,-1
 53 184 l 2,5,6
 61 222 61 222 82 244 c 1,7,-1
 110 226 l 1,8,9
 96 214 96 214 86 171 c 2,10,-1
 65 74 l 2,11,12
 55 25 55 25 129 25 c 256,13,14
 203 25 203 25 213 74 c 2,15,-1
 245 222 l 2,16,17
 250 246 250 246 158 270 c 0,18,19
 102 285 102 285 39 294 c 1,20,21
 52 339 52 339 88 369.5 c 128,-1,22
 124 400 124 400 175 400 c 0,23,24
 198 400 198 400 232.5 389 c 128,-1,25
 267 378 267 378 285 378 c 0,26,27
 304 378 304 378 326 427 c 1,28,-1
 352 419 l 1,29,30
 328 345 328 345 279 345 c 0,31,32
 258 345 258 345 222 356.5 c 128,-1,33
 186 368 186 368 166 368 c 0,34,35
 145 368 145 368 121.5 354 c 128,-1,36
 98 340 98 340 91 321 c 1,37,38
 194 299 194 299 217 291 c 0,39,40
 290 265 290 265 281 225 c 2,41,-1
 250 76 l 2,0,1
EndSplineSet
EndChar

StartChar: uni0E19
Encoding: 3609 3609 238
Width: 420
Flags: W
LayerCount: 2
Fore
SplineSet
144 334 m 0,0,1
 147 348 147 348 139.5 358 c 128,-1,2
 132 368 132 368 118 368 c 256,3,4
 104 368 104 368 91.5 358 c 128,-1,5
 79 348 79 348 76 334 c 0,6,7
 74 320 74 320 81.5 310 c 128,-1,8
 89 300 89 300 103 300 c 256,9,10
 117 300 117 300 129.5 310 c 128,-1,11
 142 320 142 320 144 334 c 0,0,1
321 58 m 256,12,13
 324 72 324 72 316 82 c 128,-1,14
 308 92 308 92 294 92 c 256,15,16
 280 92 280 92 268 82 c 128,-1,17
 256 72 256 72 253 58 c 256,18,19
 250 44 250 44 258 34 c 128,-1,20
 266 24 266 24 280 24 c 256,21,22
 294 24 294 24 306 34 c 128,-1,23
 318 44 318 44 321 58 c 256,12,13
353 57 m 0,24,25
 347 30 347 30 323.5 11 c 128,-1,26
 300 -8 300 -8 273 -8 c 256,27,28
 246 -8 246 -8 231 11 c 128,-1,29
 216 30 216 30 222 57 c 1,30,-1
 223 64 l 1,31,32
 156 39 156 39 114 0 c 1,33,-1
 70 0 l 1,34,-1
 128 275 l 1,35,36
 113 268 113 268 96 268 c 0,37,38
 69 268 69 268 54 287.5 c 128,-1,39
 39 307 39 307 44 334 c 0,40,41
 50 361 50 361 74 380.5 c 128,-1,42
 98 400 98 400 125 400 c 256,43,44
 152 400 152 400 167 380.5 c 128,-1,45
 182 361 182 361 176 334 c 2,46,-1
 114 39 l 1,47,48
 138 61 138 61 194 84 c 0,49,50
 257 110 257 110 277 124 c 0,51,52
 317 151 317 151 326 193 c 2,53,-1
 363 367 l 2,54,55
 371 405 371 405 392 427 c 1,56,-1
 420 409 l 1,57,58
 406 397 406 397 396 354 c 2,59,-1
 360 188 l 2,60,61
 350 140 350 140 324 118 c 1,62,63
 362 101 362 101 353 57 c 0,24,25
EndSplineSet
EndChar

StartChar: uni0E1A
Encoding: 3610 3610 239
Width: 428
Flags: W
LayerCount: 2
Fore
SplineSet
144 334 m 0,0,1
 147 348 147 348 139.5 358 c 128,-1,2
 132 368 132 368 118 368 c 256,3,4
 104 368 104 368 91.5 358 c 128,-1,5
 79 348 79 348 76 334 c 0,6,7
 74 320 74 320 81.5 310 c 128,-1,8
 89 300 89 300 103 300 c 256,9,10
 117 300 117 300 129.5 310 c 128,-1,11
 142 320 142 320 144 334 c 0,0,1
347 85 m 2,12,13
 327 -8 327 -8 198 -8 c 0,14,15
 68 -8 68 -8 88 85 c 2,16,-1
 128 275 l 1,17,18
 113 268 113 268 96 268 c 0,19,20
 69 268 69 268 54 287.5 c 128,-1,21
 39 307 39 307 44 334 c 0,22,23
 50 361 50 361 74 380.5 c 128,-1,24
 98 400 98 400 125 400 c 256,25,26
 152 400 152 400 167 380.5 c 128,-1,27
 182 361 182 361 176 334 c 2,28,-1
 124 88 l 2,29,30
 111 25 111 25 205 25 c 0,31,32
 298 25 298 25 311 88 c 2,33,-1
 371 367 l 2,34,35
 379 405 379 405 400 427 c 1,36,-1
 428 409 l 1,37,38
 414 397 414 397 404 354 c 2,39,-1
 347 85 l 2,12,13
EndSplineSet
EndChar

StartChar: uni0E1B
Encoding: 3611 3611 240
Width: 428
Flags: W
LayerCount: 2
Fore
SplineSet
347 85 m 2,0,1
 327 -8 327 -8 198 -8 c 0,2,3
 68 -8 68 -8 88 85 c 2,4,-1
 128 275 l 1,5,6
 113 268 113 268 96 268 c 0,7,8
 69 268 69 268 54 287.5 c 128,-1,9
 39 307 39 307 44 334 c 0,10,11
 50 361 50 361 74 380.5 c 128,-1,12
 98 400 98 400 125 400 c 256,13,14
 152 400 152 400 167 380.5 c 128,-1,15
 182 361 182 361 176 334 c 2,16,-1
 124 88 l 2,17,18
 111 25 111 25 205 25 c 0,19,20
 298 25 298 25 311 88 c 2,21,-1
 402 517 l 2,22,23
 410 555 410 555 431 577 c 1,24,-1
 459 559 l 1,25,26
 445 547 445 547 435 504 c 2,27,-1
 347 85 l 2,0,1
144 334 m 0,28,29
 147 348 147 348 139.5 358 c 128,-1,30
 132 368 132 368 118 368 c 256,31,32
 104 368 104 368 91.5 358 c 128,-1,33
 79 348 79 348 76 334 c 0,34,35
 74 320 74 320 81.5 310 c 128,-1,36
 89 300 89 300 103 300 c 256,37,38
 117 300 117 300 129.5 310 c 128,-1,39
 142 320 142 320 144 334 c 0,28,29
EndSplineSet
EndChar

StartChar: uni0E1C
Encoding: 3612 3612 241
Width: 381
Flags: W
LayerCount: 2
Fore
SplineSet
282 0 m 1,0,-1
 242 0 l 1,1,-1
 172 158 l 1,2,-1
 37 0 l 1,3,-1
 -3 0 l 1,4,-1
 67 334 l 2,5,6
 73 361 73 361 95.5 380.5 c 128,-1,7
 118 400 118 400 148 400 c 0,8,9
 175 400 175 400 190 380.5 c 128,-1,10
 205 361 205 361 199 334 c 0,11,12
 194 307 194 307 173 287.5 c 128,-1,13
 152 268 152 268 119 268 c 0,14,15
 105 268 105 268 91 275 c 1,16,-1
 44 54 l 1,17,-1
 166 196 l 1,18,-1
 193 196 l 1,19,-1
 257 54 l 1,20,-1
 324 367 l 2,21,22
 332 405 332 405 353 427 c 1,23,-1
 381 409 l 1,24,25
 367 397 367 397 357 354 c 2,26,-1
 282 0 l 1,0,-1
168 334 m 0,27,28
 171 348 171 348 163.5 358 c 128,-1,29
 156 368 156 368 142 368 c 256,30,31
 128 368 128 368 115.5 358 c 128,-1,32
 103 348 103 348 100 334 c 0,33,34
 98 320 98 320 105.5 310 c 128,-1,35
 113 300 113 300 127 300 c 256,36,37
 141 300 141 300 153.5 310 c 128,-1,38
 166 320 166 320 168 334 c 0,27,28
EndSplineSet
EndChar

StartChar: uni0E1D
Encoding: 3613 3613 242
Width: 381
Flags: W
LayerCount: 2
Fore
SplineSet
282 0 m 1,0,-1
 242 0 l 1,1,-1
 172 158 l 1,2,-1
 37 0 l 1,3,-1
 -3 0 l 1,4,-1
 67 334 l 2,5,6
 73 361 73 361 95.5 380.5 c 128,-1,7
 118 400 118 400 148 400 c 0,8,9
 175 400 175 400 190 380.5 c 128,-1,10
 205 361 205 361 199 334 c 0,11,12
 194 307 194 307 173 287.5 c 128,-1,13
 152 268 152 268 119 268 c 0,14,15
 105 268 105 268 91 275 c 1,16,-1
 44 54 l 1,17,-1
 166 196 l 1,18,-1
 193 196 l 1,19,-1
 257 54 l 1,20,-1
 355 517 l 2,21,22
 363 555 363 555 384 577 c 1,23,-1
 412 559 l 1,24,25
 398 547 398 547 388 504 c 2,26,-1
 282 0 l 1,0,-1
168 334 m 0,27,28
 171 348 171 348 163.5 358 c 128,-1,29
 156 368 156 368 142 368 c 256,30,31
 128 368 128 368 115.5 358 c 128,-1,32
 103 348 103 348 100 334 c 0,33,34
 98 320 98 320 105.5 310 c 128,-1,35
 113 300 113 300 127 300 c 256,36,37
 141 300 141 300 153.5 310 c 128,-1,38
 166 320 166 320 168 334 c 0,27,28
EndSplineSet
EndChar

StartChar: uni0E1E
Encoding: 3614 3614 243
Width: 447
Flags: W
LayerCount: 2
Fore
SplineSet
144 334 m 0,0,1
 147 348 147 348 139.5 358 c 128,-1,2
 132 368 132 368 118 368 c 256,3,4
 104 368 104 368 91.5 358 c 128,-1,5
 79 348 79 348 76 334 c 0,6,7
 74 320 74 320 81.5 310 c 128,-1,8
 89 300 89 300 103 300 c 256,9,10
 117 300 117 300 129.5 310 c 128,-1,11
 142 320 142 320 144 334 c 0,0,1
348 0 m 1,12,-1
 304 0 l 1,13,-1
 282 347 l 1,14,-1
 114 0 l 1,15,-1
 70 0 l 1,16,-1
 128 275 l 1,17,18
 113 268 113 268 96 268 c 0,19,20
 69 268 69 268 54 287.5 c 128,-1,21
 39 307 39 307 44 334 c 0,22,23
 50 361 50 361 74 380.5 c 128,-1,24
 98 400 98 400 125 400 c 256,25,26
 152 400 152 400 167 380.5 c 128,-1,27
 182 361 182 361 176 334 c 2,28,-1
 132 125 l 2,29,30
 127 100 127 100 112 55 c 1,31,32
 126 88 126 88 146 128 c 2,33,-1
 275 392 l 1,34,-1
 309 392 l 1,35,-1
 326 128 l 2,36,37
 328 88 328 88 328 55 c 1,38,39
 333 100 333 100 338 125 c 2,40,-1
 390 367 l 2,41,42
 398 405 398 405 419 427 c 1,43,-1
 447 409 l 1,44,45
 433 397 433 397 423 354 c 2,46,-1
 348 0 l 1,12,-1
EndSplineSet
EndChar

StartChar: uni0E1F
Encoding: 3615 3615 244
Width: 447
Flags: W
LayerCount: 2
Fore
SplineSet
348 0 m 1,0,-1
 304 0 l 1,1,-1
 282 347 l 1,2,-1
 114 0 l 1,3,-1
 70 0 l 1,4,-1
 128 275 l 1,5,6
 113 268 113 268 96 268 c 0,7,8
 69 268 69 268 54 287.5 c 128,-1,9
 39 307 39 307 44 334 c 0,10,11
 50 361 50 361 74 380.5 c 128,-1,12
 98 400 98 400 125 400 c 256,13,14
 152 400 152 400 167 380.5 c 128,-1,15
 182 361 182 361 176 334 c 2,16,-1
 132 125 l 2,17,18
 127 100 127 100 112 55 c 1,19,20
 126 88 126 88 146 128 c 2,21,-1
 275 392 l 1,22,-1
 309 392 l 1,23,-1
 326 128 l 2,24,25
 328 88 328 88 328 55 c 1,26,27
 333 100 333 100 338 125 c 2,28,-1
 421 518 l 2,29,30
 429 555 429 555 450 577 c 1,31,-1
 478 559 l 1,32,33
 464 547 464 547 454 504 c 2,34,-1
 348 0 l 1,0,-1
144 334 m 0,35,36
 147 348 147 348 139.5 358 c 128,-1,37
 132 368 132 368 118 368 c 256,38,39
 104 368 104 368 91.5 358 c 128,-1,40
 79 348 79 348 76 334 c 0,41,42
 74 320 74 320 81.5 310 c 128,-1,43
 89 300 89 300 103 300 c 256,44,45
 117 300 117 300 129.5 310 c 128,-1,46
 142 320 142 320 144 334 c 0,35,36
EndSplineSet
EndChar

StartChar: uni0E20
Encoding: 3616 3616 245
Width: 425
Flags: W
LayerCount: 2
Fore
SplineSet
92 57 m 256,0,1
 95 71 95 71 87 81 c 128,-1,2
 79 91 79 91 65 91 c 256,3,4
 51 91 51 91 39.5 81 c 128,-1,5
 28 71 28 71 25 57 c 256,6,7
 22 43 22 43 29.5 33.5 c 128,-1,8
 37 24 37 24 51 24 c 256,9,10
 65 24 65 24 77 33.5 c 128,-1,11
 89 43 89 43 92 57 c 256,0,1
333 33 m 1,12,13
 321 -14 321 -14 285 -38 c 1,14,-1
 257 -20 l 1,15,16
 291 6 291 6 300 46 c 2,17,-1
 345 260 l 2,18,19
 355 309 355 309 331 338.5 c 128,-1,20
 307 368 307 368 259 368 c 0,21,22
 225 368 225 368 189 348.5 c 128,-1,23
 153 329 153 329 135 299 c 1,24,25
 187 294 187 294 207 255 c 1,26,27
 149 237 149 237 137 182 c 0,28,29
 129 143 129 143 129 102 c 0,30,31
 129 84 129 84 124 60 c 0,32,33
 118 31 118 31 96.5 11.5 c 128,-1,34
 75 -8 75 -8 44 -8 c 0,35,36
 17 -8 17 -8 2.5 11 c 128,-1,37
 -12 30 -12 30 -6 57 c 0,38,39
 -1 84 -1 84 22 103.5 c 128,-1,40
 45 123 45 123 72 123 c 0,41,42
 83 123 83 123 95 118 c 1,43,44
 98 164 98 164 103 188 c 0,45,46
 113 234 113 234 159 260 c 1,47,48
 134 272 134 272 108 272 c 0,49,50
 95 272 95 272 89 271 c 1,51,52
 106 327 106 327 157.5 363.5 c 128,-1,53
 209 400 209 400 267 400 c 0,54,55
 331 400 331 400 363 363.5 c 128,-1,56
 395 327 395 327 382 264 c 2,57,-1
 333 33 l 1,12,13
EndSplineSet
EndChar

StartChar: uni0E21
Encoding: 3617 3617 246
Width: 400
Flags: W
LayerCount: 2
Fore
SplineSet
99 62 m 0,0,1
 102 77 102 77 93.5 88 c 128,-1,2
 85 99 85 99 70 99 c 256,3,4
 55 99 55 99 41.5 88 c 128,-1,5
 28 77 28 77 25 62 c 0,6,7
 21 47 21 47 30 36 c 128,-1,8
 39 25 39 25 54 25 c 256,9,10
 69 25 69 25 82 36 c 128,-1,11
 95 47 95 47 99 62 c 0,0,1
144 334 m 0,12,13
 147 348 147 348 139.5 358 c 128,-1,14
 132 368 132 368 118 368 c 256,15,16
 104 368 104 368 91.5 358 c 128,-1,17
 79 348 79 348 76 334 c 0,18,19
 74 320 74 320 81.5 310 c 128,-1,20
 89 300 89 300 103 300 c 256,21,22
 117 300 117 300 129.5 310 c 128,-1,23
 142 320 142 320 144 334 c 0,12,13
301 0 m 1,24,-1
 262 0 l 1,25,26
 196 60 196 60 132 79 c 1,27,28
 133 70 133 70 131 61 c 0,29,30
 125 32 125 32 100.5 12 c 128,-1,31
 76 -8 76 -8 47 -8 c 256,32,33
 18 -8 18 -8 2.5 12 c 128,-1,34
 -13 32 -13 32 -7 61 c 0,35,36
 0 90 0 90 23.5 110.5 c 128,-1,37
 47 131 47 131 76 131 c 0,38,39
 87 131 87 131 97 128 c 1,40,-1
 128 275 l 1,41,42
 113 268 113 268 96 268 c 0,43,44
 69 268 69 268 54 287.5 c 128,-1,45
 39 307 39 307 44 334 c 0,46,47
 50 361 50 361 74 380.5 c 128,-1,48
 98 400 98 400 125 400 c 256,49,50
 152 400 152 400 167 380.5 c 128,-1,51
 182 361 182 361 176 334 c 2,52,-1
 131 118 l 1,53,54
 222 83 222 83 272 37 c 1,55,-1
 343 367 l 2,56,57
 351 405 351 405 372 427 c 1,58,-1
 400 409 l 1,59,60
 386 397 386 397 376 354 c 2,61,-1
 301 0 l 1,24,-1
EndSplineSet
EndChar

StartChar: uni0E22
Encoding: 3618 3618 247
Width: 375
Flags: W
LayerCount: 2
Fore
SplineSet
187 343 m 256,0,1
 190 357 190 357 183 366 c 128,-1,2
 176 375 176 375 162 375 c 256,3,4
 148 375 148 375 137.5 366 c 128,-1,5
 127 357 127 357 124 343 c 256,6,7
 121 329 121 329 128 320.5 c 128,-1,8
 135 312 135 312 149 312 c 256,9,10
 163 312 163 312 173.5 320.5 c 128,-1,11
 184 329 184 329 187 343 c 256,0,1
294 89 m 2,12,13
 274 -8 274 -8 139 -8 c 0,14,15
 3 -8 3 -8 23 89 c 2,16,-1
 34 140 l 2,17,18
 39 163 39 163 57 184 c 128,-1,19
 75 205 75 205 97 213 c 1,20,21
 49 236 49 236 65 312 c 0,22,23
 73 351 73 351 101 375.5 c 128,-1,24
 129 400 129 400 169 400 c 0,25,26
 194 400 194 400 206 383 c 128,-1,27
 218 366 218 366 213 343 c 0,28,29
 209 320 209 320 190.5 303.5 c 128,-1,30
 172 287 172 287 145 287 c 0,31,32
 108 287 108 287 100 320 c 1,33,34
 97 313 97 313 95 304 c 0,35,36
 89 276 89 276 101.5 253 c 128,-1,37
 114 230 114 230 142 230 c 2,38,-1
 199 230 l 1,39,-1
 192 196 l 1,40,-1
 134 196 l 2,41,42
 112 196 112 196 93.5 180 c 128,-1,43
 75 164 75 164 70 138 c 2,44,-1
 60 92 l 2,45,46
 46 25 46 25 146 25 c 0,47,48
 245 25 245 25 259 92 c 2,49,-1
 318 367 l 2,50,51
 326 405 326 405 347 427 c 1,52,-1
 375 409 l 1,53,54
 361 397 361 397 351 354 c 2,55,-1
 294 89 l 2,12,13
EndSplineSet
EndChar

StartChar: uni0E23
Encoding: 3619 3619 248
Width: 322
Flags: W
LayerCount: 2
Fore
SplineSet
223 58 m 2,0,1
 217 31 217 31 195 11.5 c 128,-1,2
 173 -8 173 -8 143 -8 c 0,3,4
 116 -8 116 -8 100.5 11.5 c 128,-1,5
 85 31 85 31 91 58 c 256,6,7
 97 85 97 85 120.5 104.5 c 128,-1,8
 144 124 144 124 171 124 c 0,9,10
 188 124 188 124 199 117 c 1,11,-1
 222 222 l 2,12,13
 230 263 230 263 44 294 c 1,14,15
 73 400 73 400 164 400 c 0,16,17
 185 400 185 400 221 389.5 c 128,-1,18
 257 379 257 379 274 379 c 0,19,20
 295 379 295 379 316 427 c 1,21,-1
 341 419 l 1,22,23
 317 346 317 346 266 346 c 0,24,25
 245 346 245 346 208 357 c 128,-1,26
 171 368 171 368 151 368 c 0,27,28
 133 368 133 368 114 352.5 c 128,-1,29
 95 337 95 337 91 321 c 1,30,31
 152 310 152 310 209.5 288 c 128,-1,32
 267 266 267 266 258 225 c 2,33,-1
 223 58 l 2,0,1
191 58 m 256,34,35
 194 72 194 72 186 82 c 128,-1,36
 178 92 178 92 164 92 c 256,37,38
 150 92 150 92 138 82 c 128,-1,39
 126 72 126 72 123 58 c 256,40,41
 120 44 120 44 128 34 c 128,-1,42
 136 24 136 24 150 24 c 256,43,44
 164 24 164 24 176 34 c 128,-1,45
 188 44 188 44 191 58 c 256,34,35
EndSplineSet
EndChar

StartChar: uni0E24
Encoding: 3620 3620 249
Width: 378
Flags: W
LayerCount: 2
Fore
SplineSet
244 -162 m 1,0,1
 232 -209 232 -209 196 -233 c 1,2,-1
 168 -215 l 1,3,4
 202 -189 202 -189 211 -149 c 2,5,-1
 298 261 l 2,6,7
 309 312 309 312 285 340 c 128,-1,8
 261 368 261 368 212 368 c 0,9,10
 178 368 178 368 142.5 348.5 c 128,-1,11
 107 329 107 329 89 299 c 1,12,13
 149 294 149 294 159 256 c 1,14,15
 135 251 135 251 112.5 229.5 c 128,-1,16
 90 208 90 208 84 183 c 2,17,-1
 71 118 l 1,18,19
 88 125 88 125 102 125 c 0,20,21
 130 125 130 125 145.5 105.5 c 128,-1,22
 161 86 161 86 155 58 c 256,23,24
 149 30 149 30 125.5 11 c 128,-1,25
 102 -8 102 -8 74 -8 c 256,26,27
 46 -8 46 -8 31 11 c 128,-1,28
 16 30 16 30 22 58 c 2,29,-1
 48 182 l 2,30,31
 60 236 60 236 116 261 c 1,32,33
 91 272 91 272 40 272 c 1,34,35
 60 327 60 327 112 363.5 c 128,-1,36
 164 400 164 400 221 400 c 0,37,38
 285 400 285 400 316.5 364 c 128,-1,39
 348 328 348 328 335 265 c 2,40,-1
 244 -162 l 1,0,1
123 57 m 256,41,42
 126 71 126 71 118 81 c 128,-1,43
 110 91 110 91 96 91 c 256,44,45
 82 91 82 91 70.5 81 c 128,-1,46
 59 71 59 71 56 57 c 256,47,48
 53 43 53 43 60.5 33.5 c 128,-1,49
 68 24 68 24 82 24 c 256,50,51
 96 24 96 24 108 33.5 c 128,-1,52
 120 43 120 43 123 57 c 256,41,42
EndSplineSet
EndChar

StartChar: uni0E25
Encoding: 3621 3621 250
Width: 381
Flags: W
LayerCount: 2
Fore
SplineSet
291 42 m 2,0,1
 283 5 283 5 262 -18 c 1,2,-1
 234 0 l 1,3,4
 248 12 248 12 260 54 c 0,5,6
 265 75 265 75 265 100 c 0,7,8
 263 154 263 154 237 201 c 0,9,10
 217 236 217 236 188 257 c 1,11,12
 170 257 170 257 124 217.5 c 128,-1,13
 78 178 78 178 65 117 c 1,14,15
 80 124 80 124 100 124 c 0,16,17
 124 124 124 124 139 109 c 128,-1,18
 154 94 154 94 154 72 c 0,19,20
 154 41 154 41 128 16.5 c 128,-1,21
 102 -8 102 -8 72 -8 c 0,22,23
 17 -8 17 -8 17 59 c 0,24,25
 18 135 18 135 73 208.5 c 128,-1,26
 128 282 128 282 199 290 c 1,27,28
 230 270 230 270 249 242 c 128,-1,29
 268 214 268 214 275 193 c 0,30,31
 280 177 280 177 284 146 c 1,32,-1
 288 197 l 1,33,-1
 309 305 l 1,34,35
 309 333 309 333 273 352 c 0,36,37
 243 368 243 368 213 368 c 0,38,39
 169 368 169 368 132 350 c 0,40,41
 91 330 91 330 75 296 c 1,42,-1
 40 296 l 1,43,44
 59 345 59 345 114 374 c 0,45,46
 162 400 162 400 218 400 c 0,47,48
 266 400 266 400 303 379 c 0,49,50
 346 355 346 355 346 304 c 1,51,-1
 291 42 l 2,0,1
120 64 m 0,52,53
 120 91 120 91 92 91 c 0,54,55
 75 91 75 91 63 78 c 128,-1,56
 51 65 51 65 51 49 c 0,57,58
 51 24 51 24 78 24 c 0,59,60
 95 24 95 24 107.5 36 c 128,-1,61
 120 48 120 48 120 64 c 0,52,53
EndSplineSet
EndChar

StartChar: uni0E26
Encoding: 3622 3622 251
Width: 425
Flags: W
LayerCount: 2
Fore
SplineSet
291 -162 m 1,0,1
 279 -209 279 -209 243 -233 c 1,2,-1
 215 -215 l 1,3,4
 249 -189 249 -189 258 -149 c 2,5,-1
 345 260 l 2,6,7
 355 309 355 309 331 338.5 c 128,-1,8
 307 368 307 368 259 368 c 0,9,10
 225 368 225 368 189 348.5 c 128,-1,11
 153 329 153 329 135 299 c 1,12,13
 187 294 187 294 207 255 c 1,14,15
 149 237 149 237 137 182 c 0,16,17
 129 143 129 143 129 102 c 0,18,19
 129 84 129 84 124 60 c 0,20,21
 118 31 118 31 94.5 11.5 c 128,-1,22
 71 -8 71 -8 44 -8 c 256,23,24
 17 -8 17 -8 2.5 11 c 128,-1,25
 -12 30 -12 30 -6 57 c 0,26,27
 -1 84 -1 84 22 103.5 c 128,-1,28
 45 123 45 123 72 123 c 0,29,30
 83 123 83 123 95 118 c 1,31,32
 98 164 98 164 103 188 c 0,33,34
 113 234 113 234 159 260 c 1,35,36
 134 272 134 272 108 272 c 0,37,38
 95 272 95 272 89 271 c 1,39,40
 106 327 106 327 157.5 363.5 c 128,-1,41
 209 400 209 400 267 400 c 0,42,43
 331 400 331 400 363 363.5 c 128,-1,44
 395 327 395 327 382 264 c 2,45,-1
 291 -162 l 1,0,1
92 57 m 256,46,47
 95 71 95 71 87 81 c 128,-1,48
 79 91 79 91 65 91 c 256,49,50
 51 91 51 91 39.5 81 c 128,-1,51
 28 71 28 71 25 57 c 256,52,53
 22 43 22 43 29.5 33.5 c 128,-1,54
 37 24 37 24 51 24 c 256,55,56
 65 24 65 24 77 33.5 c 128,-1,57
 89 43 89 43 92 57 c 256,46,47
EndSplineSet
EndChar

StartChar: uni0E27
Encoding: 3623 3623 252
Width: 335
Flags: W
LayerCount: 2
Fore
SplineSet
248 58 m 2,0,1
 242 31 242 31 218.5 11.5 c 128,-1,2
 195 -8 195 -8 168 -8 c 256,3,4
 141 -8 141 -8 125.5 11.5 c 128,-1,5
 110 31 110 31 116 58 c 256,6,7
 122 85 122 85 145.5 104.5 c 128,-1,8
 169 124 169 124 196 124 c 0,9,10
 213 124 213 124 224 117 c 1,11,-1
 259 279 l 2,12,13
 278 368 278 368 179 368 c 0,14,15
 101 368 101 368 66 296 c 1,16,-1
 29 296 l 1,17,18
 74 400 74 400 188 400 c 0,19,20
 245 400 245 400 276.5 370 c 128,-1,21
 308 340 308 340 296 285 c 2,22,-1
 248 58 l 2,0,1
216 58 m 256,23,24
 219 72 219 72 211 82 c 128,-1,25
 203 92 203 92 189 92 c 256,26,27
 175 92 175 92 163 82 c 128,-1,28
 151 72 151 72 148 58 c 256,29,30
 145 44 145 44 153 34 c 128,-1,31
 161 24 161 24 175 24 c 256,32,33
 189 24 189 24 201 34 c 128,-1,34
 213 44 213 44 216 58 c 256,23,24
EndSplineSet
EndChar

StartChar: uni0E28
Encoding: 3624 3624 253
Width: 393
Flags: W
LayerCount: 2
Fore
SplineSet
232 246 m 256,0,1
 235 259 235 259 227.5 268 c 128,-1,2
 220 277 220 277 207 277 c 256,3,4
 194 277 194 277 183.5 268 c 128,-1,5
 173 259 173 259 170 246 c 256,6,7
 167 233 167 233 174 224 c 128,-1,8
 181 215 181 215 194 215 c 256,9,10
 207 215 207 215 218 224 c 128,-1,11
 229 233 229 233 232 246 c 256,0,1
301 34 m 1,12,13
 289 -13 289 -13 253 -37 c 1,14,-1
 225 -19 l 1,15,16
 259 7 259 7 268 47 c 2,17,-1
 315 269 l 2,18,19
 325 317 325 317 295 342.5 c 128,-1,20
 265 368 265 368 220 368 c 0,21,22
 174 368 174 368 132.5 336.5 c 128,-1,23
 91 305 91 305 82 259 c 0,24,25
 77 237 77 237 78 206 c 0,26,27
 80 162 80 162 80 156 c 1,28,29
 101 213 101 213 131 253 c 0,30,31
 171 305 171 305 215 305 c 0,32,33
 240 305 240 305 253 289 c 128,-1,34
 266 273 266 273 260 246 c 0,35,36
 254 221 254 221 233.5 203.5 c 128,-1,37
 213 186 213 186 188 186 c 0,38,39
 162 186 162 186 147 210 c 1,40,41
 129 189 129 189 106 150 c 0,42,43
 79 102 79 102 71 65 c 2,44,-1
 58 0 l 1,45,-1
 22 0 l 1,46,-1
 41 92 l 2,47,48
 47 121 47 121 42.5 174 c 128,-1,49
 38 227 38 227 44 255 c 0,50,51
 58 320 58 320 110.5 360 c 128,-1,52
 163 400 163 400 229 400 c 0,53,54
 279 400 279 400 313 378 c 1,55,56
 347 415 347 415 401 427 c 1,57,-1
 419 402 l 1,58,59
 393 397 393 397 372.5 387 c 128,-1,60
 352 377 352 377 335 360 c 1,61,62
 363 328 363 328 351 272 c 2,63,-1
 301 34 l 1,12,13
EndSplineSet
EndChar

StartChar: uni0E29
Encoding: 3625 3625 254
Width: 438
Flags: W
LayerCount: 2
Fore
SplineSet
450 239 m 1,0,1
 431 212 431 212 376 175 c 1,2,-1
 357 85 l 2,3,4
 337 -8 337 -8 203 -8 c 0,5,6
 68 -8 68 -8 88 85 c 2,7,-1
 128 275 l 1,8,9
 113 268 113 268 96 268 c 0,10,11
 69 268 69 268 54 287.5 c 128,-1,12
 39 307 39 307 44 334 c 0,13,14
 50 361 50 361 74 380.5 c 128,-1,15
 98 400 98 400 125 400 c 256,16,17
 152 400 152 400 167 380.5 c 128,-1,18
 182 361 182 361 176 334 c 2,19,-1
 124 88 l 2,20,21
 111 25 111 25 209 25 c 0,22,23
 308 25 308 25 321 88 c 2,24,-1
 337 161 l 1,25,26
 305 154 305 154 286 154 c 0,27,28
 240 154 240 154 211.5 179 c 128,-1,29
 183 204 183 204 191 240 c 1,30,31
 195 263 195 263 214.5 278.5 c 128,-1,32
 234 294 234 294 256 294 c 0,33,34
 279 294 279 294 291.5 278.5 c 128,-1,35
 304 263 304 263 300 240 c 1,36,37
 292 205 292 205 254 189 c 1,38,39
 264 182 264 182 292 182 c 0,40,41
 319 182 319 182 343 192 c 1,42,-1
 381 367 l 2,43,44
 389 405 389 405 410 427 c 1,45,-1
 438 409 l 1,46,47
 424 397 424 397 414 354 c 2,48,-1
 384 212 l 1,49,50
 411 230 411 230 432 258 c 1,51,-1
 450 239 l 1,0,1
273 240 m 0,52,53
 275 251 275 251 268 259.5 c 128,-1,54
 261 268 261 268 250 268 c 256,55,56
 239 268 239 268 229.5 259.5 c 128,-1,57
 220 251 220 251 218 240 c 0,58,59
 215 229 215 229 221.5 221 c 128,-1,60
 228 213 228 213 239 213 c 256,61,62
 250 213 250 213 260 221 c 128,-1,63
 270 229 270 229 273 240 c 0,52,53
144 334 m 0,64,65
 147 348 147 348 139.5 358 c 128,-1,66
 132 368 132 368 118 368 c 256,67,68
 104 368 104 368 91.5 358 c 128,-1,69
 79 348 79 348 76 334 c 0,70,71
 74 320 74 320 81.5 310 c 128,-1,72
 89 300 89 300 103 300 c 256,73,74
 117 300 117 300 129.5 310 c 128,-1,75
 142 320 142 320 144 334 c 0,64,65
EndSplineSet
EndChar

StartChar: uni0E2A
Encoding: 3626 3626 255
Width: 381
Flags: W
LayerCount: 2
Fore
SplineSet
291 42 m 2,0,1
 283 5 283 5 262 -18 c 1,2,-1
 234 0 l 1,3,4
 248 12 248 12 260 54 c 0,5,6
 265 75 265 75 265 100 c 0,7,8
 263 154 263 154 237 201 c 0,9,10
 217 236 217 236 188 257 c 1,11,12
 170 257 170 257 124 217.5 c 128,-1,13
 78 178 78 178 65 117 c 1,14,15
 80 124 80 124 100 124 c 0,16,17
 124 124 124 124 139 109 c 128,-1,18
 154 94 154 94 154 72 c 0,19,20
 154 41 154 41 128 16.5 c 128,-1,21
 102 -8 102 -8 72 -8 c 0,22,23
 17 -8 17 -8 17 59 c 0,24,25
 18 135 18 135 73 208.5 c 128,-1,26
 128 282 128 282 199 290 c 1,27,28
 230 270 230 270 249 242 c 128,-1,29
 268 214 268 214 275 193 c 0,30,31
 280 177 280 177 284 146 c 1,32,-1
 288 197 l 1,33,-1
 309 305 l 1,34,35
 309 333 309 333 273 352 c 0,36,37
 243 368 243 368 213 368 c 0,38,39
 169 368 169 368 132 350 c 0,40,41
 91 330 91 330 75 296 c 1,42,-1
 40 296 l 1,43,44
 59 345 59 345 114 374 c 0,45,46
 162 400 162 400 218 400 c 0,47,48
 272 400 272 400 309 374 c 1,49,50
 346 415 346 415 401 427 c 1,51,-1
 419 402 l 1,52,53
 363 391 363 391 329 353 c 1,54,55
 347 331 347 331 345 299 c 1,56,-1
 291 42 l 2,0,1
120 64 m 0,57,58
 120 91 120 91 92 91 c 0,59,60
 75 91 75 91 63 78 c 128,-1,61
 51 65 51 65 51 49 c 0,62,63
 51 24 51 24 78 24 c 0,64,65
 95 24 95 24 107.5 36 c 128,-1,66
 120 48 120 48 120 64 c 0,57,58
EndSplineSet
EndChar

StartChar: uni0E2B
Encoding: 3627 3627 256
Width: 427
Flags: W
LayerCount: 2
Fore
SplineSet
335 34 m 1,0,1
 323 -13 323 -13 287 -37 c 1,2,-1
 259 -19 l 1,3,4
 293 7 293 7 302 47 c 2,5,-1
 337 216 l 2,6,7
 347 262 347 262 323 262 c 0,8,9
 308 262 308 262 280 227 c 2,10,-1
 103 0 l 1,11,-1
 70 0 l 1,12,-1
 128 275 l 1,13,14
 113 268 113 268 96 268 c 0,15,16
 69 268 69 268 54 287.5 c 128,-1,17
 39 307 39 307 44 334 c 0,18,19
 50 361 50 361 74 380.5 c 128,-1,20
 98 400 98 400 125 400 c 256,21,22
 152 400 152 400 167 380.5 c 128,-1,23
 182 361 182 361 176 334 c 2,24,-1
 130 117 l 2,25,26
 128 108 128 108 112 55 c 1,27,28
 130 80 130 80 144 99 c 2,29,-1
 256 248 l 2,30,31
 276 273 276 273 297 283 c 1,32,33
 277 302 277 302 283 334 c 0,34,35
 289 361 289 361 313 380.5 c 128,-1,36
 337 400 337 400 364 400 c 256,37,38
 391 400 391 400 406 380.5 c 128,-1,39
 421 361 421 361 415 334 c 0,40,41
 407 296 407 296 370 277 c 1,42,43
 383 260 383 260 373 216 c 2,44,-1
 335 34 l 1,0,1
144 334 m 0,45,46
 147 348 147 348 139.5 358 c 128,-1,47
 132 368 132 368 118 368 c 256,48,49
 104 368 104 368 91.5 358 c 128,-1,50
 79 348 79 348 76 334 c 0,51,52
 74 320 74 320 81.5 310 c 128,-1,53
 89 300 89 300 103 300 c 256,54,55
 117 300 117 300 129.5 310 c 128,-1,56
 142 320 142 320 144 334 c 0,45,46
382 334 m 0,57,58
 385 348 385 348 377.5 358 c 128,-1,59
 370 368 370 368 356 368 c 256,60,61
 342 368 342 368 329.5 358 c 128,-1,62
 317 348 317 348 314 334 c 0,63,64
 312 320 312 320 319.5 310 c 128,-1,65
 327 300 327 300 341 300 c 256,66,67
 355 300 355 300 367.5 310 c 128,-1,68
 380 320 380 320 382 334 c 0,57,58
EndSplineSet
EndChar

StartChar: uni0E2C
Encoding: 3628 3628 257
Width: 454
Flags: W
LayerCount: 2
Fore
SplineSet
144 334 m 0,0,1
 147 348 147 348 139.5 358 c 128,-1,2
 132 368 132 368 118 368 c 256,3,4
 104 368 104 368 91.5 358 c 128,-1,5
 79 348 79 348 76 334 c 0,6,7
 74 320 74 320 81.5 310 c 128,-1,8
 89 300 89 300 103 300 c 256,9,10
 117 300 117 300 129.5 310 c 128,-1,11
 142 320 142 320 144 334 c 0,0,1
393 334 m 0,12,13
 396 348 396 348 388.5 358 c 128,-1,14
 381 368 381 368 367 368 c 256,15,16
 353 368 353 368 340.5 358 c 128,-1,17
 328 348 328 348 325 334 c 0,18,19
 323 320 323 320 330.5 310 c 128,-1,20
 338 300 338 300 352 300 c 256,21,22
 366 300 366 300 378.5 310 c 128,-1,23
 391 320 391 320 393 334 c 0,12,13
355 0 m 1,24,-1
 311 0 l 1,25,-1
 252 195 l 1,26,-1
 111 0 l 1,27,-1
 70 0 l 1,28,-1
 128 275 l 1,29,30
 113 268 113 268 96 268 c 0,31,32
 69 268 69 268 54 287.5 c 128,-1,33
 39 307 39 307 44 334 c 0,34,35
 50 361 50 361 74 380.5 c 128,-1,36
 98 400 98 400 125 400 c 256,37,38
 152 400 152 400 167 380.5 c 128,-1,39
 182 361 182 361 176 334 c 2,40,-1
 126 98 l 2,41,42
 123 82 123 82 113 49 c 1,43,44
 123 66 123 66 139 92 c 1,45,-1
 243 232 l 1,46,-1
 277 232 l 1,47,-1
 321 92 l 2,48,49
 323 85 323 85 331 49 c 1,50,51
 336 81 336 81 339 98 c 2,52,-1
 377 275 l 1,53,54
 362 268 362 268 345 268 c 0,55,56
 318 268 318 268 303 287.5 c 128,-1,57
 288 307 288 307 293 334 c 0,58,59
 299 361 299 361 323 380.5 c 128,-1,60
 347 400 347 400 374 400 c 0,61,62
 395 400 395 400 404 388 c 1,63,64
 429 415 429 415 484 427 c 1,65,-1
 502 402 l 1,66,67
 446 391 446 391 424 367 c 1,68,69
 429 349 429 349 425 334 c 2,70,-1
 355 0 l 1,24,-1
EndSplineSet
Substitution2: "<23,16000>  in Thai lookup 77 nested-substitutions 0 subtable" uni0E2C.alt1
Substitution2: "Single Substitution lookup 58 subtable" uni0E2C.alt1
EndChar

StartChar: uni0E2D
Encoding: 3629 3629 258
Width: 387
Flags: W
LayerCount: 2
Fore
SplineSet
166 208 m 256,0,1
 169 222 169 222 161 232 c 128,-1,2
 153 242 153 242 139 242 c 256,3,4
 125 242 125 242 113 232 c 128,-1,5
 101 222 101 222 98 208 c 256,6,7
 95 194 95 194 102.5 184 c 128,-1,8
 110 174 110 174 124 174 c 256,9,10
 138 174 138 174 150.5 184 c 128,-1,11
 163 194 163 194 166 208 c 256,0,1
306 85 m 1,12,13
 284 -8 284 -8 152 -8 c 256,14,15
 20 -8 20 -8 40 85 c 2,16,-1
 66 208 l 2,17,18
 71 235 71 235 95 254.5 c 128,-1,19
 119 274 119 274 146 274 c 256,20,21
 173 274 173 274 188 254.5 c 128,-1,22
 203 235 203 235 198 208 c 0,23,24
 192 181 192 181 170 161.5 c 128,-1,25
 148 142 148 142 118 142 c 0,26,27
 101 142 101 142 89 149 c 1,28,-1
 77 93 l 2,29,30
 63 25 63 25 161 25 c 0,31,32
 257 25 257 25 271 93 c 2,33,-1
 311 279 l 2,34,35
 320 321 320 321 290 346 c 0,36,37
 263 368 263 368 216 368 c 0,38,39
 175 368 175 368 137 349 c 0,40,41
 95 328 95 328 81 296 c 1,42,-1
 45 296 l 1,43,44
 65 343 65 343 114 371.5 c 128,-1,45
 163 400 163 400 225 400 c 0,46,47
 284 400 284 400 319 372 c 0,48,49
 360 340 360 340 348 285 c 2,50,-1
 306 85 l 1,12,13
EndSplineSet
EndChar

StartChar: uni0E2E
Encoding: 3630 3630 259
Width: 372
Flags: W
LayerCount: 2
Fore
SplineSet
291 89 m 2,0,1
 271 -8 271 -8 138 -8 c 0,2,3
 3 -8 3 -8 23 89 c 2,4,-1
 43 182 l 2,5,6
 49 209 49 209 72.5 228.5 c 128,-1,7
 96 248 96 248 123 248 c 256,8,9
 150 248 150 248 165.5 228.5 c 128,-1,10
 181 209 181 209 175 182 c 256,11,12
 169 155 169 155 148 135.5 c 128,-1,13
 127 116 127 116 95 116 c 0,14,15
 78 116 78 116 67 123 c 1,16,-1
 60 93 l 1,17,18
 46 25 46 25 145 25 c 0,19,20
 242 25 242 25 256 94 c 2,21,-1
 300 297 l 2,22,23
 303 310 303 310 297 320 c 1,24,25
 250 268 250 268 161 268 c 0,26,27
 50 268 50 268 63 328 c 0,28,29
 71 366 71 366 126 386 c 0,30,31
 167 401 167 401 215 401 c 0,32,33
 274 401 274 401 307 372 c 1,34,35
 334 412 334 412 386 427 c 1,36,-1
 404 402 l 1,37,38
 351 388 351 388 325 349 c 1,39,40
 340 318 340 318 333 283 c 2,41,-1
 291 89 l 2,0,1
282 347 m 1,42,43
 256 370 256 370 207 370 c 0,44,45
 172 370 172 370 141 360 c 0,46,47
 103 348 103 348 99 328 c 0,48,49
 93 300 93 300 170 300 c 0,50,51
 245 300 245 300 282 347 c 1,42,43
143 182 m 256,52,53
 146 196 146 196 138 206 c 128,-1,54
 130 216 130 216 116 216 c 256,55,56
 102 216 102 216 90 206 c 128,-1,57
 78 196 78 196 75 182 c 256,58,59
 72 168 72 168 80 158 c 128,-1,60
 88 148 88 148 102 148 c 256,61,62
 116 148 116 148 128 158 c 128,-1,63
 140 168 140 168 143 182 c 256,52,53
EndSplineSet
EndChar

StartChar: uni0E2F
Encoding: 3631 3631 260
Width: 391
Flags: W
LayerCount: 2
Fore
SplineSet
297 34 m 1,0,1
 285 -13 285 -13 249 -37 c 1,2,-1
 221 -19 l 1,3,4
 255 7 255 7 264 47 c 2,5,-1
 323 327 l 2,6,7
 330 358 330 358 299 360 c 1,8,9
 243 262 243 262 162 262 c 0,10,11
 115 262 115 262 95 282.5 c 128,-1,12
 75 303 75 303 82 336 c 0,13,14
 87 362 87 362 110.5 381 c 128,-1,15
 134 400 134 400 160 400 c 256,16,17
 186 400 186 400 200.5 381 c 128,-1,18
 215 362 215 362 210 336 c 0,19,20
 205 314 205 314 188 297 c 1,21,22
 247 316 247 316 277 392 c 1,23,-1
 313 392 l 2,24,25
 373 392 373 392 360 330 c 2,26,-1
 297 34 l 1,0,1
175 337 m 256,27,28
 178 350 178 350 171.5 358.5 c 128,-1,29
 165 367 165 367 152 367 c 256,30,31
 139 367 139 367 129 358.5 c 128,-1,32
 119 350 119 350 116 337 c 256,33,34
 113 324 113 324 119.5 316 c 128,-1,35
 126 308 126 308 139 308 c 256,36,37
 152 308 152 308 162 316 c 128,-1,38
 172 324 172 324 175 337 c 256,27,28
EndSplineSet
EndChar

StartChar: uni0E30
Encoding: 3632 3632 261
Width: 357
Flags: W
LayerCount: 2
Fore
SplineSet
341 382 m 1,0,1
 324 314 324 314 276 270.5 c 128,-1,2
 228 227 228 227 166 227 c 0,3,4
 115 227 115 227 84 246 c 0,5,6
 45 269 45 269 54 315 c 0,7,8
 60 341 60 341 83 360 c 128,-1,9
 106 379 106 379 132 379 c 256,10,11
 158 379 158 379 173 360 c 128,-1,12
 188 341 188 341 182 315 c 0,13,14
 175 281 175 281 142 262 c 1,15,16
 157 258 157 258 166 258 c 0,17,18
 221 260 221 260 256 293.5 c 128,-1,19
 291 327 291 327 305 382 c 1,20,-1
 341 382 l 1,0,1
148 315 m 256,21,22
 151 329 151 329 144 338 c 128,-1,23
 137 347 137 347 123 347 c 256,24,25
 109 347 109 347 98.5 338 c 128,-1,26
 88 329 88 329 85 315 c 256,27,28
 82 301 82 301 89 292.5 c 128,-1,29
 96 284 96 284 110 284 c 256,30,31
 124 284 124 284 134.5 292.5 c 128,-1,32
 145 301 145 301 148 315 c 256,21,22
296 170 m 1,33,34
 279 102 279 102 231 58.5 c 128,-1,35
 183 15 183 15 121 15 c 0,36,37
 70 15 70 15 39 34 c 0,38,39
 0 57 0 57 9 103 c 0,40,41
 15 129 15 129 38 148 c 128,-1,42
 61 167 61 167 87 167 c 256,43,44
 113 167 113 167 128 148 c 128,-1,45
 143 129 143 129 137 103 c 0,46,47
 130 69 130 69 97 50 c 1,48,49
 112 46 112 46 121 46 c 0,50,51
 176 48 176 48 211 81.5 c 128,-1,52
 246 115 246 115 260 170 c 1,53,-1
 296 170 l 1,33,34
103 103 m 256,54,55
 106 117 106 117 99 126 c 128,-1,56
 92 135 92 135 78 135 c 256,57,58
 64 135 64 135 53.5 126 c 128,-1,59
 43 117 43 117 40 103 c 256,60,61
 37 89 37 89 44 80.5 c 128,-1,62
 51 72 51 72 65 72 c 256,63,64
 79 72 79 72 89.5 80.5 c 128,-1,65
 100 89 100 89 103 103 c 256,54,55
EndSplineSet
EndChar

StartChar: uni0E31
Encoding: 3633 3633 262
Width: 0
Flags: W
LayerCount: 2
Fore
SplineSet
137 619 m 1,0,1
 122 551 122 551 68.5 507.5 c 128,-1,2
 15 464 15 464 -51 464 c 0,3,4
 -109 464 -109 464 -139 488 c 128,-1,5
 -169 512 -169 512 -160 551 c 0,6,7
 -155 577 -155 577 -132 596 c 128,-1,8
 -109 615 -109 615 -83 615 c 256,9,10
 -57 615 -57 615 -42 596.5 c 128,-1,11
 -27 578 -27 578 -32 552 c 0,12,13
 -39 518 -39 518 -74 498 c 1,14,15
 -60 495 -60 495 -37 495 c 0,16,17
 11 496 11 496 51 534 c 1,18,19
 86 569 86 569 99 619 c 1,20,-1
 137 619 l 1,0,1
-64 553 m 256,21,22
 -61 567 -61 567 -68.5 576.5 c 128,-1,23
 -76 586 -76 586 -89 586 c 256,24,25
 -102 586 -102 586 -114 576.5 c 128,-1,26
 -126 567 -126 567 -129 553 c 256,27,28
 -132 539 -132 539 -124 530 c 128,-1,29
 -116 521 -116 521 -103 521 c 256,30,31
 -90 521 -90 521 -78.5 530 c 128,-1,32
 -67 539 -67 539 -64 553 c 256,21,22
EndSplineSet
Substitution2: "<23,16000>  in Thai lookup 65 nested-substitutions 2 subtable" uni0E31.alt1
Substitution2: "Single Substitution lookup 58 subtable" uni0E31.alt1
EndChar

StartChar: uni0E32
Encoding: 3634 3634 263
Width: 316
Flags: W
LayerCount: 2
Fore
SplineSet
224 34 m 1,0,1
 212 -13 212 -13 176 -37 c 1,2,-1
 148 -19 l 1,3,4
 182 7 182 7 191 47 c 2,5,-1
 244 299 l 2,6,7
 250 329 250 329 232 348.5 c 128,-1,8
 214 368 214 368 175 368 c 0,9,10
 140 368 140 368 114 344.5 c 128,-1,11
 88 321 88 321 80 294 c 1,12,-1
 43 294 l 1,13,14
 53 336 53 336 92.5 368 c 128,-1,15
 132 400 132 400 183 400 c 0,16,17
 241 400 241 400 265.5 372 c 128,-1,18
 290 344 290 344 280 298 c 2,19,-1
 224 34 l 1,0,1
EndSplineSet
Substitution2: "<23,16000>  in Thai lookup 65 nested-substitutions 8 subtable" uni0E45
EndChar

StartChar: uni0E33
Encoding: 3635 3635 264
Width: 316
Flags: W
LayerCount: 2
Fore
SplineSet
62 538 m 256,0,1
 55 506 55 506 28.5 484 c 128,-1,2
 2 462 2 462 -29 462 c 0,3,4
 -61 462 -61 462 -79 484 c 128,-1,5
 -97 506 -97 506 -90 538 c 256,6,7
 -83 570 -83 570 -56 592.5 c 128,-1,8
 -29 615 -29 615 2 615 c 0,9,10
 34 615 34 615 51.5 592.5 c 128,-1,11
 69 570 69 570 62 538 c 256,0,1
29 538 m 256,12,13
 33 556 33 556 22.5 569 c 128,-1,14
 12 582 12 582 -4 582 c 0,15,16
 -22 582 -22 582 -37.5 569 c 128,-1,17
 -53 556 -53 556 -57 538 c 256,18,19
 -61 520 -61 520 -50.5 507.5 c 128,-1,20
 -40 495 -40 495 -22 495 c 0,21,22
 -5 495 -5 495 10 507.5 c 128,-1,23
 25 520 25 520 29 538 c 256,12,13
224 34 m 1,24,25
 212 -13 212 -13 176 -37 c 1,26,-1
 148 -19 l 1,27,28
 182 7 182 7 191 47 c 2,29,-1
 244 299 l 2,30,31
 250 329 250 329 232 348.5 c 128,-1,32
 214 368 214 368 175 368 c 0,33,34
 140 368 140 368 114 344.5 c 128,-1,35
 88 321 88 321 80 294 c 1,36,-1
 43 294 l 1,37,38
 53 336 53 336 92.5 368 c 128,-1,39
 132 400 132 400 183 400 c 0,40,41
 241 400 241 400 265.5 372 c 128,-1,42
 290 344 290 344 280 298 c 2,43,-1
 224 34 l 1,24,25
EndSplineSet
Substitution2: "<23,16000>  in Thai lookup 65 nested-substitutions 2 subtable" uni0E33.alt1
Substitution2: "Single Substitution lookup 58 subtable" uni0E33.alt1
EndChar

StartChar: uni0E34
Encoding: 3636 3636 265
Width: 0
Flags: W
LayerCount: 2
Fore
SplineSet
3 455 m 1,0,1
 -102 496 -102 496 -203 496 c 0,2,3
 -239 496 -239 496 -283 490 c 1,4,5
 -271 542 -271 542 -222 574 c 0,6,7
 -178 603 -178 603 -125 603 c 0,8,9
 9 603 9 603 3 455 c 1,0,1
-27 493 m 1,10,11
 -53 574 -53 574 -130 574 c 0,12,13
 -200 574 -200 574 -236 521 c 1,14,15
 -214 524 -214 524 -188 524 c 0,16,17
 -92 524 -92 524 -27 493 c 1,10,11
EndSplineSet
Substitution2: "<23,16000>  in Thai lookup 65 nested-substitutions 2 subtable" uni0E34.alt1
Substitution2: "Single Substitution lookup 58 subtable" uni0E34.alt1
EndChar

StartChar: uni0E35
Encoding: 3637 3637 266
Width: 0
Flags: W
LayerCount: 2
Fore
SplineSet
3 455 m 1,0,1
 -102 496 -102 496 -203 496 c 0,2,3
 -239 496 -239 496 -283 490 c 1,4,5
 -271 542 -271 542 -222 574 c 0,6,7
 -178 603 -178 603 -125 603 c 0,8,9
 -45 603 -45 603 -15 550 c 1,10,-1
 5 647 l 1,11,-1
 38 647 l 1,12,-1
 3 482 l 1,13,14
 4 469 4 469 3 455 c 1,0,1
-27 493 m 1,15,16
 -53 574 -53 574 -130 574 c 0,17,18
 -200 574 -200 574 -236 521 c 1,19,20
 -214 524 -214 524 -188 524 c 0,21,22
 -92 524 -92 524 -27 493 c 1,15,16
EndSplineSet
Substitution2: "<23,16000>  in Thai lookup 65 nested-substitutions 2 subtable" uni0E35.alt1
Substitution2: "Single Substitution lookup 58 subtable" uni0E35.alt1
EndChar

StartChar: uni0E36
Encoding: 3638 3638 267
Width: 0
Flags: W
LayerCount: 2
Fore
SplineSet
3 455 m 1,0,1
 -102 496 -102 496 -203 496 c 0,2,3
 -239 496 -239 496 -283 490 c 1,4,5
 -271 542 -271 542 -222 574 c 0,6,7
 -178 603 -178 603 -125 603 c 0,8,9
 -71 603 -71 603 -38 577 c 1,10,11
 -39 585 -39 585 -37 593 c 0,12,13
 -33 613 -33 613 -16 627.5 c 128,-1,14
 1 642 1 642 21 642 c 256,15,16
 41 642 41 642 52.5 627.5 c 128,-1,17
 64 613 64 613 60 593 c 0,18,19
 55 573 55 573 37.5 558.5 c 128,-1,20
 20 544 20 544 0 544 c 0,21,22
 -4 544 -4 544 -11 546 c 1,23,24
 5 511 5 511 3 455 c 1,0,1
-27 493 m 1,25,26
 -53 574 -53 574 -130 574 c 0,27,28
 -200 574 -200 574 -236 521 c 1,29,30
 -214 524 -214 524 -188 524 c 0,31,32
 -92 524 -92 524 -27 493 c 1,25,26
37 593 m 0,33,34
 39 604 39 604 33 611.5 c 128,-1,35
 27 619 27 619 16 619 c 256,36,37
 5 619 5 619 -3.5 611.5 c 128,-1,38
 -12 604 -12 604 -14 593 c 0,39,40
 -17 582 -17 582 -11 574.5 c 128,-1,41
 -5 567 -5 567 5 567 c 0,42,43
 16 567 16 567 25 574.5 c 128,-1,44
 34 582 34 582 37 593 c 0,33,34
EndSplineSet
Substitution2: "<23,16000>  in Thai lookup 65 nested-substitutions 2 subtable" uni0E36.alt1
Substitution2: "Single Substitution lookup 58 subtable" uni0E36.alt1
EndChar

StartChar: uni0E37
Encoding: 3639 3639 268
Width: 0
Flags: W
LayerCount: 2
Fore
SplineSet
-27 493 m 1,0,1
 -53 574 -53 574 -130 574 c 0,2,3
 -200 574 -200 574 -236 521 c 1,4,5
 -214 524 -214 524 -188 524 c 0,6,7
 -92 524 -92 524 -27 493 c 1,0,1
3 455 m 1,8,9
 -102 496 -102 496 -203 496 c 0,10,11
 -239 496 -239 496 -283 490 c 1,12,13
 -271 542 -271 542 -222 574 c 0,14,15
 -178 603 -178 603 -125 603 c 0,16,17
 -102 603 -102 603 -84 599 c 1,18,-1
 -74 647 l 1,19,-1
 -41 647 l 1,20,-1
 -54 587 l 1,21,22
 -28 574 -28 574 -15 550 c 1,23,-1
 5 647 l 1,24,-1
 38 647 l 1,25,-1
 3 482 l 1,26,27
 4 469 4 469 3 455 c 1,8,9
EndSplineSet
Substitution2: "<23,16000>  in Thai lookup 65 nested-substitutions 2 subtable" uni0E37.alt1
Substitution2: "Single Substitution lookup 58 subtable" uni0E37.alt1
EndChar

StartChar: uni0E38
Encoding: 3640 3640 269
Width: 0
Flags: W
LayerCount: 2
Fore
SplineSet
-149 -110 m 0,0,1
 -146 -99 -146 -99 -152 -91.5 c 128,-1,2
 -158 -84 -158 -84 -169 -84 c 256,3,4
 -180 -84 -180 -84 -189 -91.5 c 128,-1,5
 -198 -99 -198 -99 -201 -110 c 0,6,7
 -203 -121 -203 -121 -197 -128.5 c 128,-1,8
 -191 -136 -191 -136 -180 -136 c 256,9,10
 -169 -136 -169 -136 -160 -128.5 c 128,-1,11
 -151 -121 -151 -121 -149 -110 c 0,0,1
-141 -200 m 2,12,13
 -149 -238 -149 -238 -170 -260 c 1,14,-1
 -198 -242 l 1,15,16
 -182 -227 -182 -227 -174 -191 c 2,17,-1
 -168 -161 l 1,18,19
 -176 -164 -176 -164 -186 -164 c 0,20,21
 -208 -164 -208 -164 -220.5 -148.5 c 128,-1,22
 -233 -133 -233 -133 -228 -111 c 256,23,24
 -223 -89 -223 -89 -204.5 -73.5 c 128,-1,25
 -186 -58 -186 -58 -164 -58 c 256,26,27
 -142 -58 -142 -58 -129.5 -73.5 c 128,-1,28
 -117 -89 -117 -89 -122 -111 c 2,29,-1
 -141 -200 l 2,12,13
EndSplineSet
Substitution2: "<23,16000>  in Thai lookup 65 nested-substitutions 6 subtable" uni0E38.alt1
Substitution2: "Single Substitution lookup 59 subtable" a
Substitution2: "Single Substitution lookup 58 subtable" uni0E38.alt1
EndChar

StartChar: uni0E39
Encoding: 3641 3641 270
Width: 0
Flags: W
LayerCount: 2
Fore
SplineSet
-254 -110 m 0,0,1
 -251 -99 -251 -99 -257 -91.5 c 128,-1,2
 -263 -84 -263 -84 -274 -84 c 256,3,4
 -285 -84 -285 -84 -294 -91.5 c 128,-1,5
 -303 -99 -303 -99 -306 -110 c 0,6,7
 -308 -121 -308 -121 -302 -128.5 c 128,-1,8
 -296 -136 -296 -136 -285 -136 c 256,9,10
 -274 -136 -274 -136 -265 -128.5 c 128,-1,11
 -256 -121 -256 -121 -254 -110 c 0,0,1
-126 -127 m 1,12,-1
 -139 -193 l 1,13,14
 -153 -255 -153 -255 -225 -255 c 0,15,16
 -293 -255 -293 -255 -280 -195 c 2,17,-1
 -273 -161 l 1,18,19
 -281 -164 -281 -164 -291 -164 c 0,20,21
 -313 -164 -313 -164 -325.5 -148.5 c 128,-1,22
 -338 -133 -338 -133 -333 -111 c 256,23,24
 -328 -89 -328 -89 -309.5 -73.5 c 128,-1,25
 -291 -58 -291 -58 -269 -58 c 256,26,27
 -247 -58 -247 -58 -234.5 -73.5 c 128,-1,28
 -222 -89 -222 -89 -227 -111 c 2,29,-1
 -246 -201 l 2,30,31
 -251 -224 -251 -224 -216 -224 c 0,32,33
 -182 -224 -182 -224 -177 -201 c 2,34,-1
 -159 -114 l 2,35,36
 -151 -76 -151 -76 -130 -54 c 1,37,-1
 -102 -72 l 1,38,39
 -116 -84 -116 -84 -126 -127 c 1,12,-1
EndSplineSet
Substitution2: "<23,16000>  in Thai lookup 65 nested-substitutions 6 subtable" uni0E39.alt1
Substitution2: "Single Substitution lookup 59 subtable" b
Substitution2: "Single Substitution lookup 58 subtable" uni0E39.alt1
EndChar

StartChar: uni0E3A
Encoding: 3642 3642 271
Width: 0
Flags: W
LayerCount: 2
Fore
SplineSet
-126 -96 m 0,0,1
 -129 -107 -129 -107 -138 -115 c 128,-1,2
 -147 -123 -147 -123 -158 -123 c 256,3,4
 -169 -123 -169 -123 -175.5 -115 c 128,-1,5
 -182 -107 -182 -107 -179 -96 c 0,6,7
 -177 -85 -177 -85 -167.5 -77.5 c 128,-1,8
 -158 -70 -158 -70 -147 -70 c 256,9,10
 -136 -70 -136 -70 -130 -77.5 c 128,-1,11
 -124 -85 -124 -85 -126 -96 c 0,0,1
EndSplineSet
Substitution2: "<23,16000>  in Thai lookup 65 nested-substitutions 6 subtable" uni0E3A.alt1
Substitution2: "Single Substitution lookup 59 subtable" c
Substitution2: "Single Substitution lookup 58 subtable" uni0E3A.alt1
EndChar

StartChar: uni0E3F
Encoding: 3647 3647 272
Width: 411
Flags: W
LayerCount: 2
Fore
SplineSet
323 146 m 0,0,1
 300 41 300 41 168 25 c 1,2,-1
 150 -59 l 1,3,-1
 117 -59 l 1,4,-1
 134 22 l 1,5,-1
 118 22 l 2,6,7
 81 22 81 22 38 31 c 1,8,-1
 125 441 l 1,9,10
 184 454 184 454 219 454 c 2,11,-1
 226 454 l 1,12,-1
 241 523 l 1,13,-1
 274 523 l 1,14,-1
 259 452 l 1,15,16
 367 437 367 437 348 346 c 0,17,18
 334 279 334 279 264 251 c 1,19,20
 293 240 293 240 310 215 c 0,21,22
 331 185 331 185 323 146 c 0,0,1
286 145 m 0,23,24
 296 190 296 190 263 214 c 1,25,26
 233 234 233 234 178 234 c 2,27,-1
 119 234 l 1,28,-1
 82 59 l 1,29,30
 100 54 100 54 133 54 c 0,31,32
 187 54 187 54 227 74 c 0,33,34
 276 98 276 98 286 145 c 0,23,24
311 345 m 0,35,36
 320 386 320 386 286 406 c 0,37,38
 258 422 258 422 212 422 c 0,39,40
 192 422 192 422 158 415 c 1,41,-1
 126 267 l 1,42,-1
 196 267 l 2,43,44
 242 267 242 267 273 289.5 c 128,-1,45
 304 312 304 312 311 345 c 0,35,36
EndSplineSet
EndChar

StartChar: uni0E40
Encoding: 3648 3648 273
Width: 203
Flags: W
LayerCount: 2
Fore
SplineSet
125 62 m 256,0,1
 128 76 128 76 120 86 c 128,-1,2
 112 96 112 96 98 96 c 256,3,4
 84 96 84 96 72 86 c 128,-1,5
 60 76 60 76 57 62 c 256,6,7
 54 48 54 48 61.5 38 c 128,-1,8
 69 28 69 28 83 28 c 256,9,10
 97 28 97 28 109.5 38 c 128,-1,11
 122 48 122 48 125 62 c 256,0,1
158 62 m 256,12,13
 152 34 152 34 128 14 c 128,-1,14
 104 -6 104 -6 76 -6 c 0,15,16
 45 -6 45 -6 30 16 c 0,17,18
 17 35 17 35 23 62 c 2,19,-1
 88 367 l 2,20,21
 96 405 96 405 117 427 c 1,22,-1
 145 409 l 1,23,24
 131 397 131 397 122 358 c 2,25,-1
 71 121 l 1,26,27
 87 129 87 129 105 129 c 0,28,29
 133 129 133 129 148.5 109.5 c 128,-1,30
 164 90 164 90 158 62 c 256,12,13
EndSplineSet
EndChar

StartChar: uni0E41
Encoding: 3649 3649 274
Width: 377
Flags: W
LayerCount: 2
Fore
SplineSet
125 62 m 256,0,1
 128 76 128 76 120 86 c 128,-1,2
 112 96 112 96 98 96 c 256,3,4
 84 96 84 96 72 86 c 128,-1,5
 60 76 60 76 57 62 c 256,6,7
 54 48 54 48 61.5 38 c 128,-1,8
 69 28 69 28 83 28 c 256,9,10
 97 28 97 28 109.5 38 c 128,-1,11
 122 48 122 48 125 62 c 256,0,1
158 62 m 256,12,13
 152 34 152 34 128 14 c 128,-1,14
 104 -6 104 -6 76 -6 c 0,15,16
 45 -6 45 -6 30 16 c 0,17,18
 17 35 17 35 23 62 c 2,19,-1
 88 367 l 2,20,21
 96 405 96 405 117 427 c 1,22,-1
 145 409 l 1,23,24
 131 397 131 397 122 358 c 2,25,-1
 71 121 l 1,26,27
 87 129 87 129 105 129 c 0,28,29
 133 129 133 129 148.5 109.5 c 128,-1,30
 164 90 164 90 158 62 c 256,12,13
298 62 m 256,31,32
 301 76 301 76 293 86 c 128,-1,33
 285 96 285 96 271 96 c 256,34,35
 257 96 257 96 245 86 c 128,-1,36
 233 76 233 76 230 62 c 256,37,38
 227 48 227 48 234.5 38 c 128,-1,39
 242 28 242 28 256 28 c 256,40,41
 270 28 270 28 282.5 38 c 128,-1,42
 295 48 295 48 298 62 c 256,31,32
331 62 m 256,43,44
 325 34 325 34 301 14 c 128,-1,45
 277 -6 277 -6 249 -6 c 0,46,47
 218 -6 218 -6 203 16 c 0,48,49
 190 35 190 35 196 62 c 2,50,-1
 261 367 l 2,51,52
 269 405 269 405 290 427 c 1,53,-1
 318 409 l 1,54,55
 304 397 304 397 295 358 c 2,56,-1
 244 121 l 1,57,58
 260 129 260 129 278 129 c 0,59,60
 306 129 306 129 321.5 109.5 c 128,-1,61
 337 90 337 90 331 62 c 256,43,44
EndSplineSet
EndChar

StartChar: uni0E42
Encoding: 3650 3650 275
Width: 237
Flags: W
LayerCount: 2
Fore
SplineSet
158 60 m 256,0,1
 161 74 161 74 152.5 84 c 128,-1,2
 144 94 144 94 130 94 c 0,3,4
 117 94 117 94 105 84 c 128,-1,5
 93 74 93 74 90 60 c 256,6,7
 87 46 87 46 94.5 36 c 128,-1,8
 102 26 102 26 116 26 c 256,9,10
 130 26 130 26 142.5 36 c 128,-1,11
 155 46 155 46 158 60 c 256,0,1
191 60 m 256,12,13
 185 32 185 32 161 12 c 128,-1,14
 137 -8 137 -8 109 -8 c 0,15,16
 77 -8 77 -8 62 14 c 0,17,18
 50 33 50 33 55 60 c 2,19,-1
 144 476 l 2,20,21
 150 504 150 504 112.5 530 c 128,-1,22
 75 556 75 556 36 557 c 1,23,24
 61 651 61 651 148 651 c 0,25,26
 164 651 164 651 196.5 635.5 c 128,-1,27
 229 620 229 620 241 620 c 0,28,29
 259 620 259 620 269 645 c 1,30,-1
 297 637 l 1,31,32
 272 587 272 587 239 587 c 0,33,34
 223 587 223 587 189 603.5 c 128,-1,35
 155 620 155 620 138 620 c 0,36,37
 94 620 94 620 83 583 c 1,38,39
 195 548 195 548 179 472 c 2,40,-1
 104 119 l 1,41,42
 119 127 119 127 137 127 c 0,43,44
 165 127 165 127 181 107.5 c 128,-1,45
 197 88 197 88 191 60 c 256,12,13
EndSplineSet
EndChar

StartChar: uni0E43
Encoding: 3651 3651 276
Width: 242
Flags: W
LayerCount: 2
Fore
SplineSet
196 60 m 256,0,1
 190 32 190 32 166 12 c 128,-1,2
 142 -8 142 -8 115 -8 c 0,3,4
 83 -8 83 -8 67 14 c 1,5,6
 55 33 55 33 60 60 c 2,7,-1
 147 469 l 2,8,9
 151 486 151 486 164 508 c 0,10,11
 196 559 196 559 199 571 c 0,12,13
 204 596 204 596 190.5 612 c 128,-1,14
 177 628 177 628 152 628 c 0,15,16
 115 628 115 628 90 605 c 1,17,18
 118 609 118 609 132.5 593 c 128,-1,19
 147 577 147 577 142 551 c 0,20,21
 137 528 137 528 117.5 512 c 128,-1,22
 98 496 98 496 76 496 c 256,23,24
 54 496 54 496 40.5 512 c 128,-1,25
 27 528 27 528 34 560 c 0,26,27
 42 601 42 601 77 629 c 128,-1,28
 112 657 112 657 161 657 c 0,29,30
 197 657 197 657 221 634.5 c 128,-1,31
 245 612 245 612 237 577 c 0,32,33
 233 556 233 556 209.5 519 c 128,-1,34
 186 482 186 482 182 462 c 2,35,-1
 109 119 l 1,36,37
 124 127 124 127 143 127 c 0,38,39
 170 127 170 127 186 107.5 c 128,-1,40
 202 88 202 88 196 60 c 256,0,1
163 60 m 256,41,42
 166 74 166 74 157.5 84 c 128,-1,43
 149 94 149 94 135 94 c 0,44,45
 122 94 122 94 110 84 c 128,-1,46
 98 74 98 74 95 60 c 256,47,48
 92 46 92 46 99.5 36 c 128,-1,49
 107 26 107 26 121 26 c 256,50,51
 135 26 135 26 147.5 36 c 128,-1,52
 160 46 160 46 163 60 c 256,41,42
115 551 m 0,53,54
 117 562 117 562 111.5 570.5 c 128,-1,55
 106 579 106 579 93 579 c 256,56,57
 80 579 80 579 70.5 570.5 c 128,-1,58
 61 562 61 562 59 551 c 0,59,60
 56 540 56 540 62 531.5 c 128,-1,61
 68 523 68 523 81 523 c 256,62,63
 94 523 94 523 103 531.5 c 128,-1,64
 112 540 112 540 115 551 c 0,53,54
EndSplineSet
EndChar

StartChar: uni0E44
Encoding: 3652 3652 277
Width: 244
Flags: W
LayerCount: 2
Fore
SplineSet
198 60 m 256,0,1
 192 32 192 32 168 12 c 128,-1,2
 144 -8 144 -8 117 -8 c 0,3,4
 85 -8 85 -8 69 14 c 1,5,6
 57 33 57 33 62 60 c 2,7,-1
 177 601 l 1,8,-1
 83 497 l 1,9,-1
 53 509 l 1,10,11
 62 576 62 576 63 665 c 1,12,-1
 94 665 l 1,13,14
 91 578 91 578 85 534 c 1,15,-1
 193 655 l 1,16,17
 206 654 206 654 213 643 c 128,-1,18
 220 632 220 632 217 620 c 2,19,-1
 111 119 l 1,20,21
 126 127 126 127 145 127 c 0,22,23
 172 127 172 127 188 107.5 c 128,-1,24
 204 88 204 88 198 60 c 256,0,1
164 60 m 256,25,26
 167 74 167 74 159 84 c 128,-1,27
 151 94 151 94 137 94 c 256,28,29
 123 94 123 94 111 84 c 128,-1,30
 99 74 99 74 96 60 c 256,31,32
 93 46 93 46 101 36 c 128,-1,33
 109 26 109 26 123 26 c 256,34,35
 137 26 137 26 149 36 c 128,-1,36
 161 46 161 46 164 60 c 256,25,26
EndSplineSet
EndChar

StartChar: uni0E45
Encoding: 3653 3653 278
Width: 205
Flags: W
LayerCount: 2
Fore
SplineSet
71 -162 m 1,0,1
 59 -209 59 -209 23 -233 c 1,2,-1
 -5 -215 l 1,3,4
 29 -189 29 -189 38 -149 c 2,5,-1
 133 299 l 2,6,7
 139 329 139 329 121 348.5 c 128,-1,8
 103 368 103 368 64 368 c 0,9,10
 29 368 29 368 3.5 344.5 c 128,-1,11
 -22 321 -22 321 -30 294 c 1,12,-1
 -67 294 l 1,13,14
 -57 336 -57 336 -18 368 c 128,-1,15
 21 400 21 400 72 400 c 0,16,17
 130 400 130 400 154.5 372 c 128,-1,18
 179 344 179 344 169 298 c 2,19,-1
 71 -162 l 1,0,1
EndSplineSet
EndChar

StartChar: uni0E46
Encoding: 3654 3654 279
Width: 399
Flags: W
LayerCount: 2
Fore
SplineSet
261 -137 m 1,0,1
 249 -184 249 -184 213 -208 c 1,2,-1
 185 -190 l 1,3,4
 219 -164 219 -164 226 -128 c 2,5,-1
 317 300 l 2,6,7
 328 351 328 351 288 379 c 1,8,-1
 233 343 l 1,9,-1
 186 380 l 1,10,11
 140 362 140 362 125 318 c 1,12,13
 142 328 142 328 158 328 c 0,14,15
 184 328 184 328 198.5 310 c 128,-1,16
 213 292 213 292 207 266 c 0,17,18
 202 240 202 240 180 222.5 c 128,-1,19
 158 205 158 205 132 205 c 0,20,21
 101 205 101 205 86.5 228 c 128,-1,22
 72 251 72 251 77 282 c 0,23,24
 96 384 96 384 197 413 c 1,25,-1
 239 380 l 1,26,-1
 292 413 l 1,27,28
 371 380 371 380 354 300 c 2,29,-1
 261 -137 l 1,0,1
175 266 m 256,30,31
 178 279 178 279 171 287.5 c 128,-1,32
 164 296 164 296 151 296 c 256,33,34
 138 296 138 296 128.5 287.5 c 128,-1,35
 119 279 119 279 116 266 c 256,36,37
 113 253 113 253 119.5 245 c 128,-1,38
 126 237 126 237 139 237 c 256,39,40
 152 237 152 237 162 245 c 128,-1,41
 172 253 172 253 175 266 c 256,30,31
EndSplineSet
EndChar

StartChar: uni0E47
Encoding: 3655 3655 280
Width: 0
Flags: W
LayerCount: 2
Fore
SplineSet
11 511 m 0,0,1
 6 489 6 489 -12 475 c 128,-1,2
 -30 461 -30 461 -50 461 c 0,3,4
 -92 461 -92 461 -136 504 c 1,5,6
 -165 495 -165 495 -197 460 c 1,7,8
 -231 485 -231 485 -220 538 c 0,9,10
 -204 616 -204 616 -119 616 c 2,11,-1
 -53 616 l 2,12,13
 -4 616 -4 616 14 688 c 1,14,-1
 48 688 l 1,15,16
 39 645 39 645 11 616 c 128,-1,17
 -17 587 -17 587 -60 587 c 2,18,-1
 -129 587 l 2,19,20
 -177 587 -177 587 -187 541 c 0,21,22
 -191 519 -191 519 -184 502 c 1,23,24
 -153 530 -153 530 -126 534 c 1,25,26
 -112 519 -112 519 -85 498 c 1,27,28
 -84 506 -84 506 -83 511 c 0,29,30
 -79 531 -79 531 -62.5 544.5 c 128,-1,31
 -46 558 -46 558 -26 558 c 256,32,33
 -6 558 -6 558 4.5 544 c 128,-1,34
 15 530 15 530 11 511 c 0,0,1
-14 511 m 256,35,36
 -12 520 -12 520 -17 526.5 c 128,-1,37
 -22 533 -22 533 -31 533 c 256,38,39
 -40 533 -40 533 -48 526.5 c 128,-1,40
 -56 520 -56 520 -58 511 c 256,41,42
 -60 502 -60 502 -55 495.5 c 128,-1,43
 -50 489 -50 489 -41 489 c 256,44,45
 -32 489 -32 489 -24 495.5 c 128,-1,46
 -16 502 -16 502 -14 511 c 256,35,36
EndSplineSet
Substitution2: "<23,16000>  in Thai lookup 65 nested-substitutions 2 subtable" uni0E47.alt1
Substitution2: "Single Substitution lookup 58 subtable" uni0E47.alt1
EndChar

StartChar: uni0E48
Encoding: 3656 3656 281
Width: 0
Flags: W
LayerCount: 2
Fore
SplineSet
45 680 m 1,0,-1
 12 680 l 1,1,-1
 36 791 l 1,2,-1
 69 791 l 1,3,-1
 45 680 l 1,0,-1
EndSplineSet
Substitution2: "<23,16000>  in Thai lookup 65 nested-substitutions 5 subtable" uni0E48.alt3
Substitution2: "<23,16000>  in Thai lookup 65 nested-substitutions 3 subtable" uni0E48.alt1
Substitution2: "<23,16000>  in Thai lookup 65 nested-substitutions 2 subtable" uni0E48.alt3
Substitution2: "<23,16000>  in Thai lookup 65 nested-substitutions 0 subtable" uni0E48.alt2
Substitution2: "Single Substitution lookup 58 subtable" uni0E48.alt2
EndChar

StartChar: uni0E49
Encoding: 3657 3657 282
Width: 0
Flags: W
LayerCount: 2
Fore
SplineSet
174 826 m 1,0,1
 142 740 142 740 74 705 c 0,2,3
 20 677 20 677 -64 677 c 2,4,-1
 -82 677 l 1,5,-1
 -78 696 l 1,6,7
 -42 710 -42 710 -22 735 c 1,8,9
 -40 735 -40 735 -51.5 746.5 c 128,-1,10
 -63 758 -63 758 -63 775 c 0,11,12
 -63 801 -63 801 -42.5 818.5 c 128,-1,13
 -22 836 -22 836 0 836 c 0,14,15
 17 836 17 836 28 824.5 c 128,-1,16
 39 813 39 813 39 795 c 0,17,18
 39 789 39 789 38 785 c 0,19,20
 28 735 28 735 -23 703 c 1,21,22
 97 713 97 713 137 826 c 1,23,-1
 174 826 l 1,0,1
10 785 m 256,24,25
 12 795 12 795 7 802 c 128,-1,26
 2 809 2 809 -7 809 c 0,27,28
 -17 809 -17 809 -25.5 802 c 128,-1,29
 -34 795 -34 795 -36 785 c 256,30,31
 -38 775 -38 775 -32.5 768.5 c 128,-1,32
 -27 762 -27 762 -17 762 c 256,33,34
 -7 762 -7 762 0.5 768.5 c 128,-1,35
 8 775 8 775 10 785 c 256,24,25
EndSplineSet
Substitution2: "<23,16000>  in Thai lookup 65 nested-substitutions 5 subtable" uni0E49.alt3
Substitution2: "<23,16000>  in Thai lookup 65 nested-substitutions 3 subtable" uni0E49.alt1
Substitution2: "<23,16000>  in Thai lookup 65 nested-substitutions 2 subtable" uni0E49.alt3
Substitution2: "<23,16000>  in Thai lookup 65 nested-substitutions 0 subtable" uni0E49.alt2
Substitution2: "Single Substitution lookup 58 subtable" uni0E49.alt2
EndChar

StartChar: uni0E4A
Encoding: 3658 3658 283
Width: 0
Flags: W
LayerCount: 2
Fore
SplineSet
-111 725 m 0,0,1
 -109 735 -109 735 -114 742 c 128,-1,2
 -119 749 -119 749 -129 749 c 256,3,4
 -139 749 -139 749 -147.5 742 c 128,-1,5
 -156 735 -156 735 -158 725 c 0,6,7
 -161 715 -161 715 -155 708.5 c 128,-1,8
 -149 702 -149 702 -139 702 c 256,9,10
 -129 702 -129 702 -121.5 708.5 c 128,-1,11
 -114 715 -114 715 -111 725 c 0,0,1
99 824 m 1,12,13
 64 675 64 675 -76 675 c 1,14,-1
 -71 697 l 1,15,16
 -27 717 -27 717 -18 761 c 0,17,18
 -11 795 -11 795 -41 805 c 1,19,-1
 -76 774 l 1,20,-1
 -97 805 l 1,21,22
 -108 804 -108 804 -124 794 c 0,23,24
 -136 786 -136 786 -143 773 c 1,25,26
 -138 775 -138 775 -133 776 c 128,-1,27
 -128 777 -128 777 -123 777 c 0,28,29
 -102 777 -102 777 -91 762 c 128,-1,30
 -80 747 -80 747 -84 726 c 0,31,32
 -89 705 -89 705 -106.5 690.5 c 128,-1,33
 -124 676 -124 676 -145 676 c 0,34,35
 -171 676 -171 676 -181.5 693 c 128,-1,36
 -192 710 -192 710 -185 739 c 1,37,38
 -178 776 -178 776 -148 804.5 c 128,-1,39
 -118 833 -118 833 -86 833 c 1,40,-1
 -69 803 l 1,41,-1
 -40 833 l 1,42,43
 -11 832 -11 832 2 812.5 c 128,-1,44
 15 793 15 793 9 763 c 0,45,46
 1 727 1 727 -25 704 c 1,47,48
 -1 706 -1 706 22 733 c 1,49,50
 55 767 55 767 67 824 c 1,51,-1
 99 824 l 1,12,13
EndSplineSet
Substitution2: "<23,16000>  in Thai lookup 65 nested-substitutions 5 subtable" uni0E4A.alt3
Substitution2: "<23,16000>  in Thai lookup 65 nested-substitutions 3 subtable" uni0E4A.alt1
Substitution2: "<23,16000>  in Thai lookup 65 nested-substitutions 2 subtable" uni0E4A.alt3
Substitution2: "<23,16000>  in Thai lookup 65 nested-substitutions 0 subtable" uni0E4A.alt2
Substitution2: "Single Substitution lookup 58 subtable" uni0E4A.alt2
EndChar

StartChar: uni0E4B
Encoding: 3659 3659 284
Width: 0
Flags: W
LayerCount: 2
Fore
SplineSet
105 719 m 1,0,-1
 52 719 l 1,1,-1
 44 680 l 1,2,-1
 13 680 l 1,3,-1
 21 719 l 1,4,-1
 -31 719 l 1,5,-1
 -25 747 l 1,6,-1
 27 747 l 1,7,-1
 36 790 l 1,8,-1
 67 790 l 1,9,-1
 58 747 l 1,10,-1
 111 747 l 1,11,-1
 105 719 l 1,0,-1
EndSplineSet
Substitution2: "<23,16000>  in Thai lookup 65 nested-substitutions 5 subtable" uni0E4B.alt3
Substitution2: "<23,16000>  in Thai lookup 65 nested-substitutions 3 subtable" uni0E4B.alt1
Substitution2: "<23,16000>  in Thai lookup 65 nested-substitutions 2 subtable" uni0E4B.alt3
Substitution2: "<23,16000>  in Thai lookup 65 nested-substitutions 0 subtable" uni0E4B.alt2
Substitution2: "Single Substitution lookup 58 subtable" uni0E4B.alt2
EndChar

StartChar: uni0E4C
Encoding: 3660 3660 285
Width: 0
Flags: W
LayerCount: 2
Fore
SplineSet
117 807 m 1,0,1
 107 775 107 775 75 761 c 1,2,3
 57 752 57 752 27 746 c 0,4,5
 -1 741 -1 741 -10 733 c 1,6,7
 10 731 10 731 21 716.5 c 128,-1,8
 32 702 32 702 27 681 c 1,9,10
 23 659 23 659 5 644.5 c 128,-1,11
 -13 630 -13 630 -34 630 c 0,12,13
 -56 630 -56 630 -68 644.5 c 128,-1,14
 -80 659 -80 659 -76 681 c 0,15,16
 -62 747 -62 747 9 766 c 2,17,-1
 56 779 l 2,18,19
 82 787 82 787 86 807 c 1,20,-1
 117 807 l 1,0,1
2 680 m 256,21,22
 4 690 4 690 -1 698 c 128,-1,23
 -6 706 -6 706 -16 706 c 0,24,25
 -27 706 -27 706 -36.5 698 c 128,-1,26
 -46 690 -46 690 -48 680 c 256,27,28
 -50 670 -50 670 -44 662 c 128,-1,29
 -38 654 -38 654 -27 654 c 0,30,31
 -17 654 -17 654 -8.5 662 c 128,-1,32
 0 670 0 670 2 680 c 256,21,22
EndSplineSet
Substitution2: "<23,16000>  in Thai lookup 65 nested-substitutions 5 subtable" uni0E4C.alt3
Substitution2: "<23,16000>  in Thai lookup 65 nested-substitutions 3 subtable" uni0E4C.alt1
Substitution2: "<23,16000>  in Thai lookup 65 nested-substitutions 2 subtable" uni0E4C.alt3
Substitution2: "<23,16000>  in Thai lookup 65 nested-substitutions 0 subtable" uni0E4C.alt2
Substitution2: "Single Substitution lookup 58 subtable" uni0E4C.alt2
EndChar

StartChar: uni0E4D
Encoding: 3661 3661 286
Width: 0
Flags: W
LayerCount: 2
Fore
SplineSet
62 538 m 256,0,1
 55 506 55 506 28.5 484 c 128,-1,2
 2 462 2 462 -29 462 c 0,3,4
 -61 462 -61 462 -79 484 c 128,-1,5
 -97 506 -97 506 -90 538 c 256,6,7
 -83 570 -83 570 -56 592.5 c 128,-1,8
 -29 615 -29 615 2 615 c 0,9,10
 34 615 34 615 51.5 592.5 c 128,-1,11
 69 570 69 570 62 538 c 256,0,1
29 538 m 256,12,13
 33 556 33 556 22.5 569 c 128,-1,14
 12 582 12 582 -4 582 c 0,15,16
 -22 582 -22 582 -37.5 569 c 128,-1,17
 -53 556 -53 556 -57 538 c 256,18,19
 -61 520 -61 520 -50.5 507.5 c 128,-1,20
 -40 495 -40 495 -22 495 c 0,21,22
 -5 495 -5 495 10 507.5 c 128,-1,23
 25 520 25 520 29 538 c 256,12,13
EndSplineSet
Substitution2: "<23,16000>  in Thai lookup 65 nested-substitutions 2 subtable" uni0E4D.alt1
Substitution2: "Single Substitution lookup 58 subtable" uni0E4D.alt1
EndChar

StartChar: uni0E4E
Encoding: 3662 3662 287
Width: 0
Flags: W
LayerCount: 2
Fore
SplineSet
67 664 m 1,0,-1
 52 639 l 1,1,2
 36 644 36 644 16 644 c 0,3,4
 -29 644 -29 644 -35 613 c 0,5,6
 -42 580 -42 580 6 574 c 1,7,-1
 -7 551 l 1,8,9
 -19 555 -19 555 -31 555 c 0,10,11
 -59 555 -59 555 -79 542.5 c 128,-1,12
 -99 530 -99 530 -102 515 c 0,13,14
 -108 488 -108 488 -63 488 c 0,15,16
 -50 488 -50 488 -29 496 c 1,17,-1
 -33 471 l 1,18,19
 -54 463 -54 463 -81 463 c 0,20,21
 -106 463 -106 463 -121 477.5 c 128,-1,22
 -136 492 -136 492 -131 516 c 0,23,24
 -126 541 -126 541 -102 558 c 128,-1,25
 -78 575 -78 575 -53 575 c 1,26,27
 -71 588 -71 588 -65 613 c 0,28,29
 -53 671 -53 671 23 671 c 0,30,31
 50 671 50 671 67 664 c 1,0,-1
EndSplineSet
Substitution2: "<23,16000>  in Thai lookup 65 nested-substitutions 2 subtable" uni0E4E.alt1
Substitution2: "Single Substitution lookup 58 subtable" uni0E4E.alt1
EndChar

StartChar: uni0E4F
Encoding: 3663 3663 288
Width: 450
Flags: W
LayerCount: 2
Fore
SplineSet
280 163 m 0,0,1
 286 189 286 189 271.5 208 c 128,-1,2
 257 227 257 227 230 227 c 256,3,4
 203 227 203 227 180.5 208 c 128,-1,5
 158 189 158 189 152 163 c 0,6,7
 146 136 146 136 161 117.5 c 128,-1,8
 176 99 176 99 203 99 c 256,9,10
 230 99 230 99 252 117.5 c 128,-1,11
 274 136 274 136 280 163 c 0,0,1
315 163 m 256,12,13
 306 122 306 122 271 92.5 c 128,-1,14
 236 63 236 63 195 63 c 256,15,16
 154 63 154 63 131 92.5 c 128,-1,17
 108 122 108 122 117 163 c 256,18,19
 126 204 126 204 161 233 c 128,-1,20
 196 262 196 262 237 262 c 256,21,22
 278 262 278 262 301 233 c 128,-1,23
 324 204 324 204 315 163 c 256,12,13
350 163 m 256,24,25
 362 219 362 219 331.5 258 c 128,-1,26
 301 297 301 297 245 297 c 256,27,28
 189 297 189 297 141.5 258 c 128,-1,29
 94 219 94 219 82 163 c 0,30,31
 70 106 70 106 100 67 c 128,-1,32
 130 28 130 28 187 28 c 0,33,34
 243 28 243 28 290.5 67.5 c 128,-1,35
 338 107 338 107 350 163 c 256,24,25
385 163 m 0,36,37
 370 92 370 92 310 43 c 128,-1,38
 250 -6 250 -6 180 -6 c 0,39,40
 109 -6 109 -6 70.5 43 c 128,-1,41
 32 92 32 92 47 163 c 0,42,43
 62 233 62 233 121.5 282.5 c 128,-1,44
 181 332 181 332 252 332 c 0,45,46
 321 332 321 332 360.5 282 c 128,-1,47
 400 232 400 232 385 163 c 0,36,37
EndSplineSet
EndChar

StartChar: uni0E50
Encoding: 3664 3664 289
Width: 449
Flags: W
LayerCount: 2
Fore
SplineSet
398 144 m 0,0,1
 385 80 385 80 324.5 36.5 c 128,-1,2
 264 -7 264 -7 179 -7 c 256,3,4
 94 -7 94 -7 53 36.5 c 128,-1,5
 12 80 12 80 25 144 c 0,6,7
 39 208 39 208 98.5 251.5 c 128,-1,8
 158 295 158 295 243 295 c 256,9,10
 328 295 328 295 370 251.5 c 128,-1,11
 412 208 412 208 398 144 c 0,0,1
358 144 m 256,12,13
 369 195 369 195 336 229.5 c 128,-1,14
 303 264 303 264 236 264 c 256,15,16
 169 264 169 264 121 229.5 c 128,-1,17
 73 195 73 195 62 144 c 256,18,19
 51 93 51 93 84.5 59 c 128,-1,20
 118 25 118 25 185 25 c 256,21,22
 252 25 252 25 299.5 59 c 128,-1,23
 347 93 347 93 358 144 c 256,12,13
EndSplineSet
EndChar

StartChar: uni0E51
Encoding: 3665 3665 290
Width: 449
Flags: W
LayerCount: 2
Fore
SplineSet
396 124 m 0,0,1
 377 33 377 33 316 -19 c 1,2,-1
 272 -19 l 1,3,4
 339 28 339 28 358 117 c 0,5,6
 372 181 372 181 338.5 222 c 128,-1,7
 305 263 305 263 227 263 c 0,8,9
 168 263 168 263 118.5 227 c 128,-1,10
 69 191 69 191 57 133 c 0,11,12
 47 85 47 85 68.5 54.5 c 128,-1,13
 90 24 90 24 134 24 c 0,14,15
 191 24 191 24 226 76 c 1,16,17
 206 68 206 68 190 68 c 0,18,19
 161 68 161 68 146 86.5 c 128,-1,20
 131 105 131 105 137 133 c 0,21,22
 143 162 143 162 168 181 c 128,-1,23
 193 200 193 200 220 200 c 0,24,25
 254 200 254 200 268 177 c 128,-1,26
 282 154 282 154 275 121 c 0,27,28
 265 72 265 72 228 35 c 0,29,30
 185 -8 185 -8 118 -8 c 0,31,32
 60 -8 60 -8 33 36 c 0,33,34
 9 76 9 76 21 134 c 0,35,36
 37 209 37 209 98.5 251.5 c 128,-1,37
 160 294 160 294 233 294 c 0,38,39
 329 294 329 294 370 245.5 c 128,-1,40
 411 197 411 197 396 124 c 0,0,1
244 133 m 0,41,42
 247 150 247 150 238.5 161 c 128,-1,43
 230 172 230 172 213 172 c 256,44,45
 196 172 196 172 183 161 c 128,-1,46
 170 150 170 150 167 133 c 0,47,48
 163 116 163 116 171.5 105.5 c 128,-1,49
 180 95 180 95 197 95 c 256,50,51
 214 95 214 95 227 105.5 c 128,-1,52
 240 116 240 116 244 133 c 0,41,42
EndSplineSet
EndChar

StartChar: uni0E52
Encoding: 3666 3666 291
Width: 449
Flags: W
LayerCount: 2
Fore
SplineSet
403 146 m 0,0,1
 369 -12 369 -12 190 -12 c 0,2,3
 -3 -12 -3 -12 28 139 c 2,4,-1
 82 395 l 2,5,6
 89 424 89 424 63 425 c 1,7,-1
 70 460 l 1,8,9
 130 455 130 455 117 395 c 2,10,-1
 62 134 l 2,11,12
 38 21 38 21 198 21 c 0,13,14
 341 21 341 21 366 141 c 0,15,16
 379 202 379 202 372 235 c 0,17,18
 366 262 366 262 349 262 c 0,19,20
 328 262 328 262 311 245 c 128,-1,21
 294 228 294 228 287 204 c 1,22,-1
 264 204 l 1,23,24
 268 263 268 263 226 263 c 0,25,26
 178 263 178 263 161 215 c 1,27,28
 169 219 169 219 187 219 c 0,29,30
 212 219 212 219 226.5 200.5 c 128,-1,31
 241 182 241 182 236 157 c 256,32,33
 231 132 231 132 208 113.5 c 128,-1,34
 185 95 185 95 161 95 c 0,35,36
 132 95 132 95 117.5 118 c 128,-1,37
 103 141 103 141 112 181 c 0,38,39
 122 229 122 229 153.5 261.5 c 128,-1,40
 185 294 185 294 231 294 c 0,41,42
 276 294 276 294 285 246 c 1,43,44
 311 294 311 294 353 294 c 0,45,46
 388 294 388 294 403 259 c 1,47,48
 418 220 418 220 403 146 c 0,0,1
207 157 m 0,49,50
 210 171 210 171 202.5 180.5 c 128,-1,51
 195 190 195 190 181 190 c 0,52,53
 168 190 168 190 156 180.5 c 128,-1,54
 144 171 144 171 141 157 c 0,55,56
 138 144 138 144 146 134 c 128,-1,57
 154 124 154 124 167 124 c 0,58,59
 181 124 181 124 192.5 134 c 128,-1,60
 204 144 204 144 207 157 c 0,49,50
EndSplineSet
EndChar

StartChar: uni0E53
Encoding: 3667 3667 292
Width: 449
Flags: W
LayerCount: 2
Fore
SplineSet
372 0 m 1,0,-1
 337 0 l 1,1,-1
 376 188 l 2,2,3
 384 222 384 222 373 243 c 128,-1,4
 362 264 362 264 336 264 c 0,5,6
 313 264 313 264 289.5 239 c 128,-1,7
 266 214 266 214 260 184 c 2,8,-1
 221 0 l 1,9,-1
 184 0 l 1,10,-1
 223 185 l 2,11,12
 229 215 229 215 209.5 239.5 c 128,-1,13
 190 264 190 264 161 264 c 0,14,15
 124 264 124 264 94 228 c 0,16,17
 68 196 68 196 57 143 c 0,18,19
 53 126 53 126 53 109 c 1,20,21
 72 130 72 130 104 130 c 0,22,23
 131 130 131 130 146 110 c 128,-1,24
 161 90 161 90 155 63 c 256,25,26
 149 36 149 36 126 17 c 128,-1,27
 103 -2 103 -2 71 -2 c 0,28,29
 33 -2 33 -2 19.5 35.5 c 128,-1,30
 6 73 6 73 19 134 c 0,31,32
 53 294 53 294 170 294 c 0,33,34
 238 294 238 294 251 231 c 1,35,36
 287 294 287 294 342 294 c 0,37,38
 384 294 384 294 403 266.5 c 128,-1,39
 422 239 422 239 412 191 c 2,40,-1
 372 0 l 1,0,-1
124 64 m 0,41,42
 128 80 128 80 119 91 c 128,-1,43
 110 102 110 102 94 102 c 256,44,45
 78 102 78 102 65 91 c 128,-1,46
 52 80 52 80 48 64 c 0,47,48
 45 48 45 48 53.5 37 c 128,-1,49
 62 26 62 26 78 26 c 256,50,51
 94 26 94 26 107.5 37 c 128,-1,52
 121 48 121 48 124 64 c 0,41,42
EndSplineSet
EndChar

StartChar: uni0E54
Encoding: 3668 3668 293
Width: 449
Flags: W
LayerCount: 2
Fore
SplineSet
249 146 m 1,0,1
 252 162 252 162 244 173 c 128,-1,2
 236 184 236 184 220 184 c 256,3,4
 204 184 204 184 191 172.5 c 128,-1,5
 178 161 178 161 175 146 c 0,6,7
 171 130 171 130 179.5 119 c 128,-1,8
 188 108 188 108 203 108 c 256,9,10
 218 108 218 108 231.5 119.5 c 128,-1,11
 245 131 245 131 249 146 c 1,0,1
369 -11 m 1,12,13
 320 13 320 13 285 13 c 0,14,15
 262 13 262 13 212 3 c 0,16,17
 159 -7 159 -7 121 -8 c 0,18,19
 57 -10 57 -10 28.5 29.5 c 128,-1,20
 0 69 0 69 15 137 c 0,21,22
 31 213 31 213 91 254.5 c 128,-1,23
 151 296 151 296 237 296 c 0,24,25
 333 296 333 296 370 311 c 0,26,27
 440 341 440 341 468 414 c 1,28,-1
 502 414 l 1,29,30
 457 309 457 309 373 278 c 0,31,32
 331 263 331 263 229 263 c 0,33,34
 81 263 81 263 54 134 c 0,35,36
 43 82 43 82 62.5 52 c 128,-1,37
 82 22 82 22 127 22 c 0,38,39
 185 22 185 22 240 37 c 1,40,41
 126 69 126 69 145 149 c 0,42,43
 152 177 152 177 175.5 194.5 c 128,-1,44
 199 212 199 212 226 212 c 0,45,46
 255 212 255 212 269.5 193.5 c 128,-1,47
 284 175 284 175 278 146 c 0,48,49
 273 125 273 125 255 106 c 128,-1,50
 237 87 237 87 215 83 c 1,51,52
 237 65 237 65 285 54 c 0,53,54
 310 48 310 48 342.5 38.5 c 128,-1,55
 375 29 375 29 393 18 c 1,56,-1
 369 -11 l 1,12,13
EndSplineSet
EndChar

StartChar: uni0E55
Encoding: 3669 3669 294
Width: 449
Flags: W
LayerCount: 2
Fore
SplineSet
312 355 m 256,0,1
 315 369 315 369 306.5 379.5 c 128,-1,2
 298 390 298 390 284 390 c 256,3,4
 270 390 270 390 258 379.5 c 128,-1,5
 246 369 246 369 243 355 c 0,6,7
 240 342 240 342 248.5 331.5 c 128,-1,8
 257 321 257 321 270 321 c 0,9,10
 284 321 284 321 296.5 331 c 128,-1,11
 309 341 309 341 312 355 c 256,0,1
249 146 m 1,12,13
 252 162 252 162 244 173 c 128,-1,14
 236 184 236 184 220 184 c 256,15,16
 204 184 204 184 191 172.5 c 128,-1,17
 178 161 178 161 175 146 c 0,18,19
 171 130 171 130 179.5 119 c 128,-1,20
 188 108 188 108 203 108 c 256,21,22
 218 108 218 108 231.5 119.5 c 128,-1,23
 245 131 245 131 249 146 c 1,12,13
369 -11 m 1,24,25
 320 13 320 13 285 13 c 0,26,27
 262 13 262 13 212 3 c 0,28,29
 159 -7 159 -7 121 -8 c 0,30,31
 57 -10 57 -10 28.5 29.5 c 128,-1,32
 0 69 0 69 15 137 c 0,33,34
 31 213 31 213 91 254.5 c 128,-1,35
 151 296 151 296 239 296 c 1,36,37
 204 313 204 313 213 355 c 0,38,39
 219 382 219 382 242 401 c 128,-1,40
 265 420 265 420 291 420 c 0,41,42
 318 420 318 420 333 401 c 128,-1,43
 348 382 348 382 342 355 c 0,44,45
 333 314 333 314 292 297 c 1,46,47
 345 301 345 301 370 311 c 0,48,49
 440 341 440 341 468 414 c 1,50,-1
 502 414 l 1,51,52
 457 309 457 309 373 278 c 0,53,54
 331 263 331 263 229 263 c 0,55,56
 81 263 81 263 54 134 c 0,57,58
 43 82 43 82 62.5 52 c 128,-1,59
 82 22 82 22 127 22 c 0,60,61
 185 22 185 22 240 37 c 1,62,63
 126 69 126 69 145 149 c 0,64,65
 152 177 152 177 175.5 194.5 c 128,-1,66
 199 212 199 212 226 212 c 0,67,68
 255 212 255 212 269.5 193.5 c 128,-1,69
 284 175 284 175 278 146 c 0,70,71
 273 125 273 125 255 106 c 128,-1,72
 237 87 237 87 215 83 c 1,73,74
 237 65 237 65 285 54 c 0,75,76
 310 48 310 48 342.5 38.5 c 128,-1,77
 375 29 375 29 393 18 c 1,78,-1
 369 -11 l 1,24,25
EndSplineSet
EndChar

StartChar: uni0E56
Encoding: 3670 3670 295
Width: 449
Flags: W
LayerCount: 2
Fore
SplineSet
410 154 m 0,0,1
 377 -8 377 -8 177 -8 c 0,2,3
 104 -8 104 -8 70.5 17.5 c 128,-1,4
 37 43 37 43 46 85 c 0,5,6
 52 114 52 114 75.5 133 c 128,-1,7
 99 152 99 152 127 152 c 0,8,9
 156 152 156 152 171 133 c 128,-1,10
 186 114 186 114 180 85 c 0,11,12
 171 47 171 47 136 28 c 1,13,14
 166 24 166 24 193 24 c 0,15,16
 269 25 269 25 314 55 c 128,-1,17
 359 85 359 85 373 152 c 0,18,19
 383 202 383 202 349.5 232.5 c 128,-1,20
 316 263 316 263 249 263 c 0,21,22
 142 263 142 263 72 188 c 1,23,24
 99 340 99 340 62 414 c 1,25,-1
 105 414 l 1,26,27
 129 344 129 344 110 252 c 1,28,29
 172 294 172 294 248 294 c 0,30,31
 339 294 339 294 381 259 c 1,32,33
 424 221 424 221 410 154 c 0,0,1
152 85 m 0,34,35
 155 102 155 102 146.5 113 c 128,-1,36
 138 124 138 124 121 124 c 256,37,38
 104 124 104 124 91 113 c 128,-1,39
 78 102 78 102 75 85 c 0,40,41
 71 68 71 68 79 57.5 c 128,-1,42
 87 47 87 47 104 47 c 256,43,44
 121 47 121 47 134.5 57.5 c 128,-1,45
 148 68 148 68 152 85 c 0,34,35
EndSplineSet
EndChar

StartChar: uni0E57
Encoding: 3671 3671 296
Width: 449
Flags: W
LayerCount: 2
Fore
SplineSet
117 62 m 0,0,1
 121 80 121 80 111 90.5 c 128,-1,2
 101 101 101 101 86 101 c 256,3,4
 71 101 71 101 57.5 89.5 c 128,-1,5
 44 78 44 78 41 62 c 0,6,7
 38 48 38 48 47 36.5 c 128,-1,8
 56 25 56 25 70 25 c 0,9,10
 86 25 86 25 99.5 36 c 128,-1,11
 113 47 113 47 117 62 c 0,0,1
480 414 m 1,12,13
 453 370 453 370 429 253 c 0,14,15
 422 221 422 221 422 218 c 0,16,17
 392 76 392 76 343 37 c 128,-1,18
 294 -2 294 -2 239 -2 c 2,19,-1
 234 -2 l 1,20,21
 294 99 294 99 309 170 c 0,22,23
 329 264 329 264 277 264 c 0,24,25
 257 264 257 264 237 239 c 128,-1,26
 217 214 217 214 211 184 c 2,27,-1
 201 137 l 1,28,-1
 163 137 l 1,29,-1
 173 185 l 2,30,31
 179 214 179 214 166.5 239 c 128,-1,32
 154 264 154 264 133 264 c 0,33,34
 106 264 106 264 82 231 c 128,-1,35
 58 198 58 198 46 145 c 0,36,37
 42 123 42 123 41 108 c 1,38,39
 61 130 61 130 92 130 c 0,40,41
 120 130 120 130 135.5 110 c 128,-1,42
 151 90 151 90 145 62 c 0,43,44
 139 35 139 35 115 16 c 128,-1,45
 91 -3 91 -3 64 -3 c 0,46,47
 24 -3 24 -3 10 32.5 c 128,-1,48
 -4 68 -4 68 8 131 c 1,49,50
 24 206 24 206 60 250 c 128,-1,51
 96 294 96 294 139 294 c 0,52,53
 194 294 194 294 202 231 c 1,54,55
 230 294 230 294 285 294 c 0,56,57
 370 294 370 294 344 170 c 0,58,59
 329 103 329 103 291 40 c 1,60,61
 354 54 354 54 386 203 c 0,62,63
 422 376 422 376 443 414 c 1,64,-1
 480 414 l 1,12,13
EndSplineSet
EndChar

StartChar: uni0E58
Encoding: 3672 3672 297
Width: 449
Flags: W
LayerCount: 2
Fore
SplineSet
399 119 m 0,0,1
 372 -5 372 -5 273 -5 c 0,2,3
 200 -5 200 -5 152 81 c 1,4,5
 137 75 137 75 100.5 41 c 128,-1,6
 64 7 64 7 57 -9 c 1,7,8
 -5 26 -5 26 19 142 c 0,9,10
 51 294 51 294 232 294 c 0,11,12
 247 294 247 294 270.5 292 c 128,-1,13
 294 290 294 290 306 290 c 0,14,15
 349 290 349 290 373 309 c 0,16,17
 404 334 404 334 418 397 c 1,18,-1
 421 414 l 1,19,-1
 456 414 l 1,20,-1
 452 394 l 1,21,22
 423 255 423 255 304 255 c 0,23,24
 286 255 286 255 259 257 c 128,-1,25
 232 259 232 259 217 259 c 0,26,27
 150 259 150 259 109 228 c 128,-1,28
 68 197 68 197 58 146 c 1,29,30
 42 74 42 74 61 50 c 1,31,32
 114 106 114 106 170 125 c 1,33,34
 178 98 178 98 209 67 c 1,35,36
 245 28 245 28 277 28 c 0,37,38
 315 28 315 28 340 55 c 1,39,40
 322 52 322 52 318 52 c 0,41,42
 290 52 290 52 274.5 71.5 c 128,-1,43
 259 91 259 91 265 119 c 256,44,45
 271 147 271 147 294.5 166.5 c 128,-1,46
 318 186 318 186 346 186 c 256,47,48
 374 186 374 186 389.5 166.5 c 128,-1,49
 405 147 405 147 399 119 c 0,0,1
369 119 m 256,50,51
 372 134 372 134 363.5 145 c 128,-1,52
 355 156 355 156 340 156 c 256,53,54
 325 156 325 156 311.5 145 c 128,-1,55
 298 134 298 134 295 119 c 256,56,57
 292 104 292 104 300.5 93 c 128,-1,58
 309 82 309 82 324 82 c 256,59,60
 339 82 339 82 352.5 93 c 128,-1,61
 366 104 366 104 369 119 c 256,50,51
EndSplineSet
EndChar

StartChar: uni0E59
Encoding: 3673 3673 298
Width: 449
Flags: W
LayerCount: 2
Fore
SplineSet
377 16 m 1,0,-1
 352 -11 l 1,1,2
 315 24 315 24 278 101 c 0,3,4
 249 161 249 161 240 210 c 0,5,6
 237 228 237 228 217.5 245.5 c 128,-1,7
 198 263 198 263 171 264 c 1,8,9
 136 264 136 264 97.5 228 c 128,-1,10
 59 192 59 192 48 139 c 1,11,12
 39 65 39 65 77 37 c 1,13,-1
 77 43 l 2,14,15
 77 60 77 60 83.5 75.5 c 128,-1,16
 90 91 90 91 101.5 102.5 c 128,-1,17
 113 114 113 114 127.5 121 c 128,-1,18
 142 128 142 128 158 128 c 0,19,20
 182 128 182 128 196.5 113 c 128,-1,21
 211 98 211 98 211 75 c 0,22,23
 211 58 211 58 203.5 44 c 128,-1,24
 196 30 196 30 184.5 19.5 c 128,-1,25
 173 9 173 9 158.5 3 c 128,-1,26
 144 -3 144 -3 130 -3 c 0,27,28
 58 -4 58 -4 29 36.5 c 128,-1,29
 0 77 0 77 13 144 c 1,30,31
 27 210 27 210 74 252.5 c 128,-1,32
 121 295 121 295 176 295 c 0,33,34
 233 295 233 295 259 245 c 1,35,36
 273 294 273 294 308 294 c 0,37,38
 317 294 317 294 339 278.5 c 128,-1,39
 361 263 361 263 372 263 c 0,40,41
 404 263 404 263 417 320 c 1,42,43
 428 374 428 374 428 414 c 1,44,-1
 458 414 l 1,45,46
 456 363 456 363 447 323 c 0,47,48
 428 231 428 231 374 231 c 0,49,50
 363 231 363 231 335.5 247 c 128,-1,51
 308 263 308 263 305 263 c 0,52,53
 290 263 290 263 278 226 c 1,54,55
 276 186 276 186 299 130 c 1,56,57
 331 62 331 62 377 16 c 1,0,-1
181 62 m 0,58,59
 184 77 184 77 175.5 88 c 128,-1,60
 167 99 167 99 152 99 c 256,61,62
 137 99 137 99 123.5 88 c 128,-1,63
 110 77 110 77 107 62 c 0,64,65
 103 47 103 47 112 36 c 128,-1,66
 121 25 121 25 136 25 c 256,67,68
 151 25 151 25 164 36 c 128,-1,69
 177 47 177 47 181 62 c 0,58,59
EndSplineSet
EndChar

StartChar: uni0E5A
Encoding: 3674 3674 299
Width: 522
Flags: W
LayerCount: 2
Fore
SplineSet
430 34 m 1,0,1
 418 -13 418 -13 382 -37 c 1,2,-1
 354 -19 l 1,3,4
 388 7 388 7 397 47 c 2,5,-1
 456 327 l 2,6,7
 463 358 463 358 432 360 c 1,8,9
 396 294 396 294 347 272 c 1,10,-1
 297 34 l 1,11,12
 285 -13 285 -13 249 -37 c 1,13,-1
 221 -19 l 1,14,15
 255 7 255 7 264 47 c 2,16,-1
 323 327 l 2,17,18
 330 358 330 358 299 360 c 1,19,20
 243 262 243 262 162 262 c 0,21,22
 115 262 115 262 95 282.5 c 128,-1,23
 75 303 75 303 82 336 c 0,24,25
 87 362 87 362 110.5 381 c 128,-1,26
 134 400 134 400 160 400 c 256,27,28
 186 400 186 400 200.5 381 c 128,-1,29
 215 362 215 362 210 336 c 0,30,31
 205 314 205 314 188 297 c 1,32,33
 247 316 247 316 277 392 c 1,34,-1
 313 392 l 2,35,36
 373 392 373 392 360 330 c 1,37,-1
 356 315 l 1,38,39
 389 341 389 341 410 392 c 1,40,-1
 446 392 l 2,41,42
 506 392 506 392 493 330 c 2,43,-1
 430 34 l 1,0,1
175 337 m 256,44,45
 178 350 178 350 171.5 358.5 c 128,-1,46
 165 367 165 367 152 367 c 256,47,48
 139 367 139 367 129 358.5 c 128,-1,49
 119 350 119 350 116 337 c 256,50,51
 113 324 113 324 119.5 316 c 128,-1,52
 126 308 126 308 139 308 c 256,53,54
 152 308 152 308 162 316 c 128,-1,55
 172 324 172 324 175 337 c 256,44,45
EndSplineSet
EndChar

